  0
SECTION
  2
HEADER
  9
$ACADVER
  1
AC1027
  9
$ACADMAINTVER
 70
105
  9
$DWGCODEPAGE
  3
ANSI_1252
  9
$LASTSAVEDBY
  1
ezdxf
  9
$REQUIREDVERSIONS
160
0
  9
$INSBASE
 10
0.0
 20
0.0
 30
0.0
  9
$EXTMIN
 10
1e+20
 20
1e+20
 30
1e+20
  9
$EXTMAX
 10
-1e+20
 20
-1e+20
 30
-1e+20
  9
$LIMMIN
 10
0.0
 20
0.0
  9
$LIMMAX
 10
420.0
 20
297.0
  9
$ORTHOMODE
 70
0
  9
$REGENMODE
 70
1
  9
$FILLMODE
 70
1
  9
$QTEXTMODE
 70
0
  9
$MIRRTEXT
 70
1
  9
$LTSCALE
 40
1.0
  9
$ATTMODE
 70
1
  9
$TEXTSIZE
 40
2.5
  9
$TRACEWID
 40
1.0
  9
$TEXTSTYLE
  7
Standard
  9
$CLAYER
  8
0
  9
$CELTYPE
  6
ByLayer
  9
$CECOLOR
 62
256
  9
$CELTSCALE
 40
1.0
  9
$DISPSILH
 70
0
  9
$DIMSCALE
 40
1.0
  9
$DIMASZ
 40
2.5
  9
$DIMEXO
 40
0.625
  9
$DIMDLI
 40
3.75
  9
$DIMRND
 40
0.0
  9
$DIMDLE
 40
0.0
  9
$DIMEXE
 40
1.25
  9
$DIMTP
 40
0.0
  9
$DIMTM
 40
0.0
  9
$DIMTXT
 40
2.5
  9
$DIMCEN
 40
2.5
  9
$DIMTSZ
 40
0.0
  9
$DIMTOL
 70
0
  9
$DIMLIM
 70
0
  9
$DIMTIH
 70
0
  9
$DIMTOH
 70
0
  9
$DIMSE1
 70
0
  9
$DIMSE2
 70
0
  9
$DIMTAD
 70
1
  9
$DIMZIN
 70
8
  9
$DIMBLK
  1

  9
$DIMASO
 70
1
  9
$DIMSHO
 70
1
  9
$DIMPOST
  1

  9
$DIMAPOST
  1

  9
$DIMALT
 70
0
  9
$DIMALTD
 70
3
  9
$DIMALTF
 40
0.03937007874
  9
$DIMLFAC
 40
1.0
  9
$DIMTOFL
 70
1
  9
$DIMTVP
 40
0.0
  9
$DIMTIX
 70
0
  9
$DIMSOXD
 70
0
  9
$DIMSAH
 70
0
  9
$DIMBLK1
  1

  9
$DIMBLK2
  1

  9
$DIMSTYLE
  2
ISO-25
  9
$DIMCLRD
 70
0
  9
$DIMCLRE
 70
0
  9
$DIMCLRT
 70
0
  9
$DIMTFAC
 40
1.0
  9
$DIMGAP
 40
0.625
  9
$DIMJUST
 70
0
  9
$DIMSD1
 70
0
  9
$DIMSD2
 70
0
  9
$DIMTOLJ
 70
0
  9
$DIMTZIN
 70
8
  9
$DIMALTZ
 70
0
  9
$DIMALTTZ
 70
0
  9
$DIMUPT
 70
0
  9
$DIMDEC
 70
2
  9
$DIMTDEC
 70
2
  9
$DIMALTU
 70
2
  9
$DIMALTTD
 70
3
  9
$DIMTXSTY
  7
Standard
  9
$DIMAUNIT
 70
0
  9
$DIMADEC
 70
0
  9
$DIMALTRND
 40
0.0
  9
$DIMAZIN
 70
0
  9
$DIMDSEP
 70
44
  9
$DIMATFIT
 70
3
  9
$DIMFRAC
 70
0
  9
$DIMLDRBLK
  1

  9
$DIMLUNIT
 70
2
  9
$DIMLWD
 70
-2
  9
$DIMLWE
 70
-2
  9
$DIMTMOVE
 70
0
  9
$DIMFXL
 40
1.0
  9
$DIMFXLON
 70
0
  9
$DIMJOGANG
 40
0.785398163397
  9
$DIMTFILL
 70
0
  9
$DIMTFILLCLR
 70
0
  9
$DIMARCSYM
 70
0
  9
$DIMLTYPE
  6

  9
$DIMLTEX1
  6

  9
$DIMLTEX2
  6

  9
$DIMTXTDIRECTION
 70
0
  9
$LUNITS
 70
2
  9
$LUPREC
 70
4
  9
$SKETCHINC
 40
1.0
  9
$FILLETRAD
 40
10.0
  9
$AUNITS
 70
0
  9
$AUPREC
 70
2
  9
$MENU
  1
.
  9
$ELEVATION
 40
0.0
  9
$PELEVATION
 40
0.0
  9
$THICKNESS
 40
0.0
  9
$LIMCHECK
 70
0
  9
$CHAMFERA
 40
0.0
  9
$CHAMFERB
 40
0.0
  9
$CHAMFERC
 40
0.0
  9
$CHAMFERD
 40
0.0
  9
$SKPOLY
 70
0
  9
$TDCREATE
 40
2461294.7990972223
  9
$TDUCREATE
 40
2458532.153996898
  9
$TDUPDATE
 40
2461294.7990972223
  9
$TDUUPDATE
 40
2458532.1544311
  9
$TDINDWG
 40
0.0
  9
$TDUSRTIMER
 40
0.0
  9
$USRTIMER
 70
1
  9
$ANGBASE
 50
0.0
  9
$ANGDIR
 70
0
  9
$PDMODE
 70
0
  9
$PDSIZE
 40
0.0
  9
$PLINEWID
 40
0.0
  9
$SPLFRAME
 70
0
  9
$SPLINETYPE
 70
6
  9
$SPLINESEGS
 70
8
  9
$HANDSEED
  5
172
  9
$SURFTAB1
 70
6
  9
$SURFTAB2
 70
6
  9
$SURFTYPE
 70
6
  9
$SURFU
 70
6
  9
$SURFV
 70
6
  9
$UCSBASE
  2

  9
$UCSNAME
  2

  9
$UCSORG
 10
0.0
 20
0.0
 30
0.0
  9
$UCSXDIR
 10
1.0
 20
0.0
 30
0.0
  9
$UCSYDIR
 10
0.0
 20
1.0
 30
0.0
  9
$UCSORTHOREF
  2

  9
$UCSORTHOVIEW
 70
0
  9
$UCSORGTOP
 10
0.0
 20
0.0
 30
0.0
  9
$UCSORGBOTTOM
 10
0.0
 20
0.0
 30
0.0
  9
$UCSORGLEFT
 10
0.0
 20
0.0
 30
0.0
  9
$UCSORGRIGHT
 10
0.0
 20
0.0
 30
0.0
  9
$UCSORGFRONT
 10
0.0
 20
0.0
 30
0.0
  9
$UCSORGBACK
 10
0.0
 20
0.0
 30
0.0
  9
$PUCSBASE
  2

  9
$PUCSNAME
  2

  9
$PUCSORG
 10
0.0
 20
0.0
 30
0.0
  9
$PUCSXDIR
 10
1.0
 20
0.0
 30
0.0
  9
$PUCSYDIR
 10
0.0
 20
1.0
 30
0.0
  9
$PUCSORTHOREF
  2

  9
$PUCSORTHOVIEW
 70
0
  9
$PUCSORGTOP
 10
0.0
 20
0.0
 30
0.0
  9
$PUCSORGBOTTOM
 10
0.0
 20
0.0
 30
0.0
  9
$PUCSORGLEFT
 10
0.0
 20
0.0
 30
0.0
  9
$PUCSORGRIGHT
 10
0.0
 20
0.0
 30
0.0
  9
$PUCSORGFRONT
 10
0.0
 20
0.0
 30
0.0
  9
$PUCSORGBACK
 10
0.0
 20
0.0
 30
0.0
  9
$USERI1
 70
0
  9
$USERI2
 70
0
  9
$USERI3
 70
0
  9
$USERI4
 70
0
  9
$USERI5
 70
0
  9
$USERR1
 40
0.0
  9
$USERR2
 40
0.0
  9
$USERR3
 40
0.0
  9
$USERR4
 40
0.0
  9
$USERR5
 40
0.0
  9
$WORLDVIEW
 70
1
  9
$SHADEDGE
 70
3
  9
$SHADEDIF
 70
70
  9
$TILEMODE
 70
1
  9
$MAXACTVP
 70
64
  9
$PINSBASE
 10
0.0
 20
0.0
 30
0.0
  9
$PLIMCHECK
 70
0
  9
$PEXTMIN
 10
1e+20
 20
1e+20
 30
1e+20
  9
$PEXTMAX
 10
-1e+20
 20
-1e+20
 30
-1e+20
  9
$PLIMMIN
 10
0.0
 20
0.0
  9
$PLIMMAX
 10
420.0
 20
297.0
  9
$UNITMODE
 70
0
  9
$VISRETAIN
 70
1
  9
$PLINEGEN
 70
0
  9
$PSLTSCALE
 70
1
  9
$TREEDEPTH
 70
3020
  9
$CMLSTYLE
  2
Standard
  9
$CMLJUST
 70
0
  9
$CMLSCALE
 40
20.0
  9
$PROXYGRAPHICS
 70
1
  9
$MEASUREMENT
 70
1
  9
$CELWEIGHT
370
-1
  9
$ENDCAPS
280
0
  9
$JOINSTYLE
280
0
  9
$LWDISPLAY
290
0
  9
$INSUNITS
 70
4
  9
$HYPERLINKBASE
  1

  9
$STYLESHEET
  1

  9
$XEDIT
290
1
  9
$CEPSNTYPE
380
0
  9
$PSTYLEMODE
290
1
  9
$FINGERPRINTGUID
  2
{67C65B31-329E-4AAC-8481-C82C8E980D96}
  9
$VERSIONGUID
  2
{8B7B9BFA-1D30-438E-8EB9-1DFD80E41AB0}
  9
$EXTNAMES
290
1
  9
$PSVPSCALE
 40
0.0
  9
$OLESTARTUP
290
0
  9
$SORTENTS
280
127
  9
$INDEXCTL
280
0
  9
$HIDETEXT
280
1
  9
$XCLIPFRAME
280
1
  9
$HALOGAP
280
0
  9
$OBSCOLOR
 70
257
  9
$OBSLTYPE
280
0
  9
$INTERSECTIONDISPLAY
280
0
  9
$INTERSECTIONCOLOR
 70
257
  9
$DIMASSOC
280
2
  9
$PROJECTNAME
  1

  9
$CAMERADISPLAY
290
0
  9
$LENSLENGTH
 40
50.0
  9
$CAMERAHEIGHT
 40
0.0
  9
$STEPSPERSEC
 40
24.0
  9
$STEPSIZE
 40
100.0
  9
$3DDWFPREC
 40
2.0
  9
$PSOLWIDTH
 40
0.005
  9
$PSOLHEIGHT
 40
0.08
  9
$LOFTANG1
 40
1.570796326795
  9
$LOFTANG2
 40
1.570796326795
  9
$LOFTMAG1
 40
0.0
  9
$LOFTMAG2
 40
0.0
  9
$LOFTPARAM
 70
7
  9
$LOFTNORMALS
280
1
  9
$LATITUDE
 40
37.795
  9
$LONGITUDE
 40
-122.394
  9
$NORTHDIRECTION
 40
0.0
  9
$TIMEZONE
 70
-8000
  9
$LIGHTGLYPHDISPLAY
280
1
  9
$TILEMODELIGHTSYNCH
280
1
  9
$CMATERIAL
347
20
  9
$SOLIDHIST
280
0
  9
$SHOWHIST
280
1
  9
$DWFFRAME
280
2
  9
$DGNFRAME
280
2
  9
$REALWORLDSCALE
290
1
  9
$INTERFERECOLOR
 62
256
  9
$CSHADOW
280
0
  9
$SHADOWPLANELOCATION
 40
0.0
  0
ENDSEC
  0
SECTION
  2
CLASSES
  0
CLASS
  1
ACDBDICTIONARYWDFLT
  2
AcDbDictionaryWithDefault
  3
ObjectDBX Classes
 90
0
 91
0
280
0
281
0
  0
CLASS
  1
SUN
  2
AcDbSun
  3
SCENEOE
 90
1153
 91
0
280
0
281
0
  0
CLASS
  1
VISUALSTYLE
  2
AcDbVisualStyle
  3
ObjectDBX Classes
 90
4095
 91
0
280
0
281
0
  0
CLASS
  1
MATERIAL
  2
AcDbMaterial
  3
ObjectDBX Classes
 90
1153
 91
0
280
0
281
0
  0
CLASS
  1
SCALE
  2
AcDbScale
  3
ObjectDBX Classes
 90
1153
 91
0
280
0
281
0
  0
CLASS
  1
TABLESTYLE
  2
AcDbTableStyle
  3
ObjectDBX Classes
 90
4095
 91
0
280
0
281
0
  0
CLASS
  1
MLEADERSTYLE
  2
AcDbMLeaderStyle
  3
ACDB_MLEADERSTYLE_CLASS
 90
4095
 91
0
280
0
281
0
  0
CLASS
  1
DICTIONARYVAR
  2
AcDbDictionaryVar
  3
ObjectDBX Classes
 90
0
 91
0
280
0
281
0
  0
CLASS
  1
CELLSTYLEMAP
  2
AcDbCellStyleMap
  3
ObjectDBX Classes
 90
1152
 91
0
280
0
281
0
  0
CLASS
  1
MENTALRAYRENDERSETTINGS
  2
AcDbMentalRayRenderSettings
  3
SCENEOE
 90
1024
 91
0
280
0
281
0
  0
CLASS
  1
ACDBDETAILVIEWSTYLE
  2
AcDbDetailViewStyle
  3
ObjectDBX Classes
 90
1025
 91
0
280
0
281
0
  0
CLASS
  1
ACDBSECTIONVIEWSTYLE
  2
AcDbSectionViewStyle
  3
ObjectDBX Classes
 90
1025
 91
0
280
0
281
0
  0
CLASS
  1
RASTERVARIABLES
  2
AcDbRasterVariables
  3
ISM
 90
0
 91
0
280
0
281
0
  0
CLASS
  1
ACDBPLACEHOLDER
  2
AcDbPlaceHolder
  3
ObjectDBX Classes
 90
0
 91
0
280
0
281
0
  0
CLASS
  1
LAYOUT
  2
AcDbLayout
  3
ObjectDBX Classes
 90
0
 91
0
280
0
281
0
  0
ENDSEC
  0
SECTION
  2
TABLES
  0
TABLE
  2
VPORT
  5
8
330
0
100
AcDbSymbolTable
 70
1
  0
VPORT
  5
16E
330
8
100
AcDbSymbolTableRecord
100
AcDbViewportTableRecord
  2
*Active
 70
0
 10
0.0
 20
0.0
 11
1.0
 21
1.0
 12
210.0
 22
148.5
 13
0.0
 23
0.0
 14
0.5
 24
0.5
 15
0.5
 25
0.5
 16
0.0
 26
0.0
 36
1.0
 17
0.0
 27
0.0
 37
0.0
 40
297.0
 41
1.34
 42
50.0
 43
0.0
 44
0.0
 50
0.0
 51
0.0
 71
0
 72
1000
 73
1
 74
3
 75
0
 76
0
 77
0
 78
0
281
0
 65
1
110
0.0
120
0.0
130
0.0
111
1.0
121
0.0
131
0.0
112
0.0
122
1.0
132
0.0
 79
0
146
0.0
  0
ENDTAB
  0
TABLE
  2
LTYPE
  5
2
330
0
100
AcDbSymbolTable
 70
4
  0
LTYPE
  5
24
330
2
100
AcDbSymbolTableRecord
100
AcDbLinetypeTableRecord
  2
ByBlock
 70
0
  3

 72
65
 73
0
 40
0.0
  0
LTYPE
  5
25
330
2
100
AcDbSymbolTableRecord
100
AcDbLinetypeTableRecord
  2
ByLayer
 70
0
  3

 72
65
 73
0
 40
0.0
  0
LTYPE
  5
26
330
2
100
AcDbSymbolTableRecord
100
AcDbLinetypeTableRecord
  2
Continuous
 70
0
  3

 72
65
 73
0
 40
0.0
  0
LTYPE
  5
30
330
2
100
AcDbSymbolTableRecord
100
AcDbLinetypeTableRecord
  2
DRAW_DASH
 70
0
  3
Dashed routing / clearance
 72
65
 73
2
 40
2.6
 49
1.6
 74
0
 49
-1.0
 74
0
  0
ENDTAB
  0
TABLE
  2
LAYER
  5
1
330
0
100
AcDbSymbolTable
 70
15
  0
LAYER
  5
27
330
1
100
AcDbSymbolTableRecord
100
AcDbLayerTableRecord
  2
0
 70
0
 62
7
  6
Continuous
370
-3
390
13
347
21
  0
LAYER
  5
28
330
1
100
AcDbSymbolTableRecord
100
AcDbLayerTableRecord
  2
Defpoints
 70
0
 62
7
  6
Continuous
290
0
370
-3
390
13
347
21
  0
LAYER
  5
31
330
1
100
AcDbSymbolTableRecord
100
AcDbLayerTableRecord
  2
FRAME
 70
0
 62
7
420
2112330
  6
Continuous
370
25
390
13
347
21
  0
LAYER
  5
32
330
1
100
AcDbSymbolTableRecord
100
AcDbLayerTableRecord
  2
EQUIP
 70
0
 62
7
420
2112330
  6
Continuous
370
25
390
13
347
21
  0
LAYER
  5
33
330
1
100
AcDbSymbolTableRecord
100
AcDbLayerTableRecord
  2
PV
 70
0
 62
7
420
2456482
  6
Continuous
370
25
390
13
347
21
  0
LAYER
  5
34
330
1
100
AcDbSymbolTableRecord
100
AcDbLayerTableRecord
  2
POS
 70
0
 62
7
420
12075830
  6
Continuous
370
25
390
13
347
21
  0
LAYER
  5
35
330
1
100
AcDbSymbolTableRecord
100
AcDbLayerTableRecord
  2
NEG
 70
0
 62
7
420
2580640
  6
Continuous
370
25
390
13
347
21
  0
LAYER
  5
36
330
1
100
AcDbSymbolTableRecord
100
AcDbLayerTableRecord
  2
AC
 70
0
 62
7
420
8412707
  6
Continuous
370
25
390
13
347
21
  0
LAYER
  5
37
330
1
100
AcDbSymbolTableRecord
100
AcDbLayerTableRecord
  2
PE
 70
0
 62
7
420
3767121
  6
Continuous
370
25
390
13
347
21
  0
LAYER
  5
38
330
1
100
AcDbSymbolTableRecord
100
AcDbLayerTableRecord
  2
COMM
 70
0
 62
7
420
8938406
  6
Continuous
370
25
390
13
347
21
  0
LAYER
  5
39
330
1
100
AcDbSymbolTableRecord
100
AcDbLayerTableRecord
  2
DIM
 70
0
 62
7
420
6713978
  6
Continuous
370
25
390
13
347
21
  0
LAYER
  5
3A
330
1
100
AcDbSymbolTableRecord
100
AcDbLayerTableRecord
  2
NOTE
 70
0
 62
7
420
3426386
  6
Continuous
370
25
390
13
347
21
  0
LAYER
  5
3B
330
1
100
AcDbSymbolTableRecord
100
AcDbLayerTableRecord
  2
HOLD
 70
0
 62
7
420
11619633
  6
Continuous
370
25
390
13
347
21
  0
LAYER
  5
3C
330
1
100
AcDbSymbolTableRecord
100
AcDbLayerTableRecord
  2
CLEAR
 70
0
 62
7
420
8565410
  6
Continuous
370
25
390
13
347
21
  0
LAYER
  5
3D
330
1
100
AcDbSymbolTableRecord
100
AcDbLayerTableRecord
  2
STRUCT
 70
0
 62
7
420
6647417
  6
Continuous
370
25
390
13
347
21
  0
ENDTAB
  0
TABLE
  2
STYLE
  5
5
330
0
100
AcDbSymbolTable
 70
2
  0
STYLE
  5
29
330
5
100
AcDbSymbolTableRecord
100
AcDbTextStyleTableRecord
  2
Standard
 70
0
 40
0.0
 41
1.0
 50
0.0
 71
0
 42
2.5
  3
txt
  4

  0
STYLE
  5
2F
330
5
100
AcDbSymbolTableRecord
100
AcDbTextStyleTableRecord
  2
CN
 70
0
 40
0.0
 41
1.0
 50
0.0
 71
0
 42
2.5
  3
Arial Unicode.ttf
  4

  0
ENDTAB
  0
TABLE
  2
VIEW
  5
7
330
0
100
AcDbSymbolTable
 70
0
  0
ENDTAB
  0
TABLE
  2
UCS
  5
6
330
0
100
AcDbSymbolTable
 70
0
  0
ENDTAB
  0
TABLE
  2
APPID
  5
3
330
0
100
AcDbSymbolTable
 70
3
  0
APPID
  5
2A
330
3
100
AcDbSymbolTableRecord
100
AcDbRegAppTableRecord
  2
ACAD
 70
0
  0
APPID
  5
16F
330
3
100
AcDbSymbolTableRecord
100
AcDbRegAppTableRecord
  2
HATCHBACKGROUNDCOLOR
 70
0
  0
APPID
  5
170
330
3
100
AcDbSymbolTableRecord
100
AcDbRegAppTableRecord
  2
EZDXF
 70
0
  0
ENDTAB
  0
TABLE
  2
DIMSTYLE
  5
4
330
0
100
AcDbSymbolTable
 70
1
100
AcDbDimStyleTable
  0
DIMSTYLE
105
2B
330
4
100
AcDbSymbolTableRecord
100
AcDbDimStyleTableRecord
  2
Standard
 70
0
 40
1.0
 41
2.5
 42
0.625
 43
3.75
 44
1.25
 45
0.0
 46
0.0
 47
0.0
 48
0.0
 49
2.5
140
2.5
141
2.5
142
0.0
143
0.03937007874
144
1.0
145
0.0
146
1.0
147
0.625
148
0.0
 69
0
 70
0
 71
0
 72
0
 73
0
 74
0
 75
0
 76
0
 77
1
 78
8
 79
3
170
0
171
3
172
1
173
0
174
0
175
0
176
0
177
0
178
0
179
2
271
2
272
2
273
2
274
3
275
0
276
0
277
2
278
44
279
0
280
0
281
0
282
0
283
0
284
8
285
0
286
0
288
0
289
3
290
0
371
-2
372
-2
  0
ENDTAB
  0
TABLE
  2
BLOCK_RECORD
  5
9
330
0
100
AcDbSymbolTable
 70
2
  0
BLOCK_RECORD
  5
17
330
9
100
AcDbSymbolTableRecord
100
AcDbBlockTableRecord
  2
*Model_Space
340
1A
 70
0
280
1
281
0
  0
BLOCK_RECORD
  5
1B
330
9
100
AcDbSymbolTableRecord
100
AcDbBlockTableRecord
  2
*Paper_Space
340
1E
 70
0
280
1
281
0
  0
ENDTAB
  0
ENDSEC
  0
SECTION
  2
BLOCKS
  0
BLOCK
  5
18
330
17
100
AcDbEntity
  8
0
100
AcDbBlockBegin
  2
*Model_Space
 70
0
 10
0.0
 20
0.0
 30
0.0
  3
*Model_Space
  1

  0
ENDBLK
  5
19
330
17
100
AcDbEntity
  8
0
100
AcDbBlockEnd
  0
BLOCK
  5
1C
330
1B
100
AcDbEntity
  8
0
100
AcDbBlockBegin
  2
*Paper_Space
 70
0
 10
0.0
 20
0.0
 30
0.0
  3
*Paper_Space
  1

  0
ENDBLK
  5
1D
330
1B
100
AcDbEntity
  8
0
100
AcDbBlockEnd
  0
ENDSEC
  0
SECTION
  2
ENTITIES
  0
LINE
  5
3E
330
17
100
AcDbEntity
  8
FRAME
  6
CONTINUOUS
370
25
100
AcDbLine
 10
10.0
 20
10.0
 30
0.0
 11
410.0
 21
10.0
 31
0.0
  0
LINE
  5
3F
330
17
100
AcDbEntity
  8
FRAME
  6
CONTINUOUS
370
25
100
AcDbLine
 10
410.0
 20
10.0
 30
0.0
 11
410.0
 21
287.0
 31
0.0
  0
LINE
  5
40
330
17
100
AcDbEntity
  8
FRAME
  6
CONTINUOUS
370
25
100
AcDbLine
 10
410.0
 20
287.0
 30
0.0
 11
10.0
 21
287.0
 31
0.0
  0
LINE
  5
41
330
17
100
AcDbEntity
  8
FRAME
  6
CONTINUOUS
370
25
100
AcDbLine
 10
10.0
 20
287.0
 30
0.0
 11
10.0
 21
10.0
 31
0.0
  0
LINE
  5
42
330
17
100
AcDbEntity
  8
FRAME
  6
CONTINUOUS
370
25
100
AcDbLine
 10
10.0
 20
39.0
 30
0.0
 11
410.0
 21
39.0
 31
0.0
  0
TEXT
  5
43
330
17
100
AcDbEntity
  8
FRAME
100
AcDbText
 10
16.0
 20
278.0
 30
0.0
 40
4.4
  1
哈尔滨 · 户用离网光伏发电系统
  7
CN
 11
16.0
 21
278.0
 31
0.0
100
AcDbText
  0
TEXT
  5
44
330
17
100
AcDbEntity
  8
HOLD
100
AcDbText
 10
403.0
 20
279.0
 30
0.0
 40
3.0
  1
T1-01 / R1 待审方案
  7
CN
 72
2
 11
403.0
 21
279.0
 31
0.0
100
AcDbText
  0
LINE
  5
45
330
17
100
AcDbEntity
  8
FRAME
  6
CONTINUOUS
370
25
100
AcDbLine
 10
15.0
 20
273.0
 30
0.0
 11
405.0
 21
273.0
 31
0.0
  0
TEXT
  5
46
330
17
100
AcDbEntity
  8
FRAME
100
AcDbText
 10
16.0
 20
30.0
 30
0.0
 40
4.0
  1
系统电气主接线图
  7
CN
 11
16.0
 21
30.0
 31
0.0
100
AcDbText
  0
TEXT
  5
47
330
17
100
AcDbEntity
  8
NOTE
100
AcDbText
 10
16.0
 20
22.0
 30
0.0
 40
3.0
  1
6.00 kWp / 25.60 kWh / 2 × 5 kW
  7
CN
 11
16.0
 21
22.0
 31
0.0
100
AcDbText
  0
TEXT
  5
48
330
17
100
AcDbEntity
  8
HOLD
100
AcDbText
 10
16.0
 20
15.0
 30
0.0
 40
2.5
  1
来源：GitHub 35341ff（2026-09-08）；R1 制图：2026-09-10。非施工定稿。
  7
CN
 11
16.0
 21
15.0
 31
0.0
100
AcDbText
  0
LINE
  5
49
330
17
100
AcDbEntity
  8
FRAME
  6
CONTINUOUS
370
25
100
AcDbLine
 10
290.0
 20
10.0
 30
0.0
 11
290.0
 21
39.0
 31
0.0
  0
TEXT
  5
4A
330
17
100
AcDbEntity
  8
NOTE
100
AcDbText
 10
296.0
 20
29.0
 30
0.0
 40
3.2
  1
T1-01  /  A3  /  R1
  7
CN
 11
296.0
 21
29.0
 31
0.0
100
AcDbText
  0
TEXT
  5
4B
330
17
100
AcDbEntity
  8
NOTE
100
AcDbText
 10
296.0
 20
21.0
 30
0.0
 40
2.8
  1
比例 示意；尺寸单位 mm
  7
CN
 11
296.0
 21
21.0
 31
0.0
100
AcDbText
  0
TEXT
  5
4C
330
17
100
AcDbEntity
  8
NOTE
100
AcDbText
 10
296.0
 20
14.0
 30
0.0
 40
2.5
  1
设计/审核/姓名：待确认、待填写
  7
CN
 11
296.0
 21
14.0
 31
0.0
100
AcDbText
  0
TEXT
  5
4D
330
17
100
AcDbEntity
  8
NOTE
100
AcDbText
 10
17.0
 20
266.0
 30
0.0
 40
2.65
  1
单线表达：直流线路代表 + / - 两根导体；交流代表 L / N；PE 独立。实心点连接，无点交叉不连接。
  7
CN
 11
17.0
 21
266.0
 31
0.0
100
AcDbText
  0
LINE
  5
4E
330
17
100
AcDbEntity
  8
PV
  6
CONTINUOUS
370
25
100
AcDbLine
 10
20.0
 20
224.0
 30
0.0
 11
90.0
 21
224.0
 31
0.0
  0
LINE
  5
4F
330
17
100
AcDbEntity
  8
PV
  6
CONTINUOUS
370
25
100
AcDbLine
 10
90.0
 20
224.0
 30
0.0
 11
90.0
 21
251.0
 31
0.0
  0
LINE
  5
50
330
17
100
AcDbEntity
  8
PV
  6
CONTINUOUS
370
25
100
AcDbLine
 10
90.0
 20
251.0
 30
0.0
 11
20.0
 21
251.0
 31
0.0
  0
LINE
  5
51
330
17
100
AcDbEntity
  8
PV
  6
CONTINUOUS
370
25
100
AcDbLine
 10
20.0
 20
251.0
 30
0.0
 11
20.0
 21
224.0
 31
0.0
  0
TEXT
  5
52
330
17
100
AcDbEntity
  8
PV
100
AcDbText
 10
23.0
 20
246.0
 30
0.0
 40
3.0
  1
PV-S1  5 串 × 1 路
  7
CN
 11
23.0
 21
246.0
 31
0.0
100
AcDbText
  0
TEXT
  5
53
330
17
100
AcDbEntity
  8
NOTE
100
AcDbText
 10
23.0
 20
241.0
 30
0.0
 40
2.5
  1
LR7-72HGD-600M × 5
  7
CN
 11
23.0
 21
241.0
 31
0.0
100
AcDbText
  0
TEXT
  5
54
330
17
100
AcDbEntity
  8
NOTE
100
AcDbText
 10
23.0
 20
236.4
 30
0.0
 40
2.5
  1
3.00 kWp / Voc,cold 299.0 V
  7
CN
 11
23.0
 21
236.4
 31
0.0
100
AcDbText
  0
LINE
  5
55
330
17
100
AcDbEntity
  8
POS
  6
CONTINUOUS
370
25
100
AcDbLine
 10
90.0
 20
239.0
 30
0.0
 11
99.0
 21
239.0
 31
0.0
  0
LINE
  5
56
330
17
100
AcDbEntity
  8
POS
  6
CONTINUOUS
370
25
100
AcDbLine
 10
99.0
 20
236.0
 30
0.0
 11
107.0
 21
236.0
 31
0.0
  0
LINE
  5
57
330
17
100
AcDbEntity
  8
POS
  6
CONTINUOUS
370
25
100
AcDbLine
 10
107.0
 20
236.0
 30
0.0
 11
107.0
 21
242.0
 31
0.0
  0
LINE
  5
58
330
17
100
AcDbEntity
  8
POS
  6
CONTINUOUS
370
25
100
AcDbLine
 10
107.0
 20
242.0
 30
0.0
 11
99.0
 21
242.0
 31
0.0
  0
LINE
  5
59
330
17
100
AcDbEntity
  8
POS
  6
CONTINUOUS
370
25
100
AcDbLine
 10
99.0
 20
242.0
 30
0.0
 11
99.0
 21
236.0
 31
0.0
  0
LINE
  5
5A
330
17
100
AcDbEntity
  8
POS
  6
CONTINUOUS
370
25
100
AcDbLine
 10
99.0
 20
239.0
 30
0.0
 11
107.0
 21
239.0
 31
0.0
  0
LINE
  5
5B
330
17
100
AcDbEntity
  8
POS
  6
CONTINUOUS
370
25
100
AcDbLine
 10
107.0
 20
239.0
 30
0.0
 11
114.0
 21
239.0
 31
0.0
  0
LINE
  5
5C
330
17
100
AcDbEntity
  8
POS
  6
CONTINUOUS
370
25
100
AcDbLine
 10
114.0
 20
239.0
 30
0.0
 11
119.0
 21
242.0
 31
0.0
  0
LINE
  5
5D
330
17
100
AcDbEntity
  8
POS
  6
CONTINUOUS
370
25
100
AcDbLine
 10
121.0
 20
239.0
 30
0.0
 11
150.0
 21
239.0
 31
0.0
  0
TEXT
  5
5E
330
17
100
AcDbEntity
  8
NOTE
100
AcDbText
 10
98.0
 20
246.0
 30
0.0
 40
2.35
  1
FP1 25 A gPV
  7
CN
 11
98.0
 21
246.0
 31
0.0
100
AcDbText
  0
TEXT
  5
5F
330
17
100
AcDbEntity
  8
NOTE
100
AcDbText
 10
113.0
 20
229.0
 30
0.0
 40
2.25
  1
QS1 2P ≥600 VDC
  7
CN
 11
113.0
 21
229.0
 31
0.0
100
AcDbText
  0
TEXT
  5
60
330
17
100
AcDbEntity
  8
NOTE
100
AcDbText
 10
21.0
 20
218.0
 30
0.0
 40
2.35
  1
C2-1：PV1-F ±各4 mm² / 15 m（预算）
  7
CN
 11
21.0
 21
218.0
 31
0.0
100
AcDbText
  0
LINE
  5
61
330
17
100
AcDbEntity
  8
PE
  6
CONTINUOUS
370
25
100
AcDbLine
 10
137.0
 20
239.0
 30
0.0
 11
137.0
 21
230.0
 31
0.0
  0
CIRCLE
  5
62
330
17
100
AcDbEntity
  8
POS
100
AcDbCircle
 10
137.0
 20
239.0
 30
0.0
 40
0.65
  0
LINE
  5
63
330
17
100
AcDbEntity
  8
PE
  6
CONTINUOUS
370
25
100
AcDbLine
 10
132.0
 20
223.0
 30
0.0
 11
142.0
 21
223.0
 31
0.0
  0
LINE
  5
64
330
17
100
AcDbEntity
  8
PE
  6
CONTINUOUS
370
25
100
AcDbLine
 10
142.0
 20
223.0
 30
0.0
 11
142.0
 21
230.0
 31
0.0
  0
LINE
  5
65
330
17
100
AcDbEntity
  8
PE
  6
CONTINUOUS
370
25
100
AcDbLine
 10
142.0
 20
230.0
 30
0.0
 11
132.0
 21
230.0
 31
0.0
  0
LINE
  5
66
330
17
100
AcDbEntity
  8
PE
  6
CONTINUOUS
370
25
100
AcDbLine
 10
132.0
 20
230.0
 30
0.0
 11
132.0
 21
223.0
 31
0.0
  0
TEXT
  5
67
330
17
100
AcDbEntity
  8
PE
100
AcDbText
 10
137.0
 20
226.0
 30
0.0
 40
2.0
  1
SPD
  7
CN
 72
1
 11
137.0
 21
226.0
 31
0.0
100
AcDbText
  0
LINE
  5
68
330
17
100
AcDbEntity
  8
PE
  6
CONTINUOUS
370
25
100
AcDbLine
 10
137.0
 20
223.0
 30
0.0
 11
137.0
 21
219.0
 31
0.0
  0
LINE
  5
69
330
17
100
AcDbEntity
  8
PE
  6
CONTINUOUS
370
25
100
AcDbLine
 10
137.0
 20
220.0
 30
0.0
 11
137.0
 21
217.0
 31
0.0
  0
LINE
  5
6A
330
17
100
AcDbEntity
  8
PE
  6
CONTINUOUS
370
25
100
AcDbLine
 10
134.0
 20
217.0
 30
0.0
 11
140.0
 21
217.0
 31
0.0
  0
LINE
  5
6B
330
17
100
AcDbEntity
  8
PE
  6
CONTINUOUS
370
25
100
AcDbLine
 10
135.0
 20
215.8
 30
0.0
 11
139.0
 21
215.8
 31
0.0
  0
LINE
  5
6C
330
17
100
AcDbEntity
  8
PE
  6
CONTINUOUS
370
25
100
AcDbLine
 10
136.0
 20
214.6
 30
0.0
 11
138.0
 21
214.6
 31
0.0
  0
LINE
  5
6D
330
17
100
AcDbEntity
  8
EQUIP
  6
CONTINUOUS
370
25
100
AcDbLine
 10
150.0
 20
215.0
 30
0.0
 11
218.0
 21
215.0
 31
0.0
  0
LINE
  5
6E
330
17
100
AcDbEntity
  8
EQUIP
  6
CONTINUOUS
370
25
100
AcDbLine
 10
218.0
 20
215.0
 30
0.0
 11
218.0
 21
257.0
 31
0.0
  0
LINE
  5
6F
330
17
100
AcDbEntity
  8
EQUIP
  6
CONTINUOUS
370
25
100
AcDbLine
 10
218.0
 20
257.0
 30
0.0
 11
150.0
 21
257.0
 31
0.0
  0
LINE
  5
70
330
17
100
AcDbEntity
  8
EQUIP
  6
CONTINUOUS
370
25
100
AcDbLine
 10
150.0
 20
257.0
 30
0.0
 11
150.0
 21
215.0
 31
0.0
  0
TEXT
  5
71
330
17
100
AcDbEntity
  8
EQUIP
100
AcDbText
 10
153.0
 20
252.0
 30
0.0
 40
3.0
  1
INV1  Growatt
  7
CN
 11
153.0
 21
252.0
 31
0.0
100
AcDbText
  0
TEXT
  5
72
330
17
100
AcDbEntity
  8
NOTE
100
AcDbText
 10
153.0
 20
247.0
 30
0.0
 40
2.5
  1
SPF 5000 ES / 5 kW
  7
CN
 11
153.0
 21
247.0
 31
0.0
100
AcDbText
  0
TEXT
  5
73
330
17
100
AcDbEntity
  8
NOTE
100
AcDbText
 10
153.0
 20
242.4
 30
0.0
 40
2.5
  1
内置 MPPT；PV / BAT / AC 分端口
  7
CN
 11
153.0
 21
242.4
 31
0.0
100
AcDbText
  0
TEXT
  5
74
330
17
100
AcDbEntity
  8
NOTE
100
AcDbText
 10
153.0
 20
237.8
 30
0.0
 40
2.5
  1
PV 120-430 V；最大 450 V
  7
CN
 11
153.0
 21
237.8
 31
0.0
100
AcDbText
  0
TEXT
  5
75
330
17
100
AcDbEntity
  8
NOTE
100
AcDbText
 10
153.0
 20
233.2
 30
0.0
 40
2.5
  1
充电估算 52.9 A/台
  7
CN
 11
153.0
 21
233.2
 31
0.0
100
AcDbText
  0
LINE
  5
76
330
17
100
AcDbEntity
  8
AC
  6
CONTINUOUS
370
25
100
AcDbLine
 10
218.0
 20
239.0
 30
0.0
 11
228.0
 21
239.0
 31
0.0
  0
LINE
  5
77
330
17
100
AcDbEntity
  8
AC
  6
CONTINUOUS
370
25
100
AcDbLine
 10
228.0
 20
236.0
 30
0.0
 11
239.0
 21
236.0
 31
0.0
  0
LINE
  5
78
330
17
100
AcDbEntity
  8
AC
  6
CONTINUOUS
370
25
100
AcDbLine
 10
239.0
 20
236.0
 30
0.0
 11
239.0
 21
242.0
 31
0.0
  0
LINE
  5
79
330
17
100
AcDbEntity
  8
AC
  6
CONTINUOUS
370
25
100
AcDbLine
 10
239.0
 20
242.0
 30
0.0
 11
228.0
 21
242.0
 31
0.0
  0
LINE
  5
7A
330
17
100
AcDbEntity
  8
AC
  6
CONTINUOUS
370
25
100
AcDbLine
 10
228.0
 20
242.0
 30
0.0
 11
228.0
 21
236.0
 31
0.0
  0
TEXT
  5
7B
330
17
100
AcDbEntity
  8
AC
100
AcDbText
 10
233.5
 20
245.0
 30
0.0
 40
2.5
  1
QA1
  7
CN
 72
1
 11
233.5
 21
245.0
 31
0.0
100
AcDbText
  0
TEXT
  5
7C
330
17
100
AcDbEntity
  8
AC
100
AcDbText
 10
233.5
 20
229.0
 30
0.0
 40
2.3
  1
2P 32 A
  7
CN
 72
1
 11
233.5
 21
229.0
 31
0.0
100
AcDbText
  0
LINE
  5
7D
330
17
100
AcDbEntity
  8
AC
  6
CONTINUOUS
370
25
100
AcDbLine
 10
239.0
 20
239.0
 30
0.0
 11
258.0
 21
239.0
 31
0.0
  0
CIRCLE
  5
7E
330
17
100
AcDbEntity
  8
AC
100
AcDbCircle
 10
258.0
 20
239.0
 30
0.0
 40
0.65
  0
TEXT
  5
7F
330
17
100
AcDbEntity
  8
NOTE
100
AcDbText
 10
220.0
 20
220.0
 30
0.0
 40
2.2
  1
C5：3G6 / 5 m
  7
CN
 11
220.0
 21
220.0
 31
0.0
100
AcDbText
  0
LINE
  5
80
330
17
100
AcDbEntity
  8
POS
  6
CONTINUOUS
370
25
100
AcDbLine
 10
160.0
 20
215.0
 30
0.0
 11
160.0
 21
207.0
 31
0.0
  0
LINE
  5
81
330
17
100
AcDbEntity
  8
POS
  6
CONTINUOUS
370
25
100
AcDbLine
 10
160.0
 20
207.0
 30
0.0
 11
147.0
 21
207.0
 31
0.0
  0
LINE
  5
82
330
17
100
AcDbEntity
  8
POS
  6
CONTINUOUS
370
25
100
AcDbLine
 10
147.0
 20
207.0
 30
0.0
 11
147.0
 21
139.0
 31
0.0
  0
LINE
  5
83
330
17
100
AcDbEntity
  8
POS
  6
CONTINUOUS
370
25
100
AcDbLine
 10
147.0
 20
139.0
 30
0.0
 11
160.0
 21
139.0
 31
0.0
  0
LINE
  5
84
330
17
100
AcDbEntity
  8
POS
  6
CONTINUOUS
370
25
100
AcDbLine
 10
155.0
 20
131.0
 30
0.0
 11
165.0
 21
131.0
 31
0.0
  0
LINE
  5
85
330
17
100
AcDbEntity
  8
POS
  6
CONTINUOUS
370
25
100
AcDbLine
 10
165.0
 20
131.0
 30
0.0
 11
165.0
 21
139.0
 31
0.0
  0
LINE
  5
86
330
17
100
AcDbEntity
  8
POS
  6
CONTINUOUS
370
25
100
AcDbLine
 10
165.0
 20
139.0
 30
0.0
 11
155.0
 21
139.0
 31
0.0
  0
LINE
  5
87
330
17
100
AcDbEntity
  8
POS
  6
CONTINUOUS
370
25
100
AcDbLine
 10
155.0
 20
139.0
 30
0.0
 11
155.0
 21
131.0
 31
0.0
  0
LINE
  5
88
330
17
100
AcDbEntity
  8
POS
  6
CONTINUOUS
370
25
100
AcDbLine
 10
160.0
 20
131.0
 30
0.0
 11
160.0
 21
123.0
 31
0.0
  0
CIRCLE
  5
89
330
17
100
AcDbEntity
  8
POS
100
AcDbCircle
 10
160.0
 20
123.0
 30
0.0
 40
0.65
  0
TEXT
  5
8A
330
17
100
AcDbEntity
  8
NOTE
100
AcDbText
 10
167.0
 20
134.0
 30
0.0
 40
2.25
  1
QB1 160 A DC
  7
CN
 11
167.0
 21
134.0
 31
0.0
100
AcDbText
  0
TEXT
  5
8B
330
17
100
AcDbEntity
  8
POS
100
AcDbText
 10
175.0
 20
211.0
 30
0.0
 40
2.1
  1
BAT ±
  7
CN
 11
175.0
 21
211.0
 31
0.0
100
AcDbText
  0
LINE
  5
8C
330
17
100
AcDbEntity
  8
PV
  6
CONTINUOUS
370
25
100
AcDbLine
 10
20.0
 20
166.0
 30
0.0
 11
90.0
 21
166.0
 31
0.0
  0
LINE
  5
8D
330
17
100
AcDbEntity
  8
PV
  6
CONTINUOUS
370
25
100
AcDbLine
 10
90.0
 20
166.0
 30
0.0
 11
90.0
 21
193.0
 31
0.0
  0
LINE
  5
8E
330
17
100
AcDbEntity
  8
PV
  6
CONTINUOUS
370
25
100
AcDbLine
 10
90.0
 20
193.0
 30
0.0
 11
20.0
 21
193.0
 31
0.0
  0
LINE
  5
8F
330
17
100
AcDbEntity
  8
PV
  6
CONTINUOUS
370
25
100
AcDbLine
 10
20.0
 20
193.0
 30
0.0
 11
20.0
 21
166.0
 31
0.0
  0
TEXT
  5
90
330
17
100
AcDbEntity
  8
PV
100
AcDbText
 10
23.0
 20
188.0
 30
0.0
 40
3.0
  1
PV-S2  5 串 × 1 路
  7
CN
 11
23.0
 21
188.0
 31
0.0
100
AcDbText
  0
TEXT
  5
91
330
17
100
AcDbEntity
  8
NOTE
100
AcDbText
 10
23.0
 20
183.0
 30
0.0
 40
2.5
  1
LR7-72HGD-600M × 5
  7
CN
 11
23.0
 21
183.0
 31
0.0
100
AcDbText
  0
TEXT
  5
92
330
17
100
AcDbEntity
  8
NOTE
100
AcDbText
 10
23.0
 20
178.4
 30
0.0
 40
2.5
  1
3.00 kWp / Voc,cold 299.0 V
  7
CN
 11
23.0
 21
178.4
 31
0.0
100
AcDbText
  0
LINE
  5
93
330
17
100
AcDbEntity
  8
POS
  6
CONTINUOUS
370
25
100
AcDbLine
 10
90.0
 20
181.0
 30
0.0
 11
99.0
 21
181.0
 31
0.0
  0
LINE
  5
94
330
17
100
AcDbEntity
  8
POS
  6
CONTINUOUS
370
25
100
AcDbLine
 10
99.0
 20
178.0
 30
0.0
 11
107.0
 21
178.0
 31
0.0
  0
LINE
  5
95
330
17
100
AcDbEntity
  8
POS
  6
CONTINUOUS
370
25
100
AcDbLine
 10
107.0
 20
178.0
 30
0.0
 11
107.0
 21
184.0
 31
0.0
  0
LINE
  5
96
330
17
100
AcDbEntity
  8
POS
  6
CONTINUOUS
370
25
100
AcDbLine
 10
107.0
 20
184.0
 30
0.0
 11
99.0
 21
184.0
 31
0.0
  0
LINE
  5
97
330
17
100
AcDbEntity
  8
POS
  6
CONTINUOUS
370
25
100
AcDbLine
 10
99.0
 20
184.0
 30
0.0
 11
99.0
 21
178.0
 31
0.0
  0
LINE
  5
98
330
17
100
AcDbEntity
  8
POS
  6
CONTINUOUS
370
25
100
AcDbLine
 10
99.0
 20
181.0
 30
0.0
 11
107.0
 21
181.0
 31
0.0
  0
LINE
  5
99
330
17
100
AcDbEntity
  8
POS
  6
CONTINUOUS
370
25
100
AcDbLine
 10
107.0
 20
181.0
 30
0.0
 11
114.0
 21
181.0
 31
0.0
  0
LINE
  5
9A
330
17
100
AcDbEntity
  8
POS
  6
CONTINUOUS
370
25
100
AcDbLine
 10
114.0
 20
181.0
 30
0.0
 11
119.0
 21
184.0
 31
0.0
  0
LINE
  5
9B
330
17
100
AcDbEntity
  8
POS
  6
CONTINUOUS
370
25
100
AcDbLine
 10
121.0
 20
181.0
 30
0.0
 11
150.0
 21
181.0
 31
0.0
  0
TEXT
  5
9C
330
17
100
AcDbEntity
  8
NOTE
100
AcDbText
 10
98.0
 20
188.0
 30
0.0
 40
2.35
  1
FP2 25 A gPV
  7
CN
 11
98.0
 21
188.0
 31
0.0
100
AcDbText
  0
TEXT
  5
9D
330
17
100
AcDbEntity
  8
NOTE
100
AcDbText
 10
113.0
 20
171.0
 30
0.0
 40
2.25
  1
QS2 2P ≥600 VDC
  7
CN
 11
113.0
 21
171.0
 31
0.0
100
AcDbText
  0
TEXT
  5
9E
330
17
100
AcDbEntity
  8
NOTE
100
AcDbText
 10
21.0
 20
160.0
 30
0.0
 40
2.35
  1
C2-2：PV1-F ±各4 mm² / 15 m（预算）
  7
CN
 11
21.0
 21
160.0
 31
0.0
100
AcDbText
  0
LINE
  5
9F
330
17
100
AcDbEntity
  8
PE
  6
CONTINUOUS
370
25
100
AcDbLine
 10
137.0
 20
181.0
 30
0.0
 11
137.0
 21
172.0
 31
0.0
  0
CIRCLE
  5
A0
330
17
100
AcDbEntity
  8
POS
100
AcDbCircle
 10
137.0
 20
181.0
 30
0.0
 40
0.65
  0
LINE
  5
A1
330
17
100
AcDbEntity
  8
PE
  6
CONTINUOUS
370
25
100
AcDbLine
 10
132.0
 20
165.0
 30
0.0
 11
142.0
 21
165.0
 31
0.0
  0
LINE
  5
A2
330
17
100
AcDbEntity
  8
PE
  6
CONTINUOUS
370
25
100
AcDbLine
 10
142.0
 20
165.0
 30
0.0
 11
142.0
 21
172.0
 31
0.0
  0
LINE
  5
A3
330
17
100
AcDbEntity
  8
PE
  6
CONTINUOUS
370
25
100
AcDbLine
 10
142.0
 20
172.0
 30
0.0
 11
132.0
 21
172.0
 31
0.0
  0
LINE
  5
A4
330
17
100
AcDbEntity
  8
PE
  6
CONTINUOUS
370
25
100
AcDbLine
 10
132.0
 20
172.0
 30
0.0
 11
132.0
 21
165.0
 31
0.0
  0
TEXT
  5
A5
330
17
100
AcDbEntity
  8
PE
100
AcDbText
 10
137.0
 20
168.0
 30
0.0
 40
2.0
  1
SPD
  7
CN
 72
1
 11
137.0
 21
168.0
 31
0.0
100
AcDbText
  0
LINE
  5
A6
330
17
100
AcDbEntity
  8
PE
  6
CONTINUOUS
370
25
100
AcDbLine
 10
137.0
 20
165.0
 30
0.0
 11
137.0
 21
161.0
 31
0.0
  0
LINE
  5
A7
330
17
100
AcDbEntity
  8
PE
  6
CONTINUOUS
370
25
100
AcDbLine
 10
137.0
 20
162.0
 30
0.0
 11
137.0
 21
159.0
 31
0.0
  0
LINE
  5
A8
330
17
100
AcDbEntity
  8
PE
  6
CONTINUOUS
370
25
100
AcDbLine
 10
134.0
 20
159.0
 30
0.0
 11
140.0
 21
159.0
 31
0.0
  0
LINE
  5
A9
330
17
100
AcDbEntity
  8
PE
  6
CONTINUOUS
370
25
100
AcDbLine
 10
135.0
 20
157.8
 30
0.0
 11
139.0
 21
157.8
 31
0.0
  0
LINE
  5
AA
330
17
100
AcDbEntity
  8
PE
  6
CONTINUOUS
370
25
100
AcDbLine
 10
136.0
 20
156.6
 30
0.0
 11
138.0
 21
156.6
 31
0.0
  0
LINE
  5
AB
330
17
100
AcDbEntity
  8
EQUIP
  6
CONTINUOUS
370
25
100
AcDbLine
 10
150.0
 20
157.0
 30
0.0
 11
218.0
 21
157.0
 31
0.0
  0
LINE
  5
AC
330
17
100
AcDbEntity
  8
EQUIP
  6
CONTINUOUS
370
25
100
AcDbLine
 10
218.0
 20
157.0
 30
0.0
 11
218.0
 21
199.0
 31
0.0
  0
LINE
  5
AD
330
17
100
AcDbEntity
  8
EQUIP
  6
CONTINUOUS
370
25
100
AcDbLine
 10
218.0
 20
199.0
 30
0.0
 11
150.0
 21
199.0
 31
0.0
  0
LINE
  5
AE
330
17
100
AcDbEntity
  8
EQUIP
  6
CONTINUOUS
370
25
100
AcDbLine
 10
150.0
 20
199.0
 30
0.0
 11
150.0
 21
157.0
 31
0.0
  0
TEXT
  5
AF
330
17
100
AcDbEntity
  8
EQUIP
100
AcDbText
 10
153.0
 20
194.0
 30
0.0
 40
3.0
  1
INV2  Growatt
  7
CN
 11
153.0
 21
194.0
 31
0.0
100
AcDbText
  0
TEXT
  5
B0
330
17
100
AcDbEntity
  8
NOTE
100
AcDbText
 10
153.0
 20
189.0
 30
0.0
 40
2.5
  1
SPF 5000 ES / 5 kW
  7
CN
 11
153.0
 21
189.0
 31
0.0
100
AcDbText
  0
TEXT
  5
B1
330
17
100
AcDbEntity
  8
NOTE
100
AcDbText
 10
153.0
 20
184.4
 30
0.0
 40
2.5
  1
内置 MPPT；PV / BAT / AC 分端口
  7
CN
 11
153.0
 21
184.4
 31
0.0
100
AcDbText
  0
TEXT
  5
B2
330
17
100
AcDbEntity
  8
NOTE
100
AcDbText
 10
153.0
 20
179.8
 30
0.0
 40
2.5
  1
PV 120-430 V；最大 450 V
  7
CN
 11
153.0
 21
179.8
 31
0.0
100
AcDbText
  0
TEXT
  5
B3
330
17
100
AcDbEntity
  8
NOTE
100
AcDbText
 10
153.0
 20
175.2
 30
0.0
 40
2.5
  1
充电估算 52.9 A/台
  7
CN
 11
153.0
 21
175.2
 31
0.0
100
AcDbText
  0
LINE
  5
B4
330
17
100
AcDbEntity
  8
AC
  6
CONTINUOUS
370
25
100
AcDbLine
 10
218.0
 20
181.0
 30
0.0
 11
228.0
 21
181.0
 31
0.0
  0
LINE
  5
B5
330
17
100
AcDbEntity
  8
AC
  6
CONTINUOUS
370
25
100
AcDbLine
 10
228.0
 20
178.0
 30
0.0
 11
239.0
 21
178.0
 31
0.0
  0
LINE
  5
B6
330
17
100
AcDbEntity
  8
AC
  6
CONTINUOUS
370
25
100
AcDbLine
 10
239.0
 20
178.0
 30
0.0
 11
239.0
 21
184.0
 31
0.0
  0
LINE
  5
B7
330
17
100
AcDbEntity
  8
AC
  6
CONTINUOUS
370
25
100
AcDbLine
 10
239.0
 20
184.0
 30
0.0
 11
228.0
 21
184.0
 31
0.0
  0
LINE
  5
B8
330
17
100
AcDbEntity
  8
AC
  6
CONTINUOUS
370
25
100
AcDbLine
 10
228.0
 20
184.0
 30
0.0
 11
228.0
 21
178.0
 31
0.0
  0
TEXT
  5
B9
330
17
100
AcDbEntity
  8
AC
100
AcDbText
 10
233.5
 20
187.0
 30
0.0
 40
2.5
  1
QA2
  7
CN
 72
1
 11
233.5
 21
187.0
 31
0.0
100
AcDbText
  0
TEXT
  5
BA
330
17
100
AcDbEntity
  8
AC
100
AcDbText
 10
233.5
 20
171.0
 30
0.0
 40
2.3
  1
2P 32 A
  7
CN
 72
1
 11
233.5
 21
171.0
 31
0.0
100
AcDbText
  0
LINE
  5
BB
330
17
100
AcDbEntity
  8
AC
  6
CONTINUOUS
370
25
100
AcDbLine
 10
239.0
 20
181.0
 30
0.0
 11
258.0
 21
181.0
 31
0.0
  0
CIRCLE
  5
BC
330
17
100
AcDbEntity
  8
AC
100
AcDbCircle
 10
258.0
 20
181.0
 30
0.0
 40
0.65
  0
TEXT
  5
BD
330
17
100
AcDbEntity
  8
NOTE
100
AcDbText
 10
220.0
 20
162.0
 30
0.0
 40
2.2
  1
C5：3G6 / 5 m
  7
CN
 11
220.0
 21
162.0
 31
0.0
100
AcDbText
  0
LINE
  5
BE
330
17
100
AcDbEntity
  8
POS
  6
CONTINUOUS
370
25
100
AcDbLine
 10
208.0
 20
157.0
 30
0.0
 11
208.0
 21
139.0
 31
0.0
  0
LINE
  5
BF
330
17
100
AcDbEntity
  8
POS
  6
CONTINUOUS
370
25
100
AcDbLine
 10
203.0
 20
131.0
 30
0.0
 11
213.0
 21
131.0
 31
0.0
  0
LINE
  5
C0
330
17
100
AcDbEntity
  8
POS
  6
CONTINUOUS
370
25
100
AcDbLine
 10
213.0
 20
131.0
 30
0.0
 11
213.0
 21
139.0
 31
0.0
  0
LINE
  5
C1
330
17
100
AcDbEntity
  8
POS
  6
CONTINUOUS
370
25
100
AcDbLine
 10
213.0
 20
139.0
 30
0.0
 11
203.0
 21
139.0
 31
0.0
  0
LINE
  5
C2
330
17
100
AcDbEntity
  8
POS
  6
CONTINUOUS
370
25
100
AcDbLine
 10
203.0
 20
139.0
 30
0.0
 11
203.0
 21
131.0
 31
0.0
  0
LINE
  5
C3
330
17
100
AcDbEntity
  8
POS
  6
CONTINUOUS
370
25
100
AcDbLine
 10
208.0
 20
131.0
 30
0.0
 11
208.0
 21
123.0
 31
0.0
  0
CIRCLE
  5
C4
330
17
100
AcDbEntity
  8
POS
100
AcDbCircle
 10
208.0
 20
123.0
 30
0.0
 40
0.65
  0
TEXT
  5
C5
330
17
100
AcDbEntity
  8
NOTE
100
AcDbText
 10
215.0
 20
134.0
 30
0.0
 40
2.25
  1
QB2 160 A DC
  7
CN
 11
215.0
 21
134.0
 31
0.0
100
AcDbText
  0
TEXT
  5
C6
330
17
100
AcDbEntity
  8
POS
100
AcDbText
 10
175.0
 20
153.0
 30
0.0
 40
2.1
  1
BAT ±
  7
CN
 11
175.0
 21
153.0
 31
0.0
100
AcDbText
  0
LINE
  5
C7
330
17
100
AcDbEntity
  8
AC
  6
CONTINUOUS
370
25
100
AcDbLine
 10
258.0
 20
181.0
 30
0.0
 11
258.0
 21
250.0
 31
0.0
  0
LINE
  5
C8
330
17
100
AcDbEntity
  8
AC
  6
CONTINUOUS
370
25
100
AcDbLine
 10
258.0
 20
250.0
 30
0.0
 11
278.0
 21
250.0
 31
0.0
  0
LINE
  5
C9
330
17
100
AcDbEntity
  8
AC
  6
CONTINUOUS
370
25
100
AcDbLine
 10
278.0
 20
245.0
 30
0.0
 11
293.0
 21
245.0
 31
0.0
  0
LINE
  5
CA
330
17
100
AcDbEntity
  8
AC
  6
CONTINUOUS
370
25
100
AcDbLine
 10
293.0
 20
245.0
 30
0.0
 11
293.0
 21
255.0
 31
0.0
  0
LINE
  5
CB
330
17
100
AcDbEntity
  8
AC
  6
CONTINUOUS
370
25
100
AcDbLine
 10
293.0
 20
255.0
 30
0.0
 11
278.0
 21
255.0
 31
0.0
  0
LINE
  5
CC
330
17
100
AcDbEntity
  8
AC
  6
CONTINUOUS
370
25
100
AcDbLine
 10
278.0
 20
255.0
 30
0.0
 11
278.0
 21
245.0
 31
0.0
  0
TEXT
  5
CD
330
17
100
AcDbEntity
  8
AC
100
AcDbText
 10
285.5
 20
248.0
 30
0.0
 40
2.8
  1
DB1
  7
CN
 72
1
 11
285.5
 21
248.0
 31
0.0
100
AcDbText
  0
LINE
  5
CE
330
17
100
AcDbEntity
  8
AC
  6
CONTINUOUS
370
25
100
AcDbLine
 10
293.0
 20
250.0
 30
0.0
 11
307.0
 21
250.0
 31
0.0
  0
LINE
  5
CF
330
17
100
AcDbEntity
  8
AC
  6
CONTINUOUS
370
25
100
AcDbLine
 10
307.0
 20
250.0
 30
0.0
 11
307.0
 21
178.0
 31
0.0
  0
TEXT
  5
D0
330
17
100
AcDbEntity
  8
AC
100
AcDbText
 10
282.0
 20
258.0
 30
0.0
 40
2.7
  1
AC 220 V / 50 Hz
  7
CN
 11
282.0
 21
258.0
 31
0.0
100
AcDbText
  0
CIRCLE
  5
D1
330
17
100
AcDbEntity
  8
AC
100
AcDbCircle
 10
307.0
 20
239.0
 30
0.0
 40
0.65
  0
LINE
  5
D2
330
17
100
AcDbEntity
  8
AC
  6
CONTINUOUS
370
25
100
AcDbLine
 10
307.0
 20
239.0
 30
0.0
 11
318.0
 21
239.0
 31
0.0
  0
LINE
  5
D3
330
17
100
AcDbEntity
  8
AC
  6
CONTINUOUS
370
25
100
AcDbLine
 10
318.0
 20
236.0
 30
0.0
 11
330.0
 21
236.0
 31
0.0
  0
LINE
  5
D4
330
17
100
AcDbEntity
  8
AC
  6
CONTINUOUS
370
25
100
AcDbLine
 10
330.0
 20
236.0
 30
0.0
 11
330.0
 21
242.0
 31
0.0
  0
LINE
  5
D5
330
17
100
AcDbEntity
  8
AC
  6
CONTINUOUS
370
25
100
AcDbLine
 10
330.0
 20
242.0
 30
0.0
 11
318.0
 21
242.0
 31
0.0
  0
LINE
  5
D6
330
17
100
AcDbEntity
  8
AC
  6
CONTINUOUS
370
25
100
AcDbLine
 10
318.0
 20
242.0
 30
0.0
 11
318.0
 21
236.0
 31
0.0
  0
LINE
  5
D7
330
17
100
AcDbEntity
  8
AC
  6
CONTINUOUS
370
25
100
AcDbLine
 10
330.0
 20
239.0
 30
0.0
 11
345.0
 21
239.0
 31
0.0
  0
TEXT
  5
D8
330
17
100
AcDbEntity
  8
NOTE
100
AcDbText
 10
336.0
 20
244.0
 30
0.0
 40
2.8
  1
C6a  照明
  7
CN
 11
336.0
 21
244.0
 31
0.0
100
AcDbText
  0
TEXT
  5
D9
330
17
100
AcDbEntity
  8
NOTE
100
AcDbText
 10
336.0
 20
233.0
 30
0.0
 40
2.35
  1
10 A / BV 3×2.5 / 20m
  7
CN
 11
336.0
 21
233.0
 31
0.0
100
AcDbText
  0
CIRCLE
  5
DA
330
17
100
AcDbEntity
  8
AC
100
AcDbCircle
 10
307.0
 20
220.0
 30
0.0
 40
0.65
  0
LINE
  5
DB
330
17
100
AcDbEntity
  8
AC
  6
CONTINUOUS
370
25
100
AcDbLine
 10
307.0
 20
220.0
 30
0.0
 11
318.0
 21
220.0
 31
0.0
  0
LINE
  5
DC
330
17
100
AcDbEntity
  8
AC
  6
CONTINUOUS
370
25
100
AcDbLine
 10
318.0
 20
217.0
 30
0.0
 11
330.0
 21
217.0
 31
0.0
  0
LINE
  5
DD
330
17
100
AcDbEntity
  8
AC
  6
CONTINUOUS
370
25
100
AcDbLine
 10
330.0
 20
217.0
 30
0.0
 11
330.0
 21
223.0
 31
0.0
  0
LINE
  5
DE
330
17
100
AcDbEntity
  8
AC
  6
CONTINUOUS
370
25
100
AcDbLine
 10
330.0
 20
223.0
 30
0.0
 11
318.0
 21
223.0
 31
0.0
  0
LINE
  5
DF
330
17
100
AcDbEntity
  8
AC
  6
CONTINUOUS
370
25
100
AcDbLine
 10
318.0
 20
223.0
 30
0.0
 11
318.0
 21
217.0
 31
0.0
  0
LINE
  5
E0
330
17
100
AcDbEntity
  8
AC
  6
CONTINUOUS
370
25
100
AcDbLine
 10
330.0
 20
220.0
 30
0.0
 11
345.0
 21
220.0
 31
0.0
  0
TEXT
  5
E1
330
17
100
AcDbEntity
  8
NOTE
100
AcDbText
 10
336.0
 20
225.0
 30
0.0
 40
2.8
  1
C6b  厨房
  7
CN
 11
336.0
 21
225.0
 31
0.0
100
AcDbText
  0
TEXT
  5
E2
330
17
100
AcDbEntity
  8
NOTE
100
AcDbText
 10
336.0
 20
214.0
 30
0.0
 40
2.35
  1
20 A / BV 3×4 / 15m
  7
CN
 11
336.0
 21
214.0
 31
0.0
100
AcDbText
  0
CIRCLE
  5
E3
330
17
100
AcDbEntity
  8
AC
100
AcDbCircle
 10
307.0
 20
201.0
 30
0.0
 40
0.65
  0
LINE
  5
E4
330
17
100
AcDbEntity
  8
AC
  6
CONTINUOUS
370
25
100
AcDbLine
 10
307.0
 20
201.0
 30
0.0
 11
318.0
 21
201.0
 31
0.0
  0
LINE
  5
E5
330
17
100
AcDbEntity
  8
AC
  6
CONTINUOUS
370
25
100
AcDbLine
 10
318.0
 20
198.0
 30
0.0
 11
330.0
 21
198.0
 31
0.0
  0
LINE
  5
E6
330
17
100
AcDbEntity
  8
AC
  6
CONTINUOUS
370
25
100
AcDbLine
 10
330.0
 20
198.0
 30
0.0
 11
330.0
 21
204.0
 31
0.0
  0
LINE
  5
E7
330
17
100
AcDbEntity
  8
AC
  6
CONTINUOUS
370
25
100
AcDbLine
 10
330.0
 20
204.0
 30
0.0
 11
318.0
 21
204.0
 31
0.0
  0
LINE
  5
E8
330
17
100
AcDbEntity
  8
AC
  6
CONTINUOUS
370
25
100
AcDbLine
 10
318.0
 20
204.0
 30
0.0
 11
318.0
 21
198.0
 31
0.0
  0
LINE
  5
E9
330
17
100
AcDbEntity
  8
AC
  6
CONTINUOUS
370
25
100
AcDbLine
 10
330.0
 20
201.0
 30
0.0
 11
345.0
 21
201.0
 31
0.0
  0
TEXT
  5
EA
330
17
100
AcDbEntity
  8
NOTE
100
AcDbText
 10
336.0
 20
206.0
 30
0.0
 40
2.8
  1
C6c  采暖
  7
CN
 11
336.0
 21
206.0
 31
0.0
100
AcDbText
  0
TEXT
  5
EB
330
17
100
AcDbEntity
  8
NOTE
100
AcDbText
 10
336.0
 20
195.0
 30
0.0
 40
2.35
  1
10 A / BV 3×2.5 / 20m
  7
CN
 11
336.0
 21
195.0
 31
0.0
100
AcDbText
  0
CIRCLE
  5
EC
330
17
100
AcDbEntity
  8
AC
100
AcDbCircle
 10
307.0
 20
182.0
 30
0.0
 40
0.65
  0
LINE
  5
ED
330
17
100
AcDbEntity
  8
AC
  6
CONTINUOUS
370
25
100
AcDbLine
 10
307.0
 20
182.0
 30
0.0
 11
318.0
 21
182.0
 31
0.0
  0
LINE
  5
EE
330
17
100
AcDbEntity
  8
AC
  6
CONTINUOUS
370
25
100
AcDbLine
 10
318.0
 20
179.0
 30
0.0
 11
330.0
 21
179.0
 31
0.0
  0
LINE
  5
EF
330
17
100
AcDbEntity
  8
AC
  6
CONTINUOUS
370
25
100
AcDbLine
 10
330.0
 20
179.0
 30
0.0
 11
330.0
 21
185.0
 31
0.0
  0
LINE
  5
F0
330
17
100
AcDbEntity
  8
AC
  6
CONTINUOUS
370
25
100
AcDbLine
 10
330.0
 20
185.0
 30
0.0
 11
318.0
 21
185.0
 31
0.0
  0
LINE
  5
F1
330
17
100
AcDbEntity
  8
AC
  6
CONTINUOUS
370
25
100
AcDbLine
 10
318.0
 20
185.0
 30
0.0
 11
318.0
 21
179.0
 31
0.0
  0
LINE
  5
F2
330
17
100
AcDbEntity
  8
AC
  6
CONTINUOUS
370
25
100
AcDbLine
 10
330.0
 20
182.0
 30
0.0
 11
345.0
 21
182.0
 31
0.0
  0
TEXT
  5
F3
330
17
100
AcDbEntity
  8
NOTE
100
AcDbText
 10
336.0
 20
187.0
 30
0.0
 40
2.8
  1
C6d  其他插座
  7
CN
 11
336.0
 21
187.0
 31
0.0
100
AcDbText
  0
TEXT
  5
F4
330
17
100
AcDbEntity
  8
NOTE
100
AcDbText
 10
336.0
 20
176.0
 30
0.0
 40
2.35
  1
16 A / BV 3×2.5 / 20m
  7
CN
 11
336.0
 21
176.0
 31
0.0
100
AcDbText
  0
TEXT
  5
F5
330
17
100
AcDbEntity
  8
HOLD
100
AcDbText
 10
280.0
 20
168.0
 30
0.0
 40
2.6
  1
末端 30 mA 漏电保护；型式待核
  7
CN
 11
280.0
 21
168.0
 31
0.0
100
AcDbText
  0
LINE
  5
F6
330
17
100
AcDbEntity
  8
AC
  6
CONTINUOUS
370
25
100
AcDbLine
 10
299.0
 20
250.0
 30
0.0
 11
299.0
 21
157.0
 31
0.0
  0
CIRCLE
  5
F7
330
17
100
AcDbEntity
  8
AC
100
AcDbCircle
 10
299.0
 20
250.0
 30
0.0
 40
0.65
  0
LINE
  5
F8
330
17
100
AcDbEntity
  8
PE
  6
CONTINUOUS
370
25
100
AcDbLine
 10
294.0
 20
150.0
 30
0.0
 11
304.0
 21
150.0
 31
0.0
  0
LINE
  5
F9
330
17
100
AcDbEntity
  8
PE
  6
CONTINUOUS
370
25
100
AcDbLine
 10
304.0
 20
150.0
 30
0.0
 11
304.0
 21
157.0
 31
0.0
  0
LINE
  5
FA
330
17
100
AcDbEntity
  8
PE
  6
CONTINUOUS
370
25
100
AcDbLine
 10
304.0
 20
157.0
 30
0.0
 11
294.0
 21
157.0
 31
0.0
  0
LINE
  5
FB
330
17
100
AcDbEntity
  8
PE
  6
CONTINUOUS
370
25
100
AcDbLine
 10
294.0
 20
157.0
 30
0.0
 11
294.0
 21
150.0
 31
0.0
  0
TEXT
  5
FC
330
17
100
AcDbEntity
  8
PE
100
AcDbText
 10
309.0
 20
152.0
 30
0.0
 40
2.35
  1
SPD-AC Type II / Uc 275 V
  7
CN
 11
309.0
 21
152.0
 31
0.0
100
AcDbText
  0
LINE
  5
FD
330
17
100
AcDbEntity
  8
PE
  6
CONTINUOUS
370
25
100
AcDbLine
 10
299.0
 20
150.0
 30
0.0
 11
299.0
 21
148.0
 31
0.0
  0
LINE
  5
FE
330
17
100
AcDbEntity
  8
PE
  6
CONTINUOUS
370
25
100
AcDbLine
 10
299.0
 20
148.0
 30
0.0
 11
299.0
 21
145.0
 31
0.0
  0
LINE
  5
FF
330
17
100
AcDbEntity
  8
PE
  6
CONTINUOUS
370
25
100
AcDbLine
 10
296.0
 20
145.0
 30
0.0
 11
302.0
 21
145.0
 31
0.0
  0
LINE
  5
100
330
17
100
AcDbEntity
  8
PE
  6
CONTINUOUS
370
25
100
AcDbLine
 10
297.0
 20
143.8
 30
0.0
 11
301.0
 21
143.8
 31
0.0
  0
LINE
  5
101
330
17
100
AcDbEntity
  8
PE
  6
CONTINUOUS
370
25
100
AcDbLine
 10
298.0
 20
142.6
 30
0.0
 11
300.0
 21
142.6
 31
0.0
  0
LINE
  5
102
330
17
100
AcDbEntity
  8
POS
  6
CONTINUOUS
370
70
100
AcDbLine
 10
35.0
 20
123.0
 30
0.0
 11
225.0
 21
123.0
 31
0.0
  0
TEXT
  5
103
330
17
100
AcDbEntity
  8
POS
100
AcDbText
 10
35.0
 20
128.0
 30
0.0
 40
2.7
  1
51.2 V 电池母排（+ / - 分设、绝缘隔离）
  7
CN
 11
35.0
 21
128.0
 31
0.0
100
AcDbText
  0
CIRCLE
  5
104
330
17
100
AcDbEntity
  8
POS
100
AcDbCircle
 10
42.0
 20
123.0
 30
0.0
 40
0.65
  0
LINE
  5
105
330
17
100
AcDbEntity
  8
POS
  6
CONTINUOUS
370
25
100
AcDbLine
 10
42.0
 20
123.0
 30
0.0
 11
42.0
 21
114.0
 31
0.0
  0
LINE
  5
106
330
17
100
AcDbEntity
  8
POS
  6
CONTINUOUS
370
25
100
AcDbLine
 10
38.0
 20
108.0
 30
0.0
 11
46.0
 21
108.0
 31
0.0
  0
LINE
  5
107
330
17
100
AcDbEntity
  8
POS
  6
CONTINUOUS
370
25
100
AcDbLine
 10
46.0
 20
108.0
 30
0.0
 11
46.0
 21
114.0
 31
0.0
  0
LINE
  5
108
330
17
100
AcDbEntity
  8
POS
  6
CONTINUOUS
370
25
100
AcDbLine
 10
46.0
 20
114.0
 30
0.0
 11
38.0
 21
114.0
 31
0.0
  0
LINE
  5
109
330
17
100
AcDbEntity
  8
POS
  6
CONTINUOUS
370
25
100
AcDbLine
 10
38.0
 20
114.0
 30
0.0
 11
38.0
 21
108.0
 31
0.0
  0
LINE
  5
10A
330
17
100
AcDbEntity
  8
POS
  6
CONTINUOUS
370
25
100
AcDbLine
 10
42.0
 20
108.0
 30
0.0
 11
42.0
 21
103.0
 31
0.0
  0
LINE
  5
10B
330
17
100
AcDbEntity
  8
EQUIP
  6
CONTINUOUS
370
25
100
AcDbLine
 10
29.0
 20
83.0
 30
0.0
 11
55.0
 21
83.0
 31
0.0
  0
LINE
  5
10C
330
17
100
AcDbEntity
  8
EQUIP
  6
CONTINUOUS
370
25
100
AcDbLine
 10
55.0
 20
83.0
 30
0.0
 11
55.0
 21
103.0
 31
0.0
  0
LINE
  5
10D
330
17
100
AcDbEntity
  8
EQUIP
  6
CONTINUOUS
370
25
100
AcDbLine
 10
55.0
 20
103.0
 30
0.0
 11
29.0
 21
103.0
 31
0.0
  0
LINE
  5
10E
330
17
100
AcDbEntity
  8
EQUIP
  6
CONTINUOUS
370
25
100
AcDbLine
 10
29.0
 20
103.0
 30
0.0
 11
29.0
 21
83.0
 31
0.0
  0
TEXT
  5
10F
330
17
100
AcDbEntity
  8
EQUIP
100
AcDbText
 10
32.0
 20
98.0
 30
0.0
 40
3.0
  1
B1
  7
CN
 11
32.0
 21
98.0
 31
0.0
100
AcDbText
  0
TEXT
  5
110
330
17
100
AcDbEntity
  8
NOTE
100
AcDbText
 10
32.0
 20
93.0
 30
0.0
 40
2.5
  1
5.12 kWh
  7
CN
 11
32.0
 21
93.0
 31
0.0
100
AcDbText
  0
TEXT
  5
111
330
17
100
AcDbEntity
  8
NOTE
100
AcDbText
 10
32.0
 20
88.4
 30
0.0
 40
2.5
  1
内置 BMS
  7
CN
 11
32.0
 21
88.4
 31
0.0
100
AcDbText
  0
TEXT
  5
112
330
17
100
AcDbEntity
  8
POS
100
AcDbText
 10
42.0
 20
116.0
 30
0.0
 40
2.1
  1
FB1
  7
CN
 72
1
 11
42.0
 21
116.0
 31
0.0
100
AcDbText
  0
CIRCLE
  5
113
330
17
100
AcDbEntity
  8
POS
100
AcDbCircle
 10
74.0
 20
123.0
 30
0.0
 40
0.65
  0
LINE
  5
114
330
17
100
AcDbEntity
  8
POS
  6
CONTINUOUS
370
25
100
AcDbLine
 10
74.0
 20
123.0
 30
0.0
 11
74.0
 21
114.0
 31
0.0
  0
LINE
  5
115
330
17
100
AcDbEntity
  8
POS
  6
CONTINUOUS
370
25
100
AcDbLine
 10
70.0
 20
108.0
 30
0.0
 11
78.0
 21
108.0
 31
0.0
  0
LINE
  5
116
330
17
100
AcDbEntity
  8
POS
  6
CONTINUOUS
370
25
100
AcDbLine
 10
78.0
 20
108.0
 30
0.0
 11
78.0
 21
114.0
 31
0.0
  0
LINE
  5
117
330
17
100
AcDbEntity
  8
POS
  6
CONTINUOUS
370
25
100
AcDbLine
 10
78.0
 20
114.0
 30
0.0
 11
70.0
 21
114.0
 31
0.0
  0
LINE
  5
118
330
17
100
AcDbEntity
  8
POS
  6
CONTINUOUS
370
25
100
AcDbLine
 10
70.0
 20
114.0
 30
0.0
 11
70.0
 21
108.0
 31
0.0
  0
LINE
  5
119
330
17
100
AcDbEntity
  8
POS
  6
CONTINUOUS
370
25
100
AcDbLine
 10
74.0
 20
108.0
 30
0.0
 11
74.0
 21
103.0
 31
0.0
  0
LINE
  5
11A
330
17
100
AcDbEntity
  8
EQUIP
  6
CONTINUOUS
370
25
100
AcDbLine
 10
61.0
 20
83.0
 30
0.0
 11
87.0
 21
83.0
 31
0.0
  0
LINE
  5
11B
330
17
100
AcDbEntity
  8
EQUIP
  6
CONTINUOUS
370
25
100
AcDbLine
 10
87.0
 20
83.0
 30
0.0
 11
87.0
 21
103.0
 31
0.0
  0
LINE
  5
11C
330
17
100
AcDbEntity
  8
EQUIP
  6
CONTINUOUS
370
25
100
AcDbLine
 10
87.0
 20
103.0
 30
0.0
 11
61.0
 21
103.0
 31
0.0
  0
LINE
  5
11D
330
17
100
AcDbEntity
  8
EQUIP
  6
CONTINUOUS
370
25
100
AcDbLine
 10
61.0
 20
103.0
 30
0.0
 11
61.0
 21
83.0
 31
0.0
  0
TEXT
  5
11E
330
17
100
AcDbEntity
  8
EQUIP
100
AcDbText
 10
64.0
 20
98.0
 30
0.0
 40
3.0
  1
B2
  7
CN
 11
64.0
 21
98.0
 31
0.0
100
AcDbText
  0
TEXT
  5
11F
330
17
100
AcDbEntity
  8
NOTE
100
AcDbText
 10
64.0
 20
93.0
 30
0.0
 40
2.5
  1
5.12 kWh
  7
CN
 11
64.0
 21
93.0
 31
0.0
100
AcDbText
  0
TEXT
  5
120
330
17
100
AcDbEntity
  8
NOTE
100
AcDbText
 10
64.0
 20
88.4
 30
0.0
 40
2.5
  1
内置 BMS
  7
CN
 11
64.0
 21
88.4
 31
0.0
100
AcDbText
  0
TEXT
  5
121
330
17
100
AcDbEntity
  8
POS
100
AcDbText
 10
74.0
 20
116.0
 30
0.0
 40
2.1
  1
FB2
  7
CN
 72
1
 11
74.0
 21
116.0
 31
0.0
100
AcDbText
  0
CIRCLE
  5
122
330
17
100
AcDbEntity
  8
POS
100
AcDbCircle
 10
106.0
 20
123.0
 30
0.0
 40
0.65
  0
LINE
  5
123
330
17
100
AcDbEntity
  8
POS
  6
CONTINUOUS
370
25
100
AcDbLine
 10
106.0
 20
123.0
 30
0.0
 11
106.0
 21
114.0
 31
0.0
  0
LINE
  5
124
330
17
100
AcDbEntity
  8
POS
  6
CONTINUOUS
370
25
100
AcDbLine
 10
102.0
 20
108.0
 30
0.0
 11
110.0
 21
108.0
 31
0.0
  0
LINE
  5
125
330
17
100
AcDbEntity
  8
POS
  6
CONTINUOUS
370
25
100
AcDbLine
 10
110.0
 20
108.0
 30
0.0
 11
110.0
 21
114.0
 31
0.0
  0
LINE
  5
126
330
17
100
AcDbEntity
  8
POS
  6
CONTINUOUS
370
25
100
AcDbLine
 10
110.0
 20
114.0
 30
0.0
 11
102.0
 21
114.0
 31
0.0
  0
LINE
  5
127
330
17
100
AcDbEntity
  8
POS
  6
CONTINUOUS
370
25
100
AcDbLine
 10
102.0
 20
114.0
 30
0.0
 11
102.0
 21
108.0
 31
0.0
  0
LINE
  5
128
330
17
100
AcDbEntity
  8
POS
  6
CONTINUOUS
370
25
100
AcDbLine
 10
106.0
 20
108.0
 30
0.0
 11
106.0
 21
103.0
 31
0.0
  0
LINE
  5
129
330
17
100
AcDbEntity
  8
EQUIP
  6
CONTINUOUS
370
25
100
AcDbLine
 10
93.0
 20
83.0
 30
0.0
 11
119.0
 21
83.0
 31
0.0
  0
LINE
  5
12A
330
17
100
AcDbEntity
  8
EQUIP
  6
CONTINUOUS
370
25
100
AcDbLine
 10
119.0
 20
83.0
 30
0.0
 11
119.0
 21
103.0
 31
0.0
  0
LINE
  5
12B
330
17
100
AcDbEntity
  8
EQUIP
  6
CONTINUOUS
370
25
100
AcDbLine
 10
119.0
 20
103.0
 30
0.0
 11
93.0
 21
103.0
 31
0.0
  0
LINE
  5
12C
330
17
100
AcDbEntity
  8
EQUIP
  6
CONTINUOUS
370
25
100
AcDbLine
 10
93.0
 20
103.0
 30
0.0
 11
93.0
 21
83.0
 31
0.0
  0
TEXT
  5
12D
330
17
100
AcDbEntity
  8
EQUIP
100
AcDbText
 10
96.0
 20
98.0
 30
0.0
 40
3.0
  1
B3
  7
CN
 11
96.0
 21
98.0
 31
0.0
100
AcDbText
  0
TEXT
  5
12E
330
17
100
AcDbEntity
  8
NOTE
100
AcDbText
 10
96.0
 20
93.0
 30
0.0
 40
2.5
  1
5.12 kWh
  7
CN
 11
96.0
 21
93.0
 31
0.0
100
AcDbText
  0
TEXT
  5
12F
330
17
100
AcDbEntity
  8
NOTE
100
AcDbText
 10
96.0
 20
88.4
 30
0.0
 40
2.5
  1
内置 BMS
  7
CN
 11
96.0
 21
88.4
 31
0.0
100
AcDbText
  0
TEXT
  5
130
330
17
100
AcDbEntity
  8
POS
100
AcDbText
 10
106.0
 20
116.0
 30
0.0
 40
2.1
  1
FB3
  7
CN
 72
1
 11
106.0
 21
116.0
 31
0.0
100
AcDbText
  0
CIRCLE
  5
131
330
17
100
AcDbEntity
  8
POS
100
AcDbCircle
 10
138.0
 20
123.0
 30
0.0
 40
0.65
  0
LINE
  5
132
330
17
100
AcDbEntity
  8
POS
  6
CONTINUOUS
370
25
100
AcDbLine
 10
138.0
 20
123.0
 30
0.0
 11
138.0
 21
114.0
 31
0.0
  0
LINE
  5
133
330
17
100
AcDbEntity
  8
POS
  6
CONTINUOUS
370
25
100
AcDbLine
 10
134.0
 20
108.0
 30
0.0
 11
142.0
 21
108.0
 31
0.0
  0
LINE
  5
134
330
17
100
AcDbEntity
  8
POS
  6
CONTINUOUS
370
25
100
AcDbLine
 10
142.0
 20
108.0
 30
0.0
 11
142.0
 21
114.0
 31
0.0
  0
LINE
  5
135
330
17
100
AcDbEntity
  8
POS
  6
CONTINUOUS
370
25
100
AcDbLine
 10
142.0
 20
114.0
 30
0.0
 11
134.0
 21
114.0
 31
0.0
  0
LINE
  5
136
330
17
100
AcDbEntity
  8
POS
  6
CONTINUOUS
370
25
100
AcDbLine
 10
134.0
 20
114.0
 30
0.0
 11
134.0
 21
108.0
 31
0.0
  0
LINE
  5
137
330
17
100
AcDbEntity
  8
POS
  6
CONTINUOUS
370
25
100
AcDbLine
 10
138.0
 20
108.0
 30
0.0
 11
138.0
 21
103.0
 31
0.0
  0
LINE
  5
138
330
17
100
AcDbEntity
  8
EQUIP
  6
CONTINUOUS
370
25
100
AcDbLine
 10
125.0
 20
83.0
 30
0.0
 11
151.0
 21
83.0
 31
0.0
  0
LINE
  5
139
330
17
100
AcDbEntity
  8
EQUIP
  6
CONTINUOUS
370
25
100
AcDbLine
 10
151.0
 20
83.0
 30
0.0
 11
151.0
 21
103.0
 31
0.0
  0
LINE
  5
13A
330
17
100
AcDbEntity
  8
EQUIP
  6
CONTINUOUS
370
25
100
AcDbLine
 10
151.0
 20
103.0
 30
0.0
 11
125.0
 21
103.0
 31
0.0
  0
LINE
  5
13B
330
17
100
AcDbEntity
  8
EQUIP
  6
CONTINUOUS
370
25
100
AcDbLine
 10
125.0
 20
103.0
 30
0.0
 11
125.0
 21
83.0
 31
0.0
  0
TEXT
  5
13C
330
17
100
AcDbEntity
  8
EQUIP
100
AcDbText
 10
128.0
 20
98.0
 30
0.0
 40
3.0
  1
B4
  7
CN
 11
128.0
 21
98.0
 31
0.0
100
AcDbText
  0
TEXT
  5
13D
330
17
100
AcDbEntity
  8
NOTE
100
AcDbText
 10
128.0
 20
93.0
 30
0.0
 40
2.5
  1
5.12 kWh
  7
CN
 11
128.0
 21
93.0
 31
0.0
100
AcDbText
  0
TEXT
  5
13E
330
17
100
AcDbEntity
  8
NOTE
100
AcDbText
 10
128.0
 20
88.4
 30
0.0
 40
2.5
  1
内置 BMS
  7
CN
 11
128.0
 21
88.4
 31
0.0
100
AcDbText
  0
TEXT
  5
13F
330
17
100
AcDbEntity
  8
POS
100
AcDbText
 10
138.0
 20
116.0
 30
0.0
 40
2.1
  1
FB4
  7
CN
 72
1
 11
138.0
 21
116.0
 31
0.0
100
AcDbText
  0
CIRCLE
  5
140
330
17
100
AcDbEntity
  8
POS
100
AcDbCircle
 10
170.0
 20
123.0
 30
0.0
 40
0.65
  0
LINE
  5
141
330
17
100
AcDbEntity
  8
POS
  6
CONTINUOUS
370
25
100
AcDbLine
 10
170.0
 20
123.0
 30
0.0
 11
170.0
 21
114.0
 31
0.0
  0
LINE
  5
142
330
17
100
AcDbEntity
  8
POS
  6
CONTINUOUS
370
25
100
AcDbLine
 10
166.0
 20
108.0
 30
0.0
 11
174.0
 21
108.0
 31
0.0
  0
LINE
  5
143
330
17
100
AcDbEntity
  8
POS
  6
CONTINUOUS
370
25
100
AcDbLine
 10
174.0
 20
108.0
 30
0.0
 11
174.0
 21
114.0
 31
0.0
  0
LINE
  5
144
330
17
100
AcDbEntity
  8
POS
  6
CONTINUOUS
370
25
100
AcDbLine
 10
174.0
 20
114.0
 30
0.0
 11
166.0
 21
114.0
 31
0.0
  0
LINE
  5
145
330
17
100
AcDbEntity
  8
POS
  6
CONTINUOUS
370
25
100
AcDbLine
 10
166.0
 20
114.0
 30
0.0
 11
166.0
 21
108.0
 31
0.0
  0
LINE
  5
146
330
17
100
AcDbEntity
  8
POS
  6
CONTINUOUS
370
25
100
AcDbLine
 10
170.0
 20
108.0
 30
0.0
 11
170.0
 21
103.0
 31
0.0
  0
LINE
  5
147
330
17
100
AcDbEntity
  8
EQUIP
  6
CONTINUOUS
370
25
100
AcDbLine
 10
157.0
 20
83.0
 30
0.0
 11
183.0
 21
83.0
 31
0.0
  0
LINE
  5
148
330
17
100
AcDbEntity
  8
EQUIP
  6
CONTINUOUS
370
25
100
AcDbLine
 10
183.0
 20
83.0
 30
0.0
 11
183.0
 21
103.0
 31
0.0
  0
LINE
  5
149
330
17
100
AcDbEntity
  8
EQUIP
  6
CONTINUOUS
370
25
100
AcDbLine
 10
183.0
 20
103.0
 30
0.0
 11
157.0
 21
103.0
 31
0.0
  0
LINE
  5
14A
330
17
100
AcDbEntity
  8
EQUIP
  6
CONTINUOUS
370
25
100
AcDbLine
 10
157.0
 20
103.0
 30
0.0
 11
157.0
 21
83.0
 31
0.0
  0
TEXT
  5
14B
330
17
100
AcDbEntity
  8
EQUIP
100
AcDbText
 10
160.0
 20
98.0
 30
0.0
 40
3.0
  1
B5
  7
CN
 11
160.0
 21
98.0
 31
0.0
100
AcDbText
  0
TEXT
  5
14C
330
17
100
AcDbEntity
  8
NOTE
100
AcDbText
 10
160.0
 20
93.0
 30
0.0
 40
2.5
  1
5.12 kWh
  7
CN
 11
160.0
 21
93.0
 31
0.0
100
AcDbText
  0
TEXT
  5
14D
330
17
100
AcDbEntity
  8
NOTE
100
AcDbText
 10
160.0
 20
88.4
 30
0.0
 40
2.5
  1
内置 BMS
  7
CN
 11
160.0
 21
88.4
 31
0.0
100
AcDbText
  0
TEXT
  5
14E
330
17
100
AcDbEntity
  8
POS
100
AcDbText
 10
170.0
 20
116.0
 30
0.0
 40
2.1
  1
FB5
  7
CN
 72
1
 11
170.0
 21
116.0
 31
0.0
100
AcDbText
  0
TEXT
  5
14F
330
17
100
AcDbEntity
  8
NOTE
100
AcDbText
 10
24.0
 20
77.0
 30
0.0
 40
2.55
  1
Benhoo BNP-5120BM：51.2 V / 100 Ah × 5 并联 = 25.60 kWh
  7
CN
 11
24.0
 21
77.0
 31
0.0
100
AcDbText
  0
TEXT
  5
150
330
17
100
AcDbEntity
  8
NOTE
100
AcDbText
 10
24.0
 20
72.0
 30
0.0
 40
2.55
  1
FB 各100 A：电池适用熔断器，分断能力/选择性/支线截面待核。
  7
CN
 11
24.0
 21
72.0
 31
0.0
100
AcDbText
  0
TEXT
  5
151
330
17
100
AcDbEntity
  8
NOTE
100
AcDbText
 10
24.0
 20
67.0
 30
0.0
 40
2.55
  1
C4：每台 ±各70 mm²，单程≤2 m；充放电共用此物理连接。
  7
CN
 11
24.0
 21
67.0
 31
0.0
100
AcDbText
  0
TEXT
  5
152
330
17
100
AcDbEntity
  8
NOTE
100
AcDbText
 10
24.0
 20
62.0
 30
0.0
 40
2.55
  1
原 C3 为功能计算路径，不另画外置充电端口和50/63 A支路。
  7
CN
 11
24.0
 21
62.0
 31
0.0
100
AcDbText
  0
TEXT
  5
153
330
17
100
AcDbEntity
  8
NOTE
100
AcDbText
 10
24.0
 20
57.0
 30
0.0
 40
2.55
  1
PV SPD：Type II，Ucpv / Up / 后备保护与设备耐压配合待核。
  7
CN
 11
24.0
 21
57.0
 31
0.0
100
AcDbText
  0
LINE
  5
154
330
17
100
AcDbEntity
  8
COMM
  6
DRAW_DASH
370
25
100
AcDbLine
 10
29.0
 20
89.0
 30
0.0
 11
25.0
 21
89.0
 31
0.0
  0
LINE
  5
155
330
17
100
AcDbEntity
  8
COMM
  6
DRAW_DASH
370
25
100
AcDbLine
 10
25.0
 20
89.0
 30
0.0
 11
25.0
 21
153.0
 31
0.0
  0
LINE
  5
156
330
17
100
AcDbEntity
  8
COMM
  6
DRAW_DASH
370
25
100
AcDbLine
 10
25.0
 20
153.0
 30
0.0
 11
144.0
 21
153.0
 31
0.0
  0
LINE
  5
157
330
17
100
AcDbEntity
  8
COMM
  6
DRAW_DASH
370
25
100
AcDbLine
 10
144.0
 20
153.0
 30
0.0
 11
144.0
 21
211.0
 31
0.0
  0
LINE
  5
158
330
17
100
AcDbEntity
  8
COMM
  6
DRAW_DASH
370
25
100
AcDbLine
 10
144.0
 20
211.0
 30
0.0
 11
155.0
 21
211.0
 31
0.0
  0
LINE
  5
159
330
17
100
AcDbEntity
  8
COMM
  6
DRAW_DASH
370
25
100
AcDbLine
 10
155.0
 20
211.0
 30
0.0
 11
155.0
 21
215.0
 31
0.0
  0
TEXT
  5
15A
330
17
100
AcDbEntity
  8
COMM
100
AcDbText
 10
28.0
 20
156.0
 30
0.0
 40
2.45
  1
BMS 总线至 INV1；线序/协议待厂家确认
  7
CN
 11
28.0
 21
156.0
 31
0.0
100
AcDbText
  0
LINE
  5
15B
330
17
100
AcDbEntity
  8
COMM
  6
DRAW_DASH
370
25
100
AcDbLine
 10
213.0
 20
215.0
 30
0.0
 11
245.0
 21
215.0
 31
0.0
  0
LINE
  5
15C
330
17
100
AcDbEntity
  8
COMM
  6
DRAW_DASH
370
25
100
AcDbLine
 10
245.0
 20
215.0
 30
0.0
 11
245.0
 21
158.0
 31
0.0
  0
LINE
  5
15D
330
17
100
AcDbEntity
  8
COMM
  6
DRAW_DASH
370
25
100
AcDbLine
 10
245.0
 20
158.0
 30
0.0
 11
213.0
 21
158.0
 31
0.0
  0
TEXT
  5
15E
330
17
100
AcDbEntity
  8
COMM
100
AcDbText
 10
247.0
 20
149.0
 30
0.0
 40
2.2
  1
并机通信+均流
  7
CN
 72
2
 11
247.0
 21
149.0
 31
0.0
100
AcDbText
  0
TEXT
  5
15F
330
17
100
AcDbEntity
  8
HOLD
100
AcDbText
 10
273.0
 20
130.0
 30
0.0
 40
2.55
  1
PE：外壳/支架/柜体接等电位端子。
  7
CN
 11
273.0
 21
130.0
 31
0.0
100
AcDbText
  0
TEXT
  5
160
330
17
100
AcDbEntity
  8
HOLD
100
AcDbText
 10
273.0
 20
123.0
 30
0.0
 40
2.55
  1
接地≤4 Ω为原稿目标，非实测结果。
  7
CN
 11
273.0
 21
123.0
 31
0.0
100
AcDbText
  0
TEXT
  5
161
330
17
100
AcDbEntity
  8
HOLD
100
AcDbText
 10
273.0
 20
116.0
 30
0.0
 40
2.55
  1
电网/发电机 AC INPUT 本方案不接入。
  7
CN
 11
273.0
 21
116.0
 31
0.0
100
AcDbText
  0
TEXT
  5
162
330
17
100
AcDbEntity
  8
HOLD
100
AcDbText
 10
273.0
 20
109.0
 30
0.0
 40
2.55
  1
N-PE 接地点及故障自动切断方案待核。
  7
CN
 11
273.0
 21
109.0
 31
0.0
100
AcDbText
  0
TEXT
  5
163
330
17
100
AcDbEntity
  8
HOLD
100
AcDbText
 10
273.0
 20
102.0
 30
0.0
 40
2.55
  1
32 A、160 A沿用原稿，未完成短路配合。
  7
CN
 11
273.0
 21
102.0
 31
0.0
100
AcDbText
  0
TEXT
  5
164
330
17
100
AcDbEntity
  8
HOLD
100
AcDbText
 10
273.0
 20
95.0
 30
0.0
 40
2.55
  1
低压切断45 V为设计值，须与BMS联调。
  7
CN
 11
273.0
 21
95.0
 31
0.0
100
AcDbText
  0
TEXT
  5
165
330
17
100
AcDbEntity
  8
HOLD
100
AcDbText
 10
273.0
 20
88.0
 30
0.0
 40
2.55
  1
未确认保护及通信前不得据图通电。
  7
CN
 11
273.0
 21
88.0
 31
0.0
100
AcDbText
  0
TEXT
  5
166
330
17
100
AcDbEntity
  8
HOLD
100
AcDbText
 10
273.0
 20
81.0
 30
0.0
 40
2.55
  1
双机严禁未同步直接并接！
  7
CN
 11
273.0
 21
81.0
 31
0.0
100
AcDbText
  0
LINE
  5
167
330
17
100
AcDbEntity
  8
PE
  6
CONTINUOUS
370
25
100
AcDbLine
 10
280.0
 20
62.0
 30
0.0
 11
395.0
 21
62.0
 31
0.0
  0
LINE
  5
168
330
17
100
AcDbEntity
  8
PE
  6
CONTINUOUS
370
25
100
AcDbLine
 10
330.0
 20
62.0
 30
0.0
 11
330.0
 21
59.0
 31
0.0
  0
LINE
  5
169
330
17
100
AcDbEntity
  8
PE
  6
CONTINUOUS
370
25
100
AcDbLine
 10
327.0
 20
59.0
 30
0.0
 11
333.0
 21
59.0
 31
0.0
  0
LINE
  5
16A
330
17
100
AcDbEntity
  8
PE
  6
CONTINUOUS
370
25
100
AcDbLine
 10
328.0
 20
57.8
 30
0.0
 11
332.0
 21
57.8
 31
0.0
  0
LINE
  5
16B
330
17
100
AcDbEntity
  8
PE
  6
CONTINUOUS
370
25
100
AcDbLine
 10
329.0
 20
56.6
 30
0.0
 11
331.0
 21
56.6
 31
0.0
  0
LINE
  5
16C
330
17
100
AcDbEntity
  8
PE
  6
CONTINUOUS
370
25
100
AcDbLine
 10
330.0
 20
62.0
 30
0.0
 11
330.0
 21
62.0
 31
0.0
  0
TEXT
  5
16D
330
17
100
AcDbEntity
  8
PE
100
AcDbText
 10
280.0
 20
66.0
 30
0.0
 40
2.45
  1
PE 干线：≥25 mm² Cu（原稿）
  7
CN
 11
280.0
 21
66.0
 31
0.0
100
AcDbText
  0
ENDSEC
  0
SECTION
  2
OBJECTS
  0
DICTIONARY
  5
A
330
0
100
AcDbDictionary
281
1
  3
ACAD_COLOR
350
B
  3
ACAD_GROUP
350
C
  3
ACAD_LAYOUT
350
D
  3
ACAD_MATERIAL
350
E
  3
ACAD_MLEADERSTYLE
350
F
  3
ACAD_MLINESTYLE
350
10
  3
ACAD_PLOTSETTINGS
350
11
  3
ACAD_PLOTSTYLENAME
350
12
  3
ACAD_SCALELIST
350
14
  3
ACAD_TABLESTYLE
350
15
  3
ACAD_VISUALSTYLE
350
16
  3
EZDXF_META
350
2D
  0
DICTIONARY
  5
B
330
A
100
AcDbDictionary
281
1
  0
DICTIONARY
  5
C
330
A
100
AcDbDictionary
281
1
  0
DICTIONARY
  5
D
330
A
100
AcDbDictionary
281
1
  3
Model
350
1A
  3
Layout1
350
1E
  0
DICTIONARY
  5
E
330
A
100
AcDbDictionary
281
1
  3
ByBlock
350
1F
  3
ByLayer
350
20
  3
Global
350
21
  0
DICTIONARY
  5
F
330
A
100
AcDbDictionary
281
1
  3
Standard
350
2C
  0
DICTIONARY
  5
10
330
A
100
AcDbDictionary
281
1
  3
Standard
350
22
  0
DICTIONARY
  5
11
330
A
100
AcDbDictionary
281
1
  0
ACDBDICTIONARYWDFLT
  5
12
330
A
100
AcDbDictionary
281
1
  3
Normal
350
13
100
AcDbDictionaryWithDefault
340
13
  0
ACDBPLACEHOLDER
  5
13
330
12
  0
DICTIONARY
  5
14
330
A
100
AcDbDictionary
281
1
  0
DICTIONARY
  5
15
330
A
100
AcDbDictionary
281
1
  0
DICTIONARY
  5
16
330
A
100
AcDbDictionary
281
1
  0
LAYOUT
  5
1A
330
D
100
AcDbPlotSettings
  1

  4
A3
  6

 40
7.5
 41
20.0
 42
7.5
 43
20.0
 44
420.0
 45
297.0
 46
0.0
 47
0.0
 48
0.0
 49
0.0
140
0.0
141
0.0
142
1.0
143
1.0
 70
1024
 72
1
 73
0
 74
5
  7

 75
16
 76
0
 77
2
 78
300
147
1.0
148
0.0
149
0.0
100
AcDbLayout
  1
Model
 70
1
 71
0
 10
0.0
 20
0.0
 11
420.0
 21
297.0
 12
0.0
 22
0.0
 32
0.0
 14
1e+20
 24
1e+20
 34
1e+20
 15
-1e+20
 25
-1e+20
 35
-1e+20
146
0.0
 13
0.0
 23
0.0
 33
0.0
 16
1.0
 26
0.0
 36
0.0
 17
0.0
 27
1.0
 37
0.0
 76
1
330
17
  0
LAYOUT
  5
1E
330
D
100
AcDbPlotSettings
  1

  4
A3
  6

 40
7.5
 41
20.0
 42
7.5
 43
20.0
 44
420.0
 45
297.0
 46
0.0
 47
0.0
 48
0.0
 49
0.0
140
0.0
141
0.0
142
1.0
143
1.0
 70
0
 72
1
 73
0
 74
5
  7

 75
16
 76
0
 77
2
 78
300
147
1.0
148
0.0
149
0.0
100
AcDbLayout
  1
Layout1
 70
1
 71
1
 10
0.0
 20
0.0
 11
420.0
 21
297.0
 12
0.0
 22
0.0
 32
0.0
 14
1e+20
 24
1e+20
 34
1e+20
 15
-1e+20
 25
-1e+20
 35
-1e+20
146
0.0
 13
0.0
 23
0.0
 33
0.0
 16
1.0
 26
0.0
 36
0.0
 17
0.0
 27
1.0
 37
0.0
 76
1
330
1B
  0
MATERIAL
  5
1F
102
{ACAD_REACTORS
330
E
102
}
330
E
100
AcDbMaterial
  1
ByBlock
  2

 70
0
 40
1.0
 71
1
 41
1.0
 91
-1023410177
 42
1.0
 72
1
  3

 73
1
 74
1
 75
1
 44
0.5
 73
0
 45
1.0
 46
1.0
 77
1
  4

 78
1
 79
1
170
1
 48
1.0
171
1
  6

172
1
173
1
174
1
140
1.0
141
1.0
175
1
  7

176
1
177
1
178
1
143
1.0
179
1
  8

270
1
271
1
272
1
145
1.0
146
1.0
273
1
  9

274
1
275
1
276
1
 42
1.0
 72
1
  3

 73
1
 74
1
 75
1
 94
63
  0
MATERIAL
  5
20
102
{ACAD_REACTORS
330
E
102
}
330
E
100
AcDbMaterial
  1
ByLayer
  2

 70
0
 40
1.0
 71
1
 41
1.0
 91
-1023410177
 42
1.0
 72
1
  3

 73
1
 74
1
 75
1
 44
0.5
 73
0
 45
1.0
 46
1.0
 77
1
  4

 78
1
 79
1
170
1
 48
1.0
171
1
  6

172
1
173
1
174
1
140
1.0
141
1.0
175
1
  7

176
1
177
1
178
1
143
1.0
179
1
  8

270
1
271
1
272
1
145
1.0
146
1.0
273
1
  9

274
1
275
1
276
1
 42
1.0
 72
1
  3

 73
1
 74
1
 75
1
 94
63
  0
MATERIAL
  5
21
102
{ACAD_REACTORS
330
E
102
}
330
E
100
AcDbMaterial
  1
Global
  2

 70
0
 40
1.0
 71
1
 41
1.0
 91
-1023410177
 42
1.0
 72
1
  3

 73
1
 74
1
 75
1
 44
0.5
 73
0
 45
1.0
 46
1.0
 77
1
  4

 78
1
 79
1
170
1
 48
1.0
171
1
  6

172
1
173
1
174
1
140
1.0
141
1.0
175
1
  7

176
1
177
1
178
1
143
1.0
179
1
  8

270
1
271
1
272
1
145
1.0
146
1.0
273
1
  9

274
1
275
1
276
1
 42
1.0
 72
1
  3

 73
1
 74
1
 75
1
 94
63
  0
MLINESTYLE
  5
22
102
{ACAD_REACTORS
330
10
102
}
330
10
100
AcDbMlineStyle
  2
Standard
 70
0
  3

 62
256
 51
90.0
 52
90.0
 71
2
 49
0.5
 62
256
  6
BYLAYER
 49
-0.5
 62
256
  6
BYLAYER
  0
MLEADERSTYLE
  5
2C
102
{ACAD_REACTORS
330
F
102
}
330
F
100
AcDbMLeaderStyle
179
2
170
2
171
1
172
0
 90
2
 40
0.0
 41
0.0
173
1
 91
-1056964608
 92
-2
290
1
 42
2.0
291
1
 43
8.0
  3
Standard
 44
4.0
300

342
29
174
1
175
1
176
0
178
1
 93
-1056964608
 45
4.0
292
0
297
0
 46
4.0
 94
-1056964608
 47
1.0
 49
1.0
140
1.0
294
1
141
0.0
177
0
142
1.0
295
0
296
0
143
3.75
271
0
272
9
273
9
  0
DICTIONARY
  5
2D
330
A
100
AcDbDictionary
280
1
281
1
  3
CREATED_BY_EZDXF
350
2E
  3
WRITTEN_BY_EZDXF
350
171
  0
DICTIONARYVAR
  5
2E
330
2D
100
DictionaryVariables
280
0
  1
1.4.4 @ 2026-09-10T11:10:42.223041+00:00
  0
DICTIONARYVAR
  5
171
330
2D
100
DictionaryVariables
280
0
  1
1.4.4 @ 2026-09-10T11:10:42.272697+00:00
  0
ENDSEC
  0
EOF
