<svg xmlns="http://www.w3.org/2000/svg" width="420mm" height="297mm" viewBox="0 0 420 297" font-family="Microsoft YaHei, SimHei, sans-serif">
<rect x="5" y="5" width="410" height="287" fill="none" stroke="black" stroke-width="0.8"/>
<rect x="25" y="10" width="385" height="277" fill="none" stroke="black" stroke-width="0.5"/>
<rect x="230" y="247" width="180" height="40" fill="white" stroke="black" stroke-width="0.5"/>
<line x1="280" y1="247" x2="280" y2="287" stroke="black" stroke-width="0.4"/>
<line x1="320" y1="247" x2="320" y2="287" stroke="black" stroke-width="0.4"/>
<line x1="370" y1="247" x2="370" y2="287" stroke="black" stroke-width="0.4"/>
<line x1="230" y1="263" x2="410" y2="263" stroke="black" stroke-width="0.4"/>
<line x1="230" y1="273" x2="410" y2="273" stroke="black" stroke-width="0.4"/>
<text x="234" y="255" font-size="2.8" text-anchor="start">图名</text>
<text x="284" y="255" font-size="2.8" text-anchor="start">系统电气主接线图（拉萨）</text>
<text x="234" y="267" font-size="2.8" text-anchor="start">图号</text>
<text x="284" y="267" font-size="2.8" text-anchor="start">T1-01</text>
<text x="234" y="279" font-size="2.8" text-anchor="start">比例</text>
<text x="284" y="279" font-size="2.8" text-anchor="start">无比例</text>
<text x="324" y="255" font-size="2.8" text-anchor="start">姓名</text>
<text x="324" y="267" font-size="2.8" text-anchor="start">学号</text>
<text x="324" y="279" font-size="2.8" text-anchor="start">版本</text>
<text x="334" y="255" font-size="2.8" text-anchor="start">____</text>
<text x="334" y="267" font-size="2.8" text-anchor="start">____</text>
<text x="334" y="279" font-size="2.8" text-anchor="start">A</text>
<text x="374" y="255" font-size="2.8" text-anchor="start">日期</text>
<text x="374" y="267" font-size="2.6" text-anchor="start">2026-09-07</text>
<text x="374" y="279" font-size="2.8" text-anchor="start">单位</text>
<text x="384" y="279" font-size="2.6" text-anchor="start">哈工大（深圳）</text>
<rect x="39.5" y="34.75" width="13" height="6.5" fill="white" stroke="black" stroke-width="0.5"/>
<line x1="41.0" y1="39.75" x2="51.0" y2="36.25" stroke="black" stroke-width="0.4"/>
<polygon points="48.5,36.25 51.0,36.25 51.0,38.75" fill="black"/>
<line x1="52.5" y1="38" x2="53.5" y2="38" stroke="black" stroke-width="0.5"/>
<rect x="56.5" y="34.75" width="13" height="6.5" fill="white" stroke="black" stroke-width="0.5"/>
<line x1="58.0" y1="39.75" x2="68.0" y2="36.25" stroke="black" stroke-width="0.4"/>
<polygon points="65.5,36.25 68.0,36.25 68.0,38.75" fill="black"/>
<line x1="69.5" y1="38" x2="70.5" y2="38" stroke="black" stroke-width="0.5"/>
<rect x="73.5" y="34.75" width="13" height="6.5" fill="white" stroke="black" stroke-width="0.5"/>
<line x1="75.0" y1="39.75" x2="85.0" y2="36.25" stroke="black" stroke-width="0.4"/>
<polygon points="82.5,36.25 85.0,36.25 85.0,38.75" fill="black"/>
<line x1="86.5" y1="38" x2="87.5" y2="38" stroke="black" stroke-width="0.5"/>
<rect x="90.5" y="34.75" width="13" height="6.5" fill="white" stroke="black" stroke-width="0.5"/>
<line x1="92.0" y1="39.75" x2="102.0" y2="36.25" stroke="black" stroke-width="0.4"/>
<polygon points="99.5,36.25 102.0,36.25 102.0,38.75" fill="black"/>
<line x1="103.5" y1="38" x2="104.5" y2="38" stroke="black" stroke-width="0.5"/>
<rect x="107.5" y="34.75" width="13" height="6.5" fill="white" stroke="black" stroke-width="0.5"/>
<line x1="109.0" y1="39.75" x2="119.0" y2="36.25" stroke="black" stroke-width="0.4"/>
<polygon points="116.5,36.25 119.0,36.25 119.0,38.75" fill="black"/>
<text x="72" y="27" font-size="2.8" text-anchor="middle" fill="black">光伏组件 隆基 LR7-72HGD-600M ×5（5 串×1 并）</text>
<text x="72" y="51" font-size="2.5" text-anchor="middle" fill="black">Voc,cold 286.1V  Isc 14.49A  Imp 13.6A</text>
<line x1="120.5" y1="38" x2="126.5" y2="38" stroke="black" stroke-width="0.5"/>
<rect x="126.9" y="36.2" width="5.2" height="3.6" fill="white" stroke="black" stroke-width="0.5"/>
<line x1="123.5" y1="38" x2="126.9" y2="38" stroke="black" stroke-width="0.5"/>
<line x1="132.1" y1="38" x2="135.5" y2="38" stroke="black" stroke-width="0.5"/>
<text x="129.5" y="31.5" font-size="2.3" text-anchor="middle" fill="black">F1 25A gPV</text>
<line x1="135.5" y1="38" x2="132.5" y2="38" stroke="black" stroke-width="0.5"/>
<line x1="132.5" y1="38" x2="138.0" y2="38" stroke="black" stroke-width="0.5"/>
<line x1="139.0" y1="38" x2="144.5" y2="38" stroke="black" stroke-width="0.5"/>
<line x1="138.0" y1="38" x2="140.7" y2="34.8" stroke="black" stroke-width="0.6"/>
<circle cx="140.7" cy="34.8" r="0.9" fill="white" stroke="black" stroke-width="0.4"/>
<text x="138.5" y="30.5" font-size="2.3" text-anchor="middle" fill="black">QS1 直流隔离</text>
<line x1="144.5" y1="38" x2="142.5" y2="38" stroke="black" stroke-width="0.5"/>
<rect x="145.7" y="35.6" width="5.6" height="4.8" fill="white" stroke="black" stroke-width="0.5"/>
<line x1="142.5" y1="38" x2="145.7" y2="38" stroke="black" stroke-width="0.5"/>
<line x1="151.3" y1="38" x2="154.5" y2="38" stroke="black" stroke-width="0.5"/>
<line x1="148.5" y1="40.4" x2="148.5" y2="44.5" stroke="black" stroke-width="0.5"/>
<polygon points="147.0,44.5 150.0,44.5 148.5,46.8" fill="black"/>
<line x1="148.5" y1="46.8" x2="148.5" y2="49.8" stroke="black" stroke-width="0.5"/>
<line x1="145.1" y1="49.8" x2="151.9" y2="49.8" stroke="black" stroke-width="0.5"/>
<line x1="146.3" y1="51.8" x2="150.7" y2="51.8" stroke="black" stroke-width="0.5"/>
<line x1="147.5" y1="53.8" x2="149.5" y2="53.8" stroke="black" stroke-width="0.5"/>
<text x="148.5" y="31" font-size="2.3" text-anchor="middle" fill="black">SPD1 直流TypeII</text>
<line x1="154.5" y1="38" x2="158.5" y2="38" stroke="black" stroke-width="0.5"/>
<rect x="158.5" y="22" width="62" height="32" fill="white" stroke="black" stroke-width="0.5"/>
<text x="189.5" y="29" font-size="2.8" text-anchor="middle" fill="black">Growatt SPF 5000 ES</text>
<text x="189.5" y="35" font-size="2.8" text-anchor="middle" fill="black">MPPT + 离网逆变一体机</text>
<text x="189.5" y="41" font-size="2.8" text-anchor="middle" fill="black">5kW / 10kVA / η93%</text>
<text x="189.5" y="47" font-size="2.8" text-anchor="middle" fill="black">MPPT 120~430V 输入≤450V</text>
<text x="189.5" y="19" font-size="2.4" text-anchor="middle" fill="black">PV1-F 4mm²  L=15m</text>
<text x="40" y="116" font-size="2.8" text-anchor="start" fill="black">蓄电池 5×Benhoo BNP-5120BM（48V 级 / 100Ah / 5.12kWh）</text>
<line x1="40" y1="140" x2="40" y2="144" stroke="black" stroke-width="0.5"/>
<rect x="37.4" y="145.2" width="5.2" height="3.6" fill="white" stroke="black" stroke-width="0.5"/>
<line x1="34" y1="147" x2="37.4" y2="147" stroke="black" stroke-width="0.5"/>
<line x1="42.6" y1="147" x2="46" y2="147" stroke="black" stroke-width="0.5"/>
<text x="40" y="151.5" font-size="2.2" text-anchor="middle" fill="black">F2 100A</text>
<rect x="31" y="155" width="18" height="14" fill="white" stroke="black" stroke-width="0.5"/>
<text x="40" y="161" font-size="2.6" text-anchor="middle" fill="black" font-weight="bold">B1</text>
<text x="40" y="166" font-size="2.0" text-anchor="middle" fill="black">BMS</text>
<line x1="62" y1="140" x2="62" y2="144" stroke="black" stroke-width="0.5"/>
<rect x="59.4" y="145.2" width="5.2" height="3.6" fill="white" stroke="black" stroke-width="0.5"/>
<line x1="56" y1="147" x2="59.4" y2="147" stroke="black" stroke-width="0.5"/>
<line x1="64.6" y1="147" x2="68" y2="147" stroke="black" stroke-width="0.5"/>
<text x="62" y="151.5" font-size="2.2" text-anchor="middle" fill="black">F3 100A</text>
<rect x="53" y="155" width="18" height="14" fill="white" stroke="black" stroke-width="0.5"/>
<text x="62" y="161" font-size="2.6" text-anchor="middle" fill="black" font-weight="bold">B2</text>
<text x="62" y="166" font-size="2.0" text-anchor="middle" fill="black">BMS</text>
<line x1="84" y1="140" x2="84" y2="144" stroke="black" stroke-width="0.5"/>
<rect x="81.4" y="145.2" width="5.2" height="3.6" fill="white" stroke="black" stroke-width="0.5"/>
<line x1="78" y1="147" x2="81.4" y2="147" stroke="black" stroke-width="0.5"/>
<line x1="86.6" y1="147" x2="90" y2="147" stroke="black" stroke-width="0.5"/>
<text x="84" y="151.5" font-size="2.2" text-anchor="middle" fill="black">F4 100A</text>
<rect x="75" y="155" width="18" height="14" fill="white" stroke="black" stroke-width="0.5"/>
<text x="84" y="161" font-size="2.6" text-anchor="middle" fill="black" font-weight="bold">B3</text>
<text x="84" y="166" font-size="2.0" text-anchor="middle" fill="black">BMS</text>
<line x1="106" y1="140" x2="106" y2="144" stroke="black" stroke-width="0.5"/>
<rect x="103.4" y="145.2" width="5.2" height="3.6" fill="white" stroke="black" stroke-width="0.5"/>
<line x1="100" y1="147" x2="103.4" y2="147" stroke="black" stroke-width="0.5"/>
<line x1="108.6" y1="147" x2="112" y2="147" stroke="black" stroke-width="0.5"/>
<text x="106" y="151.5" font-size="2.2" text-anchor="middle" fill="black">F5 100A</text>
<rect x="97" y="155" width="18" height="14" fill="white" stroke="black" stroke-width="0.5"/>
<text x="106" y="161" font-size="2.6" text-anchor="middle" fill="black" font-weight="bold">B4</text>
<text x="106" y="166" font-size="2.0" text-anchor="middle" fill="black">BMS</text>
<line x1="128" y1="140" x2="128" y2="144" stroke="black" stroke-width="0.5"/>
<rect x="125.4" y="145.2" width="5.2" height="3.6" fill="white" stroke="black" stroke-width="0.5"/>
<line x1="122" y1="147" x2="125.4" y2="147" stroke="black" stroke-width="0.5"/>
<line x1="130.6" y1="147" x2="134" y2="147" stroke="black" stroke-width="0.5"/>
<text x="128" y="151.5" font-size="2.2" text-anchor="middle" fill="black">F6 100A</text>
<rect x="119" y="155" width="18" height="14" fill="white" stroke="black" stroke-width="0.5"/>
<text x="128" y="161" font-size="2.6" text-anchor="middle" fill="black" font-weight="bold">B5</text>
<text x="128" y="166" font-size="2.0" text-anchor="middle" fill="black">BMS</text>
<line x1="37" y1="140" x2="131" y2="140" stroke="black" stroke-width="0.6"/>
<text x="80" y="135" font-size="2.2" text-anchor="start" fill="black">正母线（等长等截面）</text>
<line x1="131" y1="140" x2="131" y2="140" stroke="black" stroke-width="0.5"/>
<line x1="133" y1="140" x2="137.8" y2="140" stroke="black" stroke-width="0.5"/>
<line x1="140.2" y1="140" x2="145" y2="140" stroke="black" stroke-width="0.5"/>
<line x1="137.8" y1="140" x2="137.8" y2="137.6" stroke="black" stroke-width="0.5"/>
<line x1="140.2" y1="140" x2="140.2" y2="137.6" stroke="black" stroke-width="0.5"/>
<line x1="137.8" y1="137.6" x2="140.2" y2="137.6" stroke="black" stroke-width="0.6"/>
<circle cx="139" cy="138.8" r="0.9" fill="white" stroke="black" stroke-width="0.4"/>
<text x="139" y="134" font-size="2.3" text-anchor="middle" fill="black">QF1 160A DC MCB</text>
<polyline points="145,140 161,140 161,54 214.5,54" fill="none" stroke="black" stroke-width="0.5"/>
<text x="161" y="144" font-size="2.3" text-anchor="middle" fill="black">RV 70mm² L=2m  45V/119.5A</text>
<polyline points="166.5,54 166.5,140 37,140" fill="none" stroke="black" stroke-width="0.5"/>
<line x1="160.5" y1="97.0" x2="165.3" y2="97.0" stroke="black" stroke-width="0.5"/>
<line x1="167.7" y1="97.0" x2="172.5" y2="97.0" stroke="black" stroke-width="0.5"/>
<line x1="165.3" y1="97.0" x2="165.3" y2="94.6" stroke="black" stroke-width="0.5"/>
<line x1="167.7" y1="97.0" x2="167.7" y2="94.6" stroke="black" stroke-width="0.5"/>
<line x1="165.3" y1="94.6" x2="167.7" y2="94.6" stroke="black" stroke-width="0.6"/>
<circle cx="166.5" cy="95.8" r="0.9" fill="white" stroke="black" stroke-width="0.4"/>
<text x="170.5" y="100.0" font-size="2.2" text-anchor="start" fill="black">63A（充电回路）</text>
<line x1="220.5" y1="38" x2="226.5" y2="38" stroke="black" stroke-width="0.5"/>
<line x1="223.5" y1="38" x2="228.3" y2="38" stroke="black" stroke-width="0.5"/>
<line x1="230.7" y1="38" x2="235.5" y2="38" stroke="black" stroke-width="0.5"/>
<line x1="228.3" y1="38" x2="228.3" y2="35.6" stroke="black" stroke-width="0.5"/>
<line x1="230.7" y1="38" x2="230.7" y2="35.6" stroke="black" stroke-width="0.5"/>
<line x1="228.3" y1="35.6" x2="230.7" y2="35.6" stroke="black" stroke-width="0.6"/>
<circle cx="229.5" cy="36.8" r="0.9" fill="white" stroke="black" stroke-width="0.4"/>
<text x="229.5" y="31.5" font-size="2.3" text-anchor="middle" fill="black">QF2 32A C型</text>
<line x1="235.5" y1="38" x2="232.5" y2="38" stroke="black" stroke-width="0.5"/>
<rect x="235.5" y="34.6" width="6" height="6.8" fill="white" stroke="black" stroke-width="0.5"/>
<line x1="232.5" y1="38" x2="235.5" y2="38" stroke="black" stroke-width="0.5"/>
<line x1="241.5" y1="38" x2="244.5" y2="38" stroke="black" stroke-width="0.5"/>
<text x="238.5" y="31.5" font-size="2.3" text-anchor="middle" fill="black">RCD 30mA</text>
<line x1="244.5" y1="38" x2="242.5" y2="38" stroke="black" stroke-width="0.5"/>
<rect x="245.7" y="35.6" width="5.6" height="4.8" fill="white" stroke="black" stroke-width="0.5"/>
<line x1="242.5" y1="38" x2="245.7" y2="38" stroke="black" stroke-width="0.5"/>
<line x1="251.3" y1="38" x2="254.5" y2="38" stroke="black" stroke-width="0.5"/>
<line x1="248.5" y1="40.4" x2="248.5" y2="44.5" stroke="black" stroke-width="0.5"/>
<polygon points="247.0,44.5 250.0,44.5 248.5,46.8" fill="black"/>
<line x1="248.5" y1="46.8" x2="248.5" y2="49.8" stroke="black" stroke-width="0.5"/>
<line x1="245.1" y1="49.8" x2="251.9" y2="49.8" stroke="black" stroke-width="0.5"/>
<line x1="246.3" y1="51.8" x2="250.7" y2="51.8" stroke="black" stroke-width="0.5"/>
<line x1="247.5" y1="53.8" x2="249.5" y2="53.8" stroke="black" stroke-width="0.5"/>
<text x="248.5" y="31" font-size="2.3" text-anchor="middle" fill="black">SPD2 交流TypeII</text>
<line x1="254.5" y1="38" x2="258.5" y2="38" stroke="black" stroke-width="0.5"/>
<rect x="258.5" y="28" width="24" height="20" fill="white" stroke="black" stroke-width="0.5"/>
<text x="270.5" y="36" font-size="2.4" text-anchor="middle" fill="black" font-weight="bold">交流配电箱</text>
<text x="270.5" y="42" font-size="2.6" text-anchor="middle" fill="black">DB</text>
<text x="270.5" y="25" font-size="2.2" text-anchor="middle" fill="black">RVV 6mm² L=5m  20.9A</text>
<line x1="282.5" y1="33.0" x2="286.5" y2="33.0" stroke="black" stroke-width="0.5"/>
<line x1="283.5" y1="33.0" x2="288.3" y2="33.0" stroke="black" stroke-width="0.5"/>
<line x1="290.7" y1="33.0" x2="295.5" y2="33.0" stroke="black" stroke-width="0.5"/>
<line x1="288.3" y1="33.0" x2="288.3" y2="30.6" stroke="black" stroke-width="0.5"/>
<line x1="290.7" y1="33.0" x2="290.7" y2="30.6" stroke="black" stroke-width="0.5"/>
<line x1="288.3" y1="30.6" x2="290.7" y2="30.6" stroke="black" stroke-width="0.6"/>
<circle cx="289.5" cy="31.8" r="0.9" fill="white" stroke="black" stroke-width="0.4"/>
<line x1="295.5" y1="33.0" x2="296.5" y2="33.0" stroke="black" stroke-width="0.5"/>
<circle cx="298.5" cy="33.0" r="3.4" fill="white" stroke="black" stroke-width="0.4"/>
<text x="302.5" y="34.2" font-size="2.2" text-anchor="start" fill="black">照明 10A  BV 2.5mm²</text>
<line x1="282.5" y1="37.6" x2="286.5" y2="37.6" stroke="black" stroke-width="0.5"/>
<line x1="283.5" y1="37.6" x2="288.3" y2="37.6" stroke="black" stroke-width="0.5"/>
<line x1="290.7" y1="37.6" x2="295.5" y2="37.6" stroke="black" stroke-width="0.5"/>
<line x1="288.3" y1="37.6" x2="288.3" y2="35.2" stroke="black" stroke-width="0.5"/>
<line x1="290.7" y1="37.6" x2="290.7" y2="35.2" stroke="black" stroke-width="0.5"/>
<line x1="288.3" y1="35.2" x2="290.7" y2="35.2" stroke="black" stroke-width="0.6"/>
<circle cx="289.5" cy="36.4" r="0.9" fill="white" stroke="black" stroke-width="0.4"/>
<line x1="295.5" y1="37.6" x2="296.5" y2="37.6" stroke="black" stroke-width="0.5"/>
<circle cx="298.5" cy="37.6" r="3.4" fill="white" stroke="black" stroke-width="0.4"/>
<text x="302.5" y="38.800000000000004" font-size="2.2" text-anchor="start" fill="black">厨房 20A  BV 4.0mm²</text>
<line x1="282.5" y1="42.2" x2="286.5" y2="42.2" stroke="black" stroke-width="0.5"/>
<line x1="283.5" y1="42.2" x2="288.3" y2="42.2" stroke="black" stroke-width="0.5"/>
<line x1="290.7" y1="42.2" x2="295.5" y2="42.2" stroke="black" stroke-width="0.5"/>
<line x1="288.3" y1="42.2" x2="288.3" y2="39.800000000000004" stroke="black" stroke-width="0.5"/>
<line x1="290.7" y1="42.2" x2="290.7" y2="39.800000000000004" stroke="black" stroke-width="0.5"/>
<line x1="288.3" y1="39.800000000000004" x2="290.7" y2="39.800000000000004" stroke="black" stroke-width="0.6"/>
<circle cx="289.5" cy="41.0" r="0.9" fill="white" stroke="black" stroke-width="0.4"/>
<line x1="295.5" y1="42.2" x2="296.5" y2="42.2" stroke="black" stroke-width="0.5"/>
<circle cx="298.5" cy="42.2" r="3.4" fill="white" stroke="black" stroke-width="0.4"/>
<text x="302.5" y="43.400000000000006" font-size="2.2" text-anchor="start" fill="black">采暖 10A  BV 2.5mm²</text>
<line x1="282.5" y1="46.8" x2="286.5" y2="46.8" stroke="black" stroke-width="0.5"/>
<line x1="283.5" y1="46.8" x2="288.3" y2="46.8" stroke="black" stroke-width="0.5"/>
<line x1="290.7" y1="46.8" x2="295.5" y2="46.8" stroke="black" stroke-width="0.5"/>
<line x1="288.3" y1="46.8" x2="288.3" y2="44.4" stroke="black" stroke-width="0.5"/>
<line x1="290.7" y1="46.8" x2="290.7" y2="44.4" stroke="black" stroke-width="0.5"/>
<line x1="288.3" y1="44.4" x2="290.7" y2="44.4" stroke="black" stroke-width="0.6"/>
<circle cx="289.5" cy="45.599999999999994" r="0.9" fill="white" stroke="black" stroke-width="0.4"/>
<line x1="295.5" y1="46.8" x2="296.5" y2="46.8" stroke="black" stroke-width="0.5"/>
<circle cx="298.5" cy="46.8" r="3.4" fill="white" stroke="black" stroke-width="0.4"/>
<text x="302.5" y="48.0" font-size="2.2" text-anchor="start" fill="black">其他 16A  BV 2.5mm²</text>
<text x="30" y="205" font-size="2.4" text-anchor="start" fill="black">保护接地（PE）：组件边框、支架、设备外壳；等电位联结（≥6mm²）；接地电阻≤4Ω</text>
<text x="30" y="210" font-size="2.4" text-anchor="start" fill="black">拉萨差异化：少雷区两级 SPD；高海拔 3650m 逆变器降额校核；设备间保温≥10℃</text>
<text x="30" y="219" font-size="2.6" text-anchor="start" fill="black" font-weight="bold">图例：</text>
<rect x="35.5" y="218.75" width="13" height="6.5" fill="white" stroke="black" stroke-width="0.5"/>
<line x1="37.0" y1="223.75" x2="47.0" y2="220.25" stroke="black" stroke-width="0.4"/>
<polygon points="44.5,220.25 47.0,220.25 47.0,222.75" fill="black"/>
<text x="50" y="223.5" font-size="2.3" text-anchor="start" fill="black">光伏组件</text>
<line x1="86" y1="219.0" x2="86" y2="225.0" stroke="black" stroke-width="0.7"/>
<line x1="89.2" y1="218.0" x2="89.2" y2="226.0" stroke="black" stroke-width="0.4"/>
<text x="92" y="223.5" font-size="2.3" text-anchor="start" fill="black">蓄电池</text>
<rect x="113.4" y="220.2" width="5.2" height="3.6" fill="white" stroke="black" stroke-width="0.5"/>
<line x1="110" y1="222" x2="113.4" y2="222" stroke="black" stroke-width="0.5"/>
<line x1="118.6" y1="222" x2="122" y2="222" stroke="black" stroke-width="0.5"/>
<text x="124" y="223.5" font-size="2.3" text-anchor="start" fill="black">熔断器</text>
<line x1="140" y1="222" x2="144.8" y2="222" stroke="black" stroke-width="0.5"/>
<line x1="147.2" y1="222" x2="152" y2="222" stroke="black" stroke-width="0.5"/>
<line x1="144.8" y1="222" x2="144.8" y2="219.6" stroke="black" stroke-width="0.5"/>
<line x1="147.2" y1="222" x2="147.2" y2="219.6" stroke="black" stroke-width="0.5"/>
<line x1="144.8" y1="219.6" x2="147.2" y2="219.6" stroke="black" stroke-width="0.6"/>
<circle cx="146" cy="220.8" r="0.9" fill="white" stroke="black" stroke-width="0.4"/>
<text x="154" y="223.5" font-size="2.3" text-anchor="start" fill="black">断路器/MCB</text>
<line x1="178" y1="222" x2="183.5" y2="222" stroke="black" stroke-width="0.5"/>
<line x1="184.5" y1="222" x2="190" y2="222" stroke="black" stroke-width="0.5"/>
<line x1="183.5" y1="222" x2="186.2" y2="218.8" stroke="black" stroke-width="0.6"/>
<circle cx="186.2" cy="218.8" r="0.9" fill="white" stroke="black" stroke-width="0.4"/>
<text x="192" y="223.5" font-size="2.3" text-anchor="start" fill="black">隔离开关</text>
<rect x="213.2" y="219.6" width="5.6" height="4.8" fill="white" stroke="black" stroke-width="0.5"/>
<line x1="210" y1="222" x2="213.2" y2="222" stroke="black" stroke-width="0.5"/>
<line x1="218.8" y1="222" x2="222" y2="222" stroke="black" stroke-width="0.5"/>
<line x1="216" y1="224.4" x2="216" y2="228.5" stroke="black" stroke-width="0.5"/>
<polygon points="214.5,228.5 217.5,228.5 216,230.8" fill="black"/>
<text x="224" y="223.5" font-size="2.3" text-anchor="start" fill="black">SPD</text>
<line x1="246" y1="224" x2="246" y2="227" stroke="black" stroke-width="0.5"/>
<line x1="242.6" y1="227" x2="249.4" y2="227" stroke="black" stroke-width="0.5"/>
<line x1="243.8" y1="229" x2="248.2" y2="229" stroke="black" stroke-width="0.5"/>
<line x1="245.0" y1="231" x2="247.0" y2="231" stroke="black" stroke-width="0.5"/>
<text x="252" y="223.5" font-size="2.3" text-anchor="start" fill="black">接地</text>
</svg>
