  0
SECTION
  2
HEADER
  9
$ACADVER
  1
AC1027
  9
$ACADMAINTVER
 70
105
  9
$DWGCODEPAGE
  3
ANSI_1252
  9
$LASTSAVEDBY
  1
ezdxf
  9
$REQUIREDVERSIONS
160
0
  9
$INSBASE
 10
0.0
 20
0.0
 30
0.0
  9
$EXTMIN
 10
1e+20
 20
1e+20
 30
1e+20
  9
$EXTMAX
 10
-1e+20
 20
-1e+20
 30
-1e+20
  9
$LIMMIN
 10
0.0
 20
0.0
  9
$LIMMAX
 10
420.0
 20
297.0
  9
$ORTHOMODE
 70
0
  9
$REGENMODE
 70
1
  9
$FILLMODE
 70
1
  9
$QTEXTMODE
 70
0
  9
$MIRRTEXT
 70
1
  9
$LTSCALE
 40
1.0
  9
$ATTMODE
 70
1
  9
$TEXTSIZE
 40
2.5
  9
$TRACEWID
 40
1.0
  9
$TEXTSTYLE
  7
Standard
  9
$CLAYER
  8
0
  9
$CELTYPE
  6
ByLayer
  9
$CECOLOR
 62
256
  9
$CELTSCALE
 40
1.0
  9
$DISPSILH
 70
0
  9
$DIMSCALE
 40
1.0
  9
$DIMASZ
 40
2.5
  9
$DIMEXO
 40
0.625
  9
$DIMDLI
 40
3.75
  9
$DIMRND
 40
0.0
  9
$DIMDLE
 40
0.0
  9
$DIMEXE
 40
1.25
  9
$DIMTP
 40
0.0
  9
$DIMTM
 40
0.0
  9
$DIMTXT
 40
2.5
  9
$DIMCEN
 40
2.5
  9
$DIMTSZ
 40
0.0
  9
$DIMTOL
 70
0
  9
$DIMLIM
 70
0
  9
$DIMTIH
 70
0
  9
$DIMTOH
 70
0
  9
$DIMSE1
 70
0
  9
$DIMSE2
 70
0
  9
$DIMTAD
 70
1
  9
$DIMZIN
 70
8
  9
$DIMBLK
  1

  9
$DIMASO
 70
1
  9
$DIMSHO
 70
1
  9
$DIMPOST
  1

  9
$DIMAPOST
  1

  9
$DIMALT
 70
0
  9
$DIMALTD
 70
3
  9
$DIMALTF
 40
0.03937007874
  9
$DIMLFAC
 40
1.0
  9
$DIMTOFL
 70
1
  9
$DIMTVP
 40
0.0
  9
$DIMTIX
 70
0
  9
$DIMSOXD
 70
0
  9
$DIMSAH
 70
0
  9
$DIMBLK1
  1

  9
$DIMBLK2
  1

  9
$DIMSTYLE
  2
ISO-25
  9
$DIMCLRD
 70
0
  9
$DIMCLRE
 70
0
  9
$DIMCLRT
 70
0
  9
$DIMTFAC
 40
1.0
  9
$DIMGAP
 40
0.625
  9
$DIMJUST
 70
0
  9
$DIMSD1
 70
0
  9
$DIMSD2
 70
0
  9
$DIMTOLJ
 70
0
  9
$DIMTZIN
 70
8
  9
$DIMALTZ
 70
0
  9
$DIMALTTZ
 70
0
  9
$DIMUPT
 70
0
  9
$DIMDEC
 70
2
  9
$DIMTDEC
 70
2
  9
$DIMALTU
 70
2
  9
$DIMALTTD
 70
3
  9
$DIMTXSTY
  7
Standard
  9
$DIMAUNIT
 70
0
  9
$DIMADEC
 70
0
  9
$DIMALTRND
 40
0.0
  9
$DIMAZIN
 70
0
  9
$DIMDSEP
 70
44
  9
$DIMATFIT
 70
3
  9
$DIMFRAC
 70
0
  9
$DIMLDRBLK
  1

  9
$DIMLUNIT
 70
2
  9
$DIMLWD
 70
-2
  9
$DIMLWE
 70
-2
  9
$DIMTMOVE
 70
0
  9
$DIMFXL
 40
1.0
  9
$DIMFXLON
 70
0
  9
$DIMJOGANG
 40
0.785398163397
  9
$DIMTFILL
 70
0
  9
$DIMTFILLCLR
 70
0
  9
$DIMARCSYM
 70
0
  9
$DIMLTYPE
  6

  9
$DIMLTEX1
  6

  9
$DIMLTEX2
  6

  9
$DIMTXTDIRECTION
 70
0
  9
$LUNITS
 70
2
  9
$LUPREC
 70
4
  9
$SKETCHINC
 40
1.0
  9
$FILLETRAD
 40
10.0
  9
$AUNITS
 70
0
  9
$AUPREC
 70
2
  9
$MENU
  1
.
  9
$ELEVATION
 40
0.0
  9
$PELEVATION
 40
0.0
  9
$THICKNESS
 40
0.0
  9
$LIMCHECK
 70
0
  9
$CHAMFERA
 40
0.0
  9
$CHAMFERB
 40
0.0
  9
$CHAMFERC
 40
0.0
  9
$CHAMFERD
 40
0.0
  9
$SKPOLY
 70
0
  9
$TDCREATE
 40
2461294.7288194443
  9
$TDUCREATE
 40
2458532.153996898
  9
$TDUPDATE
 40
2461294.7288194443
  9
$TDUUPDATE
 40
2458532.1544311
  9
$TDINDWG
 40
0.0
  9
$TDUSRTIMER
 40
0.0
  9
$USRTIMER
 70
1
  9
$ANGBASE
 50
0.0
  9
$ANGDIR
 70
0
  9
$PDMODE
 70
0
  9
$PDSIZE
 40
0.0
  9
$PLINEWID
 40
0.0
  9
$SPLFRAME
 70
0
  9
$SPLINETYPE
 70
6
  9
$SPLINESEGS
 70
8
  9
$HANDSEED
  5
1DA
  9
$SURFTAB1
 70
6
  9
$SURFTAB2
 70
6
  9
$SURFTYPE
 70
6
  9
$SURFU
 70
6
  9
$SURFV
 70
6
  9
$UCSBASE
  2

  9
$UCSNAME
  2

  9
$UCSORG
 10
0.0
 20
0.0
 30
0.0
  9
$UCSXDIR
 10
1.0
 20
0.0
 30
0.0
  9
$UCSYDIR
 10
0.0
 20
1.0
 30
0.0
  9
$UCSORTHOREF
  2

  9
$UCSORTHOVIEW
 70
0
  9
$UCSORGTOP
 10
0.0
 20
0.0
 30
0.0
  9
$UCSORGBOTTOM
 10
0.0
 20
0.0
 30
0.0
  9
$UCSORGLEFT
 10
0.0
 20
0.0
 30
0.0
  9
$UCSORGRIGHT
 10
0.0
 20
0.0
 30
0.0
  9
$UCSORGFRONT
 10
0.0
 20
0.0
 30
0.0
  9
$UCSORGBACK
 10
0.0
 20
0.0
 30
0.0
  9
$PUCSBASE
  2

  9
$PUCSNAME
  2

  9
$PUCSORG
 10
0.0
 20
0.0
 30
0.0
  9
$PUCSXDIR
 10
1.0
 20
0.0
 30
0.0
  9
$PUCSYDIR
 10
0.0
 20
1.0
 30
0.0
  9
$PUCSORTHOREF
  2

  9
$PUCSORTHOVIEW
 70
0
  9
$PUCSORGTOP
 10
0.0
 20
0.0
 30
0.0
  9
$PUCSORGBOTTOM
 10
0.0
 20
0.0
 30
0.0
  9
$PUCSORGLEFT
 10
0.0
 20
0.0
 30
0.0
  9
$PUCSORGRIGHT
 10
0.0
 20
0.0
 30
0.0
  9
$PUCSORGFRONT
 10
0.0
 20
0.0
 30
0.0
  9
$PUCSORGBACK
 10
0.0
 20
0.0
 30
0.0
  9
$USERI1
 70
0
  9
$USERI2
 70
0
  9
$USERI3
 70
0
  9
$USERI4
 70
0
  9
$USERI5
 70
0
  9
$USERR1
 40
0.0
  9
$USERR2
 40
0.0
  9
$USERR3
 40
0.0
  9
$USERR4
 40
0.0
  9
$USERR5
 40
0.0
  9
$WORLDVIEW
 70
1
  9
$SHADEDGE
 70
3
  9
$SHADEDIF
 70
70
  9
$TILEMODE
 70
1
  9
$MAXACTVP
 70
64
  9
$PINSBASE
 10
0.0
 20
0.0
 30
0.0
  9
$PLIMCHECK
 70
0
  9
$PEXTMIN
 10
1e+20
 20
1e+20
 30
1e+20
  9
$PEXTMAX
 10
-1e+20
 20
-1e+20
 30
-1e+20
  9
$PLIMMIN
 10
0.0
 20
0.0
  9
$PLIMMAX
 10
420.0
 20
297.0
  9
$UNITMODE
 70
0
  9
$VISRETAIN
 70
1
  9
$PLINEGEN
 70
0
  9
$PSLTSCALE
 70
1
  9
$TREEDEPTH
 70
3020
  9
$CMLSTYLE
  2
Standard
  9
$CMLJUST
 70
0
  9
$CMLSCALE
 40
20.0
  9
$PROXYGRAPHICS
 70
1
  9
$MEASUREMENT
 70
1
  9
$CELWEIGHT
370
-1
  9
$ENDCAPS
280
0
  9
$JOINSTYLE
280
0
  9
$LWDISPLAY
290
0
  9
$INSUNITS
 70
4
  9
$HYPERLINKBASE
  1

  9
$STYLESHEET
  1

  9
$XEDIT
290
1
  9
$CEPSNTYPE
380
0
  9
$PSTYLEMODE
290
1
  9
$FINGERPRINTGUID
  2
{7A732028-FDD8-4521-AFCF-1F2A8FFC7191}
  9
$VERSIONGUID
  2
{0B31668B-ABAA-4920-87F6-0124EB718ED3}
  9
$EXTNAMES
290
1
  9
$PSVPSCALE
 40
0.0
  9
$OLESTARTUP
290
0
  9
$SORTENTS
280
127
  9
$INDEXCTL
280
0
  9
$HIDETEXT
280
1
  9
$XCLIPFRAME
280
1
  9
$HALOGAP
280
0
  9
$OBSCOLOR
 70
257
  9
$OBSLTYPE
280
0
  9
$INTERSECTIONDISPLAY
280
0
  9
$INTERSECTIONCOLOR
 70
257
  9
$DIMASSOC
280
2
  9
$PROJECTNAME
  1

  9
$CAMERADISPLAY
290
0
  9
$LENSLENGTH
 40
50.0
  9
$CAMERAHEIGHT
 40
0.0
  9
$STEPSPERSEC
 40
24.0
  9
$STEPSIZE
 40
100.0
  9
$3DDWFPREC
 40
2.0
  9
$PSOLWIDTH
 40
0.005
  9
$PSOLHEIGHT
 40
0.08
  9
$LOFTANG1
 40
1.570796326795
  9
$LOFTANG2
 40
1.570796326795
  9
$LOFTMAG1
 40
0.0
  9
$LOFTMAG2
 40
0.0
  9
$LOFTPARAM
 70
7
  9
$LOFTNORMALS
280
1
  9
$LATITUDE
 40
37.795
  9
$LONGITUDE
 40
-122.394
  9
$NORTHDIRECTION
 40
0.0
  9
$TIMEZONE
 70
-8000
  9
$LIGHTGLYPHDISPLAY
280
1
  9
$TILEMODELIGHTSYNCH
280
1
  9
$CMATERIAL
347
20
  9
$SOLIDHIST
280
0
  9
$SHOWHIST
280
1
  9
$DWFFRAME
280
2
  9
$DGNFRAME
280
2
  9
$REALWORLDSCALE
290
1
  9
$INTERFERECOLOR
 62
256
  9
$CSHADOW
280
0
  9
$SHADOWPLANELOCATION
 40
0.0
  0
ENDSEC
  0
SECTION
  2
CLASSES
  0
CLASS
  1
ACDBDICTIONARYWDFLT
  2
AcDbDictionaryWithDefault
  3
ObjectDBX Classes
 90
0
 91
0
280
0
281
0
  0
CLASS
  1
SUN
  2
AcDbSun
  3
SCENEOE
 90
1153
 91
0
280
0
281
0
  0
CLASS
  1
VISUALSTYLE
  2
AcDbVisualStyle
  3
ObjectDBX Classes
 90
4095
 91
0
280
0
281
0
  0
CLASS
  1
MATERIAL
  2
AcDbMaterial
  3
ObjectDBX Classes
 90
1153
 91
0
280
0
281
0
  0
CLASS
  1
SCALE
  2
AcDbScale
  3
ObjectDBX Classes
 90
1153
 91
0
280
0
281
0
  0
CLASS
  1
TABLESTYLE
  2
AcDbTableStyle
  3
ObjectDBX Classes
 90
4095
 91
0
280
0
281
0
  0
CLASS
  1
MLEADERSTYLE
  2
AcDbMLeaderStyle
  3
ACDB_MLEADERSTYLE_CLASS
 90
4095
 91
0
280
0
281
0
  0
CLASS
  1
DICTIONARYVAR
  2
AcDbDictionaryVar
  3
ObjectDBX Classes
 90
0
 91
0
280
0
281
0
  0
CLASS
  1
CELLSTYLEMAP
  2
AcDbCellStyleMap
  3
ObjectDBX Classes
 90
1152
 91
0
280
0
281
0
  0
CLASS
  1
MENTALRAYRENDERSETTINGS
  2
AcDbMentalRayRenderSettings
  3
SCENEOE
 90
1024
 91
0
280
0
281
0
  0
CLASS
  1
ACDBDETAILVIEWSTYLE
  2
AcDbDetailViewStyle
  3
ObjectDBX Classes
 90
1025
 91
0
280
0
281
0
  0
CLASS
  1
ACDBSECTIONVIEWSTYLE
  2
AcDbSectionViewStyle
  3
ObjectDBX Classes
 90
1025
 91
0
280
0
281
0
  0
CLASS
  1
RASTERVARIABLES
  2
AcDbRasterVariables
  3
ISM
 90
0
 91
0
280
0
281
0
  0
CLASS
  1
LAYOUT
  2
AcDbLayout
  3
ObjectDBX Classes
 90
0
 91
0
280
0
281
0
  0
CLASS
  1
ACDBPLACEHOLDER
  2
AcDbPlaceHolder
  3
ObjectDBX Classes
 90
0
 91
0
280
0
281
0
  0
ENDSEC
  0
SECTION
  2
TABLES
  0
TABLE
  2
VPORT
  5
8
330
0
100
AcDbSymbolTable
 70
1
  0
VPORT
  5
1D6
330
8
100
AcDbSymbolTableRecord
100
AcDbViewportTableRecord
  2
*Active
 70
0
 10
0.0
 20
0.0
 11
1.0
 21
1.0
 12
210.0
 22
148.5
 13
0.0
 23
0.0
 14
0.5
 24
0.5
 15
0.5
 25
0.5
 16
0.0
 26
0.0
 36
1.0
 17
0.0
 27
0.0
 37
0.0
 40
297.0
 41
1.34
 42
50.0
 43
0.0
 44
0.0
 50
0.0
 51
0.0
 71
0
 72
1000
 73
1
 74
3
 75
0
 76
0
 77
0
 78
0
281
0
 65
1
110
0.0
120
0.0
130
0.0
111
1.0
121
0.0
131
0.0
112
0.0
122
1.0
132
0.0
 79
0
146
0.0
  0
ENDTAB
  0
TABLE
  2
LTYPE
  5
2
330
0
100
AcDbSymbolTable
 70
4
  0
LTYPE
  5
24
330
2
100
AcDbSymbolTableRecord
100
AcDbLinetypeTableRecord
  2
ByBlock
 70
0
  3

 72
65
 73
0
 40
0.0
  0
LTYPE
  5
25
330
2
100
AcDbSymbolTableRecord
100
AcDbLinetypeTableRecord
  2
ByLayer
 70
0
  3

 72
65
 73
0
 40
0.0
  0
LTYPE
  5
26
330
2
100
AcDbSymbolTableRecord
100
AcDbLinetypeTableRecord
  2
Continuous
 70
0
  3

 72
65
 73
0
 40
0.0
  0
LTYPE
  5
30
330
2
100
AcDbSymbolTableRecord
100
AcDbLinetypeTableRecord
  2
DRAW_DASH
 70
0
  3
Dashed routing / clearance
 72
65
 73
2
 40
2.6
 49
1.6
 74
0
 49
-1.0
 74
0
  0
ENDTAB
  0
TABLE
  2
LAYER
  5
1
330
0
100
AcDbSymbolTable
 70
15
  0
LAYER
  5
27
330
1
100
AcDbSymbolTableRecord
100
AcDbLayerTableRecord
  2
0
 70
0
 62
7
  6
Continuous
370
-3
390
13
347
21
  0
LAYER
  5
28
330
1
100
AcDbSymbolTableRecord
100
AcDbLayerTableRecord
  2
Defpoints
 70
0
 62
7
  6
Continuous
290
0
370
-3
390
13
347
21
  0
LAYER
  5
31
330
1
100
AcDbSymbolTableRecord
100
AcDbLayerTableRecord
  2
FRAME
 70
0
 62
7
420
2112330
  6
Continuous
370
25
390
13
347
21
  0
LAYER
  5
32
330
1
100
AcDbSymbolTableRecord
100
AcDbLayerTableRecord
  2
EQUIP
 70
0
 62
7
420
2112330
  6
Continuous
370
25
390
13
347
21
  0
LAYER
  5
33
330
1
100
AcDbSymbolTableRecord
100
AcDbLayerTableRecord
  2
PV
 70
0
 62
7
420
2456482
  6
Continuous
370
25
390
13
347
21
  0
LAYER
  5
34
330
1
100
AcDbSymbolTableRecord
100
AcDbLayerTableRecord
  2
POS
 70
0
 62
7
420
12075830
  6
Continuous
370
25
390
13
347
21
  0
LAYER
  5
35
330
1
100
AcDbSymbolTableRecord
100
AcDbLayerTableRecord
  2
NEG
 70
0
 62
7
420
2580640
  6
Continuous
370
25
390
13
347
21
  0
LAYER
  5
36
330
1
100
AcDbSymbolTableRecord
100
AcDbLayerTableRecord
  2
AC
 70
0
 62
7
420
8412707
  6
Continuous
370
25
390
13
347
21
  0
LAYER
  5
37
330
1
100
AcDbSymbolTableRecord
100
AcDbLayerTableRecord
  2
PE
 70
0
 62
7
420
3767121
  6
Continuous
370
25
390
13
347
21
  0
LAYER
  5
38
330
1
100
AcDbSymbolTableRecord
100
AcDbLayerTableRecord
  2
COMM
 70
0
 62
7
420
8938406
  6
Continuous
370
25
390
13
347
21
  0
LAYER
  5
39
330
1
100
AcDbSymbolTableRecord
100
AcDbLayerTableRecord
  2
DIM
 70
0
 62
7
420
6713978
  6
Continuous
370
25
390
13
347
21
  0
LAYER
  5
3A
330
1
100
AcDbSymbolTableRecord
100
AcDbLayerTableRecord
  2
NOTE
 70
0
 62
7
420
3426386
  6
Continuous
370
25
390
13
347
21
  0
LAYER
  5
3B
330
1
100
AcDbSymbolTableRecord
100
AcDbLayerTableRecord
  2
HOLD
 70
0
 62
7
420
11619633
  6
Continuous
370
25
390
13
347
21
  0
LAYER
  5
3C
330
1
100
AcDbSymbolTableRecord
100
AcDbLayerTableRecord
  2
CLEAR
 70
0
 62
7
420
8565410
  6
Continuous
370
25
390
13
347
21
  0
LAYER
  5
3D
330
1
100
AcDbSymbolTableRecord
100
AcDbLayerTableRecord
  2
STRUCT
 70
0
 62
7
420
6647417
  6
Continuous
370
25
390
13
347
21
  0
ENDTAB
  0
TABLE
  2
STYLE
  5
5
330
0
100
AcDbSymbolTable
 70
2
  0
STYLE
  5
29
330
5
100
AcDbSymbolTableRecord
100
AcDbTextStyleTableRecord
  2
Standard
 70
0
 40
0.0
 41
1.0
 50
0.0
 71
0
 42
2.5
  3
txt
  4

  0
STYLE
  5
2F
330
5
100
AcDbSymbolTableRecord
100
AcDbTextStyleTableRecord
  2
CN
 70
0
 40
0.0
 41
1.0
 50
0.0
 71
0
 42
2.5
  3
Arial Unicode.ttf
  4

  0
ENDTAB
  0
TABLE
  2
VIEW
  5
7
330
0
100
AcDbSymbolTable
 70
0
  0
ENDTAB
  0
TABLE
  2
UCS
  5
6
330
0
100
AcDbSymbolTable
 70
0
  0
ENDTAB
  0
TABLE
  2
APPID
  5
3
330
0
100
AcDbSymbolTable
 70
3
  0
APPID
  5
2A
330
3
100
AcDbSymbolTableRecord
100
AcDbRegAppTableRecord
  2
ACAD
 70
0
  0
APPID
  5
1D7
330
3
100
AcDbSymbolTableRecord
100
AcDbRegAppTableRecord
  2
HATCHBACKGROUNDCOLOR
 70
0
  0
APPID
  5
1D8
330
3
100
AcDbSymbolTableRecord
100
AcDbRegAppTableRecord
  2
EZDXF
 70
0
  0
ENDTAB
  0
TABLE
  2
DIMSTYLE
  5
4
330
0
100
AcDbSymbolTable
 70
1
100
AcDbDimStyleTable
  0
DIMSTYLE
105
2B
330
4
100
AcDbSymbolTableRecord
100
AcDbDimStyleTableRecord
  2
Standard
 70
0
 40
1.0
 41
2.5
 42
0.625
 43
3.75
 44
1.25
 45
0.0
 46
0.0
 47
0.0
 48
0.0
 49
2.5
140
2.5
141
2.5
142
0.0
143
0.03937007874
144
1.0
145
0.0
146
1.0
147
0.625
148
0.0
 69
0
 70
0
 71
0
 72
0
 73
0
 74
0
 75
0
 76
0
 77
1
 78
8
 79
3
170
0
171
3
172
1
173
0
174
0
175
0
176
0
177
0
178
0
179
2
271
2
272
2
273
2
274
3
275
0
276
0
277
2
278
44
279
0
280
0
281
0
282
0
283
0
284
8
285
0
286
0
288
0
289
3
290
0
371
-2
372
-2
  0
ENDTAB
  0
TABLE
  2
BLOCK_RECORD
  5
9
330
0
100
AcDbSymbolTable
 70
2
  0
BLOCK_RECORD
  5
17
330
9
100
AcDbSymbolTableRecord
100
AcDbBlockTableRecord
  2
*Model_Space
340
1A
 70
0
280
1
281
0
  0
BLOCK_RECORD
  5
1B
330
9
100
AcDbSymbolTableRecord
100
AcDbBlockTableRecord
  2
*Paper_Space
340
1E
 70
0
280
1
281
0
  0
ENDTAB
  0
ENDSEC
  0
SECTION
  2
BLOCKS
  0
BLOCK
  5
18
330
17
100
AcDbEntity
  8
0
100
AcDbBlockBegin
  2
*Model_Space
 70
0
 10
0.0
 20
0.0
 30
0.0
  3
*Model_Space
  1

  0
ENDBLK
  5
19
330
17
100
AcDbEntity
  8
0
100
AcDbBlockEnd
  0
BLOCK
  5
1C
330
1B
100
AcDbEntity
  8
0
100
AcDbBlockBegin
  2
*Paper_Space
 70
0
 10
0.0
 20
0.0
 30
0.0
  3
*Paper_Space
  1

  0
ENDBLK
  5
1D
330
1B
100
AcDbEntity
  8
0
100
AcDbBlockEnd
  0
ENDSEC
  0
SECTION
  2
ENTITIES
  0
LINE
  5
3E
330
17
100
AcDbEntity
  8
FRAME
  6
CONTINUOUS
370
25
100
AcDbLine
 10
10.0
 20
10.0
 30
0.0
 11
410.0
 21
10.0
 31
0.0
  0
LINE
  5
3F
330
17
100
AcDbEntity
  8
FRAME
  6
CONTINUOUS
370
25
100
AcDbLine
 10
410.0
 20
10.0
 30
0.0
 11
410.0
 21
287.0
 31
0.0
  0
LINE
  5
40
330
17
100
AcDbEntity
  8
FRAME
  6
CONTINUOUS
370
25
100
AcDbLine
 10
410.0
 20
287.0
 30
0.0
 11
10.0
 21
287.0
 31
0.0
  0
LINE
  5
41
330
17
100
AcDbEntity
  8
FRAME
  6
CONTINUOUS
370
25
100
AcDbLine
 10
10.0
 20
287.0
 30
0.0
 11
10.0
 21
10.0
 31
0.0
  0
LINE
  5
42
330
17
100
AcDbEntity
  8
FRAME
  6
CONTINUOUS
370
35
100
AcDbLine
 10
10.0
 20
39.0
 30
0.0
 11
410.0
 21
39.0
 31
0.0
  0
TEXT
  5
43
330
17
100
AcDbEntity
  8
FRAME
100
AcDbText
 10
16.0
 20
278.0
 30
0.0
 40
4.4
  1
兰州 · 户用离网光伏发电系统
  7
CN
 11
16.0
 21
278.0
 31
0.0
100
AcDbText
  0
TEXT
  5
44
330
17
100
AcDbEntity
  8
HOLD
100
AcDbText
 10
403.0
 20
279.0
 30
0.0
 40
3.0
  1
E-01  /  R0 课程设计初稿
  7
CN
 72
2
 11
403.0
 21
279.0
 31
0.0
100
AcDbText
  0
LINE
  5
45
330
17
100
AcDbEntity
  8
FRAME
  6
CONTINUOUS
370
25
100
AcDbLine
 10
15.0
 20
273.0
 30
0.0
 11
405.0
 21
273.0
 31
0.0
  0
TEXT
  5
46
330
17
100
AcDbEntity
  8
FRAME
100
AcDbText
 10
16.0
 20
31.0
 30
0.0
 40
4.2
  1
系统电气原理与接线图
  7
CN
 11
16.0
 21
31.0
 31
0.0
100
AcDbText
  0
TEXT
  5
47
330
17
100
AcDbEntity
  8
NOTE
100
AcDbText
 10
16.0
 20
23.0
 30
0.0
 40
2.8
  1
5.50 kWp / 30.72 kWh / 5 kW  |  图号、设备编号与计算稿对应
  7
CN
 11
16.0
 21
23.0
 31
0.0
100
AcDbText
  0
TEXT
  5
48
330
17
100
AcDbEntity
  8
HOLD
100
AcDbText
 10
16.0
 20
16.0
 30
0.0
 40
2.6
  1
用途：方案讨论与答辩。假设及待核事项见图内说明，非施工定稿。
  7
CN
 11
16.0
 21
16.0
 31
0.0
100
AcDbText
  0
LINE
  5
49
330
17
100
AcDbEntity
  8
FRAME
  6
CONTINUOUS
370
25
100
AcDbLine
 10
290.0
 20
10.0
 30
0.0
 11
290.0
 21
39.0
 31
0.0
  0
LINE
  5
4A
330
17
100
AcDbEntity
  8
FRAME
  6
CONTINUOUS
370
25
100
AcDbLine
 10
348.0
 20
10.0
 30
0.0
 11
348.0
 21
39.0
 31
0.0
  0
LINE
  5
4B
330
17
100
AcDbEntity
  8
FRAME
  6
CONTINUOUS
370
25
100
AcDbLine
 10
290.0
 20
24.0
 30
0.0
 11
410.0
 21
24.0
 31
0.0
  0
TEXT
  5
4C
330
17
100
AcDbEntity
  8
FRAME
100
AcDbText
 10
294.0
 20
31.0
 30
0.0
 40
3.6
  1
图号  E-01
  7
CN
 11
294.0
 21
31.0
 31
0.0
100
AcDbText
  0
TEXT
  5
4D
330
17
100
AcDbEntity
  8
HOLD
100
AcDbText
 10
352.0
 20
31.0
 30
0.0
 40
3.6
  1
版本  R0
  7
CN
 11
352.0
 21
31.0
 31
0.0
100
AcDbText
  0
TEXT
  5
4E
330
17
100
AcDbEntity
  8
NOTE
100
AcDbText
 10
294.0
 20
17.0
 30
0.0
 40
2.8
  1
比例 示意  / A3
  7
CN
 11
294.0
 21
17.0
 31
0.0
100
AcDbText
  0
TEXT
  5
4F
330
17
100
AcDbEntity
  8
NOTE
100
AcDbText
 10
352.0
 20
17.0
 30
0.0
 40
2.8
  1
2026-09-10
  7
CN
 11
352.0
 21
17.0
 31
0.0
100
AcDbText
  0
TEXT
  5
50
330
17
100
AcDbEntity
  8
NOTE
100
AcDbText
 10
17.0
 20
267.0
 30
0.0
 40
2.6
  1
表达：直流正负分线；交流支路为L+N单线；实心点为连接点，交叉无点不连接。
  7
CN
 11
17.0
 21
267.0
 31
0.0
100
AcDbText
  0
LINE
  5
51
330
17
100
AcDbEntity
  8
PV
  6
CONTINUOUS
370
25
100
AcDbLine
 10
20.0
 20
240.0
 30
0.0
 11
30.0
 21
240.0
 31
0.0
  0
LINE
  5
52
330
17
100
AcDbEntity
  8
PV
  6
CONTINUOUS
370
25
100
AcDbLine
 10
30.0
 20
240.0
 30
0.0
 11
30.0
 21
251.0
 31
0.0
  0
LINE
  5
53
330
17
100
AcDbEntity
  8
PV
  6
CONTINUOUS
370
25
100
AcDbLine
 10
30.0
 20
251.0
 30
0.0
 11
20.0
 21
251.0
 31
0.0
  0
LINE
  5
54
330
17
100
AcDbEntity
  8
PV
  6
CONTINUOUS
370
25
100
AcDbLine
 10
20.0
 20
251.0
 30
0.0
 11
20.0
 21
240.0
 31
0.0
  0
TEXT
  5
55
330
17
100
AcDbEntity
  8
PV
100
AcDbText
 10
25.0
 20
244.5
 30
0.0
 40
2.15
  1
PV01
  7
CN
 72
1
 11
25.0
 21
244.5
 31
0.0
100
AcDbText
  0
LINE
  5
56
330
17
100
AcDbEntity
  8
POS
  6
CONTINUOUS
370
25
100
AcDbLine
 10
30.0
 20
245.0
 30
0.0
 11
32.0
 21
245.0
 31
0.0
  0
LINE
  5
57
330
17
100
AcDbEntity
  8
PV
  6
CONTINUOUS
370
25
100
AcDbLine
 10
32.0
 20
240.0
 30
0.0
 11
42.0
 21
240.0
 31
0.0
  0
LINE
  5
58
330
17
100
AcDbEntity
  8
PV
  6
CONTINUOUS
370
25
100
AcDbLine
 10
42.0
 20
240.0
 30
0.0
 11
42.0
 21
251.0
 31
0.0
  0
LINE
  5
59
330
17
100
AcDbEntity
  8
PV
  6
CONTINUOUS
370
25
100
AcDbLine
 10
42.0
 20
251.0
 30
0.0
 11
32.0
 21
251.0
 31
0.0
  0
LINE
  5
5A
330
17
100
AcDbEntity
  8
PV
  6
CONTINUOUS
370
25
100
AcDbLine
 10
32.0
 20
251.0
 30
0.0
 11
32.0
 21
240.0
 31
0.0
  0
TEXT
  5
5B
330
17
100
AcDbEntity
  8
PV
100
AcDbText
 10
37.0
 20
244.5
 30
0.0
 40
2.15
  1
PV02
  7
CN
 72
1
 11
37.0
 21
244.5
 31
0.0
100
AcDbText
  0
LINE
  5
5C
330
17
100
AcDbEntity
  8
POS
  6
CONTINUOUS
370
25
100
AcDbLine
 10
42.0
 20
245.0
 30
0.0
 11
44.0
 21
245.0
 31
0.0
  0
LINE
  5
5D
330
17
100
AcDbEntity
  8
PV
  6
CONTINUOUS
370
25
100
AcDbLine
 10
44.0
 20
240.0
 30
0.0
 11
54.0
 21
240.0
 31
0.0
  0
LINE
  5
5E
330
17
100
AcDbEntity
  8
PV
  6
CONTINUOUS
370
25
100
AcDbLine
 10
54.0
 20
240.0
 30
0.0
 11
54.0
 21
251.0
 31
0.0
  0
LINE
  5
5F
330
17
100
AcDbEntity
  8
PV
  6
CONTINUOUS
370
25
100
AcDbLine
 10
54.0
 20
251.0
 30
0.0
 11
44.0
 21
251.0
 31
0.0
  0
LINE
  5
60
330
17
100
AcDbEntity
  8
PV
  6
CONTINUOUS
370
25
100
AcDbLine
 10
44.0
 20
251.0
 30
0.0
 11
44.0
 21
240.0
 31
0.0
  0
TEXT
  5
61
330
17
100
AcDbEntity
  8
PV
100
AcDbText
 10
49.0
 20
244.5
 30
0.0
 40
2.15
  1
PV03
  7
CN
 72
1
 11
49.0
 21
244.5
 31
0.0
100
AcDbText
  0
LINE
  5
62
330
17
100
AcDbEntity
  8
POS
  6
CONTINUOUS
370
25
100
AcDbLine
 10
54.0
 20
245.0
 30
0.0
 11
56.0
 21
245.0
 31
0.0
  0
LINE
  5
63
330
17
100
AcDbEntity
  8
PV
  6
CONTINUOUS
370
25
100
AcDbLine
 10
56.0
 20
240.0
 30
0.0
 11
66.0
 21
240.0
 31
0.0
  0
LINE
  5
64
330
17
100
AcDbEntity
  8
PV
  6
CONTINUOUS
370
25
100
AcDbLine
 10
66.0
 20
240.0
 30
0.0
 11
66.0
 21
251.0
 31
0.0
  0
LINE
  5
65
330
17
100
AcDbEntity
  8
PV
  6
CONTINUOUS
370
25
100
AcDbLine
 10
66.0
 20
251.0
 30
0.0
 11
56.0
 21
251.0
 31
0.0
  0
LINE
  5
66
330
17
100
AcDbEntity
  8
PV
  6
CONTINUOUS
370
25
100
AcDbLine
 10
56.0
 20
251.0
 30
0.0
 11
56.0
 21
240.0
 31
0.0
  0
TEXT
  5
67
330
17
100
AcDbEntity
  8
PV
100
AcDbText
 10
61.0
 20
244.5
 30
0.0
 40
2.15
  1
PV04
  7
CN
 72
1
 11
61.0
 21
244.5
 31
0.0
100
AcDbText
  0
LINE
  5
68
330
17
100
AcDbEntity
  8
POS
  6
CONTINUOUS
370
25
100
AcDbLine
 10
66.0
 20
245.0
 30
0.0
 11
68.0
 21
245.0
 31
0.0
  0
LINE
  5
69
330
17
100
AcDbEntity
  8
PV
  6
CONTINUOUS
370
25
100
AcDbLine
 10
68.0
 20
240.0
 30
0.0
 11
78.0
 21
240.0
 31
0.0
  0
LINE
  5
6A
330
17
100
AcDbEntity
  8
PV
  6
CONTINUOUS
370
25
100
AcDbLine
 10
78.0
 20
240.0
 30
0.0
 11
78.0
 21
251.0
 31
0.0
  0
LINE
  5
6B
330
17
100
AcDbEntity
  8
PV
  6
CONTINUOUS
370
25
100
AcDbLine
 10
78.0
 20
251.0
 30
0.0
 11
68.0
 21
251.0
 31
0.0
  0
LINE
  5
6C
330
17
100
AcDbEntity
  8
PV
  6
CONTINUOUS
370
25
100
AcDbLine
 10
68.0
 20
251.0
 30
0.0
 11
68.0
 21
240.0
 31
0.0
  0
TEXT
  5
6D
330
17
100
AcDbEntity
  8
PV
100
AcDbText
 10
73.0
 20
244.5
 30
0.0
 40
2.15
  1
PV05
  7
CN
 72
1
 11
73.0
 21
244.5
 31
0.0
100
AcDbText
  0
TEXT
  5
6E
330
17
100
AcDbEntity
  8
PV
100
AcDbText
 10
20.0
 20
255.0
 30
0.0
 40
2.7
  1
S1：5 × 550 W 串联
  7
CN
 11
20.0
 21
255.0
 31
0.0
100
AcDbText
  0
LINE
  5
6F
330
17
100
AcDbEntity
  8
POS
  6
CONTINUOUS
370
25
100
AcDbLine
 10
78.0
 20
245.0
 30
0.0
 11
91.0
 21
245.0
 31
0.0
  0
LINE
  5
70
330
17
100
AcDbEntity
  8
POS
  6
CONTINUOUS
370
25
100
AcDbLine
 10
91.0
 20
245.0
 30
0.0
 11
91.0
 21
247.0
 31
0.0
  0
LINE
  5
71
330
17
100
AcDbEntity
  8
POS
  6
CONTINUOUS
370
25
100
AcDbLine
 10
91.0
 20
247.0
 30
0.0
 11
94.0
 21
247.0
 31
0.0
  0
LINE
  5
72
330
17
100
AcDbEntity
  8
POS
  6
CONTINUOUS
370
25
100
AcDbLine
 10
106.0
 20
247.0
 30
0.0
 11
146.0
 21
247.0
 31
0.0
  0
LINE
  5
73
330
17
100
AcDbEntity
  8
NEG
  6
CONTINUOUS
370
25
100
AcDbLine
 10
20.0
 20
240.0
 30
0.0
 11
20.0
 21
236.0
 31
0.0
  0
LINE
  5
74
330
17
100
AcDbEntity
  8
NEG
  6
CONTINUOUS
370
25
100
AcDbLine
 10
20.0
 20
236.0
 30
0.0
 11
91.0
 21
236.0
 31
0.0
  0
LINE
  5
75
330
17
100
AcDbEntity
  8
NEG
  6
CONTINUOUS
370
25
100
AcDbLine
 10
91.0
 20
236.0
 30
0.0
 11
91.0
 21
243.0
 31
0.0
  0
LINE
  5
76
330
17
100
AcDbEntity
  8
NEG
  6
CONTINUOUS
370
25
100
AcDbLine
 10
91.0
 20
243.0
 30
0.0
 11
94.0
 21
243.0
 31
0.0
  0
LINE
  5
77
330
17
100
AcDbEntity
  8
NEG
  6
CONTINUOUS
370
25
100
AcDbLine
 10
106.0
 20
243.0
 30
0.0
 11
146.0
 21
243.0
 31
0.0
  0
LINE
  5
78
330
17
100
AcDbEntity
  8
EQUIP
  6
CONTINUOUS
370
25
100
AcDbLine
 10
94.0
 20
241.0
 30
0.0
 11
106.0
 21
241.0
 31
0.0
  0
LINE
  5
79
330
17
100
AcDbEntity
  8
EQUIP
  6
CONTINUOUS
370
25
100
AcDbLine
 10
106.0
 20
241.0
 30
0.0
 11
106.0
 21
250.0
 31
0.0
  0
LINE
  5
7A
330
17
100
AcDbEntity
  8
EQUIP
  6
CONTINUOUS
370
25
100
AcDbLine
 10
106.0
 20
250.0
 30
0.0
 11
94.0
 21
250.0
 31
0.0
  0
LINE
  5
7B
330
17
100
AcDbEntity
  8
EQUIP
  6
CONTINUOUS
370
25
100
AcDbLine
 10
94.0
 20
250.0
 30
0.0
 11
94.0
 21
241.0
 31
0.0
  0
LINE
  5
7C
330
17
100
AcDbEntity
  8
POS
  6
CONTINUOUS
370
25
100
AcDbLine
 10
94.0
 20
247.0
 30
0.0
 11
98.0
 21
247.0
 31
0.0
  0
LINE
  5
7D
330
17
100
AcDbEntity
  8
POS
  6
CONTINUOUS
370
25
100
AcDbLine
 10
98.0
 20
247.0
 30
0.0
 11
102.0
 21
249.0
 31
0.0
  0
LINE
  5
7E
330
17
100
AcDbEntity
  8
POS
  6
CONTINUOUS
370
25
100
AcDbLine
 10
103.0
 20
247.0
 30
0.0
 11
106.0
 21
247.0
 31
0.0
  0
LINE
  5
7F
330
17
100
AcDbEntity
  8
NEG
  6
CONTINUOUS
370
25
100
AcDbLine
 10
94.0
 20
243.0
 30
0.0
 11
98.0
 21
243.0
 31
0.0
  0
LINE
  5
80
330
17
100
AcDbEntity
  8
NEG
  6
CONTINUOUS
370
25
100
AcDbLine
 10
98.0
 20
243.0
 30
0.0
 11
102.0
 21
245.0
 31
0.0
  0
LINE
  5
81
330
17
100
AcDbEntity
  8
NEG
  6
CONTINUOUS
370
25
100
AcDbLine
 10
103.0
 20
243.0
 30
0.0
 11
106.0
 21
243.0
 31
0.0
  0
TEXT
  5
82
330
17
100
AcDbEntity
  8
NOTE
100
AcDbText
 10
100.0
 20
252.0
 30
0.0
 40
2.5
  1
QS1
  7
CN
 72
1
 11
100.0
 21
252.0
 31
0.0
100
AcDbText
  0
TEXT
  5
83
330
17
100
AcDbEntity
  8
NOTE
100
AcDbText
 10
100.0
 20
223.0
 30
0.0
 40
2.15
  1
2P 25 A / ≥600 VDC
  7
CN
 72
1
 11
100.0
 21
223.0
 31
0.0
100
AcDbText
  0
LINE
  5
84
330
17
100
AcDbEntity
  8
PE
  6
CONTINUOUS
370
25
100
AcDbLine
 10
119.0
 20
232.0
 30
0.0
 11
134.0
 21
232.0
 31
0.0
  0
LINE
  5
85
330
17
100
AcDbEntity
  8
PE
  6
CONTINUOUS
370
25
100
AcDbLine
 10
134.0
 20
232.0
 30
0.0
 11
134.0
 21
241.0
 31
0.0
  0
LINE
  5
86
330
17
100
AcDbEntity
  8
PE
  6
CONTINUOUS
370
25
100
AcDbLine
 10
134.0
 20
241.0
 30
0.0
 11
119.0
 21
241.0
 31
0.0
  0
LINE
  5
87
330
17
100
AcDbEntity
  8
PE
  6
CONTINUOUS
370
25
100
AcDbLine
 10
119.0
 20
241.0
 30
0.0
 11
119.0
 21
232.0
 31
0.0
  0
TEXT
  5
88
330
17
100
AcDbEntity
  8
PE
100
AcDbText
 10
126.5
 20
236.5
 30
0.0
 40
2.3
  1
SPD
  7
CN
 72
1
 11
126.5
 21
236.5
 31
0.0
100
AcDbText
  0
LINE
  5
89
330
17
100
AcDbEntity
  8
POS
  6
CONTINUOUS
370
25
100
AcDbLine
 10
122.0
 20
247.0
 30
0.0
 11
122.0
 21
241.0
 31
0.0
  0
CIRCLE
  5
8A
330
17
100
AcDbEntity
  8
POS
100
AcDbCircle
 10
122.0
 20
247.0
 30
0.0
 40
0.65
  0
LINE
  5
8B
330
17
100
AcDbEntity
  8
NEG
  6
CONTINUOUS
370
25
100
AcDbLine
 10
130.0
 20
243.0
 30
0.0
 11
130.0
 21
241.0
 31
0.0
  0
CIRCLE
  5
8C
330
17
100
AcDbEntity
  8
NEG
100
AcDbCircle
 10
130.0
 20
243.0
 30
0.0
 40
0.65
  0
LINE
  5
8D
330
17
100
AcDbEntity
  8
PE
  6
CONTINUOUS
370
25
100
AcDbLine
 10
126.5
 20
231.0
 30
0.0
 11
126.5
 21
228.0
 31
0.0
  0
LINE
  5
8E
330
17
100
AcDbEntity
  8
PE
  6
CONTINUOUS
370
25
100
AcDbLine
 10
123.5
 20
228.0
 30
0.0
 11
129.5
 21
228.0
 31
0.0
  0
LINE
  5
8F
330
17
100
AcDbEntity
  8
PE
  6
CONTINUOUS
370
25
100
AcDbLine
 10
124.5
 20
226.8
 30
0.0
 11
128.5
 21
226.8
 31
0.0
  0
LINE
  5
90
330
17
100
AcDbEntity
  8
PE
  6
CONTINUOUS
370
25
100
AcDbLine
 10
125.5
 20
225.6
 30
0.0
 11
127.5
 21
225.6
 31
0.0
  0
LINE
  5
91
330
17
100
AcDbEntity
  8
PE
  6
CONTINUOUS
370
25
100
AcDbLine
 10
126.5
 20
232.0
 30
0.0
 11
126.5
 21
231.0
 31
0.0
  0
TEXT
  5
92
330
17
100
AcDbEntity
  8
NOTE
100
AcDbText
 10
20.0
 20
228.0
 30
0.0
 40
2.45
  1
C1A：±各6 mm²，单程15 m
  7
CN
 11
20.0
 21
228.0
 31
0.0
100
AcDbText
  0
LINE
  5
93
330
17
100
AcDbEntity
  8
PV
  6
CONTINUOUS
370
25
100
AcDbLine
 10
20.0
 20
203.0
 30
0.0
 11
30.0
 21
203.0
 31
0.0
  0
LINE
  5
94
330
17
100
AcDbEntity
  8
PV
  6
CONTINUOUS
370
25
100
AcDbLine
 10
30.0
 20
203.0
 30
0.0
 11
30.0
 21
214.0
 31
0.0
  0
LINE
  5
95
330
17
100
AcDbEntity
  8
PV
  6
CONTINUOUS
370
25
100
AcDbLine
 10
30.0
 20
214.0
 30
0.0
 11
20.0
 21
214.0
 31
0.0
  0
LINE
  5
96
330
17
100
AcDbEntity
  8
PV
  6
CONTINUOUS
370
25
100
AcDbLine
 10
20.0
 20
214.0
 30
0.0
 11
20.0
 21
203.0
 31
0.0
  0
TEXT
  5
97
330
17
100
AcDbEntity
  8
PV
100
AcDbText
 10
25.0
 20
207.5
 30
0.0
 40
2.15
  1
PV06
  7
CN
 72
1
 11
25.0
 21
207.5
 31
0.0
100
AcDbText
  0
LINE
  5
98
330
17
100
AcDbEntity
  8
POS
  6
CONTINUOUS
370
25
100
AcDbLine
 10
30.0
 20
208.0
 30
0.0
 11
32.0
 21
208.0
 31
0.0
  0
LINE
  5
99
330
17
100
AcDbEntity
  8
PV
  6
CONTINUOUS
370
25
100
AcDbLine
 10
32.0
 20
203.0
 30
0.0
 11
42.0
 21
203.0
 31
0.0
  0
LINE
  5
9A
330
17
100
AcDbEntity
  8
PV
  6
CONTINUOUS
370
25
100
AcDbLine
 10
42.0
 20
203.0
 30
0.0
 11
42.0
 21
214.0
 31
0.0
  0
LINE
  5
9B
330
17
100
AcDbEntity
  8
PV
  6
CONTINUOUS
370
25
100
AcDbLine
 10
42.0
 20
214.0
 30
0.0
 11
32.0
 21
214.0
 31
0.0
  0
LINE
  5
9C
330
17
100
AcDbEntity
  8
PV
  6
CONTINUOUS
370
25
100
AcDbLine
 10
32.0
 20
214.0
 30
0.0
 11
32.0
 21
203.0
 31
0.0
  0
TEXT
  5
9D
330
17
100
AcDbEntity
  8
PV
100
AcDbText
 10
37.0
 20
207.5
 30
0.0
 40
2.15
  1
PV07
  7
CN
 72
1
 11
37.0
 21
207.5
 31
0.0
100
AcDbText
  0
LINE
  5
9E
330
17
100
AcDbEntity
  8
POS
  6
CONTINUOUS
370
25
100
AcDbLine
 10
42.0
 20
208.0
 30
0.0
 11
44.0
 21
208.0
 31
0.0
  0
LINE
  5
9F
330
17
100
AcDbEntity
  8
PV
  6
CONTINUOUS
370
25
100
AcDbLine
 10
44.0
 20
203.0
 30
0.0
 11
54.0
 21
203.0
 31
0.0
  0
LINE
  5
A0
330
17
100
AcDbEntity
  8
PV
  6
CONTINUOUS
370
25
100
AcDbLine
 10
54.0
 20
203.0
 30
0.0
 11
54.0
 21
214.0
 31
0.0
  0
LINE
  5
A1
330
17
100
AcDbEntity
  8
PV
  6
CONTINUOUS
370
25
100
AcDbLine
 10
54.0
 20
214.0
 30
0.0
 11
44.0
 21
214.0
 31
0.0
  0
LINE
  5
A2
330
17
100
AcDbEntity
  8
PV
  6
CONTINUOUS
370
25
100
AcDbLine
 10
44.0
 20
214.0
 30
0.0
 11
44.0
 21
203.0
 31
0.0
  0
TEXT
  5
A3
330
17
100
AcDbEntity
  8
PV
100
AcDbText
 10
49.0
 20
207.5
 30
0.0
 40
2.15
  1
PV08
  7
CN
 72
1
 11
49.0
 21
207.5
 31
0.0
100
AcDbText
  0
LINE
  5
A4
330
17
100
AcDbEntity
  8
POS
  6
CONTINUOUS
370
25
100
AcDbLine
 10
54.0
 20
208.0
 30
0.0
 11
56.0
 21
208.0
 31
0.0
  0
LINE
  5
A5
330
17
100
AcDbEntity
  8
PV
  6
CONTINUOUS
370
25
100
AcDbLine
 10
56.0
 20
203.0
 30
0.0
 11
66.0
 21
203.0
 31
0.0
  0
LINE
  5
A6
330
17
100
AcDbEntity
  8
PV
  6
CONTINUOUS
370
25
100
AcDbLine
 10
66.0
 20
203.0
 30
0.0
 11
66.0
 21
214.0
 31
0.0
  0
LINE
  5
A7
330
17
100
AcDbEntity
  8
PV
  6
CONTINUOUS
370
25
100
AcDbLine
 10
66.0
 20
214.0
 30
0.0
 11
56.0
 21
214.0
 31
0.0
  0
LINE
  5
A8
330
17
100
AcDbEntity
  8
PV
  6
CONTINUOUS
370
25
100
AcDbLine
 10
56.0
 20
214.0
 30
0.0
 11
56.0
 21
203.0
 31
0.0
  0
TEXT
  5
A9
330
17
100
AcDbEntity
  8
PV
100
AcDbText
 10
61.0
 20
207.5
 30
0.0
 40
2.15
  1
PV09
  7
CN
 72
1
 11
61.0
 21
207.5
 31
0.0
100
AcDbText
  0
LINE
  5
AA
330
17
100
AcDbEntity
  8
POS
  6
CONTINUOUS
370
25
100
AcDbLine
 10
66.0
 20
208.0
 30
0.0
 11
68.0
 21
208.0
 31
0.0
  0
LINE
  5
AB
330
17
100
AcDbEntity
  8
PV
  6
CONTINUOUS
370
25
100
AcDbLine
 10
68.0
 20
203.0
 30
0.0
 11
78.0
 21
203.0
 31
0.0
  0
LINE
  5
AC
330
17
100
AcDbEntity
  8
PV
  6
CONTINUOUS
370
25
100
AcDbLine
 10
78.0
 20
203.0
 30
0.0
 11
78.0
 21
214.0
 31
0.0
  0
LINE
  5
AD
330
17
100
AcDbEntity
  8
PV
  6
CONTINUOUS
370
25
100
AcDbLine
 10
78.0
 20
214.0
 30
0.0
 11
68.0
 21
214.0
 31
0.0
  0
LINE
  5
AE
330
17
100
AcDbEntity
  8
PV
  6
CONTINUOUS
370
25
100
AcDbLine
 10
68.0
 20
214.0
 30
0.0
 11
68.0
 21
203.0
 31
0.0
  0
TEXT
  5
AF
330
17
100
AcDbEntity
  8
PV
100
AcDbText
 10
73.0
 20
207.5
 30
0.0
 40
2.15
  1
PV10
  7
CN
 72
1
 11
73.0
 21
207.5
 31
0.0
100
AcDbText
  0
TEXT
  5
B0
330
17
100
AcDbEntity
  8
PV
100
AcDbText
 10
20.0
 20
218.0
 30
0.0
 40
2.7
  1
S2：5 × 550 W 串联
  7
CN
 11
20.0
 21
218.0
 31
0.0
100
AcDbText
  0
LINE
  5
B1
330
17
100
AcDbEntity
  8
POS
  6
CONTINUOUS
370
25
100
AcDbLine
 10
78.0
 20
208.0
 30
0.0
 11
91.0
 21
208.0
 31
0.0
  0
LINE
  5
B2
330
17
100
AcDbEntity
  8
POS
  6
CONTINUOUS
370
25
100
AcDbLine
 10
91.0
 20
208.0
 30
0.0
 11
91.0
 21
210.0
 31
0.0
  0
LINE
  5
B3
330
17
100
AcDbEntity
  8
POS
  6
CONTINUOUS
370
25
100
AcDbLine
 10
91.0
 20
210.0
 30
0.0
 11
94.0
 21
210.0
 31
0.0
  0
LINE
  5
B4
330
17
100
AcDbEntity
  8
POS
  6
CONTINUOUS
370
25
100
AcDbLine
 10
106.0
 20
210.0
 30
0.0
 11
146.0
 21
210.0
 31
0.0
  0
LINE
  5
B5
330
17
100
AcDbEntity
  8
NEG
  6
CONTINUOUS
370
25
100
AcDbLine
 10
20.0
 20
203.0
 30
0.0
 11
20.0
 21
199.0
 31
0.0
  0
LINE
  5
B6
330
17
100
AcDbEntity
  8
NEG
  6
CONTINUOUS
370
25
100
AcDbLine
 10
20.0
 20
199.0
 30
0.0
 11
91.0
 21
199.0
 31
0.0
  0
LINE
  5
B7
330
17
100
AcDbEntity
  8
NEG
  6
CONTINUOUS
370
25
100
AcDbLine
 10
91.0
 20
199.0
 30
0.0
 11
91.0
 21
206.0
 31
0.0
  0
LINE
  5
B8
330
17
100
AcDbEntity
  8
NEG
  6
CONTINUOUS
370
25
100
AcDbLine
 10
91.0
 20
206.0
 30
0.0
 11
94.0
 21
206.0
 31
0.0
  0
LINE
  5
B9
330
17
100
AcDbEntity
  8
NEG
  6
CONTINUOUS
370
25
100
AcDbLine
 10
106.0
 20
206.0
 30
0.0
 11
146.0
 21
206.0
 31
0.0
  0
LINE
  5
BA
330
17
100
AcDbEntity
  8
EQUIP
  6
CONTINUOUS
370
25
100
AcDbLine
 10
94.0
 20
204.0
 30
0.0
 11
106.0
 21
204.0
 31
0.0
  0
LINE
  5
BB
330
17
100
AcDbEntity
  8
EQUIP
  6
CONTINUOUS
370
25
100
AcDbLine
 10
106.0
 20
204.0
 30
0.0
 11
106.0
 21
213.0
 31
0.0
  0
LINE
  5
BC
330
17
100
AcDbEntity
  8
EQUIP
  6
CONTINUOUS
370
25
100
AcDbLine
 10
106.0
 20
213.0
 30
0.0
 11
94.0
 21
213.0
 31
0.0
  0
LINE
  5
BD
330
17
100
AcDbEntity
  8
EQUIP
  6
CONTINUOUS
370
25
100
AcDbLine
 10
94.0
 20
213.0
 30
0.0
 11
94.0
 21
204.0
 31
0.0
  0
LINE
  5
BE
330
17
100
AcDbEntity
  8
POS
  6
CONTINUOUS
370
25
100
AcDbLine
 10
94.0
 20
210.0
 30
0.0
 11
98.0
 21
210.0
 31
0.0
  0
LINE
  5
BF
330
17
100
AcDbEntity
  8
POS
  6
CONTINUOUS
370
25
100
AcDbLine
 10
98.0
 20
210.0
 30
0.0
 11
102.0
 21
212.0
 31
0.0
  0
LINE
  5
C0
330
17
100
AcDbEntity
  8
POS
  6
CONTINUOUS
370
25
100
AcDbLine
 10
103.0
 20
210.0
 30
0.0
 11
106.0
 21
210.0
 31
0.0
  0
LINE
  5
C1
330
17
100
AcDbEntity
  8
NEG
  6
CONTINUOUS
370
25
100
AcDbLine
 10
94.0
 20
206.0
 30
0.0
 11
98.0
 21
206.0
 31
0.0
  0
LINE
  5
C2
330
17
100
AcDbEntity
  8
NEG
  6
CONTINUOUS
370
25
100
AcDbLine
 10
98.0
 20
206.0
 30
0.0
 11
102.0
 21
208.0
 31
0.0
  0
LINE
  5
C3
330
17
100
AcDbEntity
  8
NEG
  6
CONTINUOUS
370
25
100
AcDbLine
 10
103.0
 20
206.0
 30
0.0
 11
106.0
 21
206.0
 31
0.0
  0
TEXT
  5
C4
330
17
100
AcDbEntity
  8
NOTE
100
AcDbText
 10
100.0
 20
215.0
 30
0.0
 40
2.5
  1
QS2
  7
CN
 72
1
 11
100.0
 21
215.0
 31
0.0
100
AcDbText
  0
TEXT
  5
C5
330
17
100
AcDbEntity
  8
NOTE
100
AcDbText
 10
100.0
 20
186.0
 30
0.0
 40
2.15
  1
2P 25 A / ≥600 VDC
  7
CN
 72
1
 11
100.0
 21
186.0
 31
0.0
100
AcDbText
  0
LINE
  5
C6
330
17
100
AcDbEntity
  8
PE
  6
CONTINUOUS
370
25
100
AcDbLine
 10
119.0
 20
195.0
 30
0.0
 11
134.0
 21
195.0
 31
0.0
  0
LINE
  5
C7
330
17
100
AcDbEntity
  8
PE
  6
CONTINUOUS
370
25
100
AcDbLine
 10
134.0
 20
195.0
 30
0.0
 11
134.0
 21
204.0
 31
0.0
  0
LINE
  5
C8
330
17
100
AcDbEntity
  8
PE
  6
CONTINUOUS
370
25
100
AcDbLine
 10
134.0
 20
204.0
 30
0.0
 11
119.0
 21
204.0
 31
0.0
  0
LINE
  5
C9
330
17
100
AcDbEntity
  8
PE
  6
CONTINUOUS
370
25
100
AcDbLine
 10
119.0
 20
204.0
 30
0.0
 11
119.0
 21
195.0
 31
0.0
  0
TEXT
  5
CA
330
17
100
AcDbEntity
  8
PE
100
AcDbText
 10
126.5
 20
199.5
 30
0.0
 40
2.3
  1
SPD
  7
CN
 72
1
 11
126.5
 21
199.5
 31
0.0
100
AcDbText
  0
LINE
  5
CB
330
17
100
AcDbEntity
  8
POS
  6
CONTINUOUS
370
25
100
AcDbLine
 10
122.0
 20
210.0
 30
0.0
 11
122.0
 21
204.0
 31
0.0
  0
CIRCLE
  5
CC
330
17
100
AcDbEntity
  8
POS
100
AcDbCircle
 10
122.0
 20
210.0
 30
0.0
 40
0.65
  0
LINE
  5
CD
330
17
100
AcDbEntity
  8
NEG
  6
CONTINUOUS
370
25
100
AcDbLine
 10
130.0
 20
206.0
 30
0.0
 11
130.0
 21
204.0
 31
0.0
  0
CIRCLE
  5
CE
330
17
100
AcDbEntity
  8
NEG
100
AcDbCircle
 10
130.0
 20
206.0
 30
0.0
 40
0.65
  0
LINE
  5
CF
330
17
100
AcDbEntity
  8
PE
  6
CONTINUOUS
370
25
100
AcDbLine
 10
126.5
 20
194.0
 30
0.0
 11
126.5
 21
191.0
 31
0.0
  0
LINE
  5
D0
330
17
100
AcDbEntity
  8
PE
  6
CONTINUOUS
370
25
100
AcDbLine
 10
123.5
 20
191.0
 30
0.0
 11
129.5
 21
191.0
 31
0.0
  0
LINE
  5
D1
330
17
100
AcDbEntity
  8
PE
  6
CONTINUOUS
370
25
100
AcDbLine
 10
124.5
 20
189.8
 30
0.0
 11
128.5
 21
189.8
 31
0.0
  0
LINE
  5
D2
330
17
100
AcDbEntity
  8
PE
  6
CONTINUOUS
370
25
100
AcDbLine
 10
125.5
 20
188.6
 30
0.0
 11
127.5
 21
188.6
 31
0.0
  0
LINE
  5
D3
330
17
100
AcDbEntity
  8
PE
  6
CONTINUOUS
370
25
100
AcDbLine
 10
126.5
 20
195.0
 30
0.0
 11
126.5
 21
194.0
 31
0.0
  0
TEXT
  5
D4
330
17
100
AcDbEntity
  8
NOTE
100
AcDbText
 10
20.0
 20
191.0
 30
0.0
 40
2.45
  1
C1B：±各6 mm²，单程15 m
  7
CN
 11
20.0
 21
191.0
 31
0.0
100
AcDbText
  0
LINE
  5
D5
330
17
100
AcDbEntity
  8
EQUIP
  6
CONTINUOUS
370
25
100
AcDbLine
 10
146.0
 20
170.0
 30
0.0
 11
215.0
 21
170.0
 31
0.0
  0
LINE
  5
D6
330
17
100
AcDbEntity
  8
EQUIP
  6
CONTINUOUS
370
25
100
AcDbLine
 10
215.0
 20
170.0
 30
0.0
 11
215.0
 21
259.0
 31
0.0
  0
LINE
  5
D7
330
17
100
AcDbEntity
  8
EQUIP
  6
CONTINUOUS
370
25
100
AcDbLine
 10
215.0
 20
259.0
 30
0.0
 11
146.0
 21
259.0
 31
0.0
  0
LINE
  5
D8
330
17
100
AcDbEntity
  8
EQUIP
  6
CONTINUOUS
370
25
100
AcDbLine
 10
146.0
 20
259.0
 30
0.0
 11
146.0
 21
170.0
 31
0.0
  0
TEXT
  5
D9
330
17
100
AcDbEntity
  8
EQUIP
100
AcDbText
 10
180.5
 20
253.0
 30
0.0
 40
3.4
  1
INV1 德业一体机
  7
CN
 72
1
 11
180.5
 21
253.0
 31
0.0
100
AcDbText
  0
TEXT
  5
DA
330
17
100
AcDbEntity
  8
NOTE
100
AcDbText
 10
180.5
 20
248.0
 30
0.0
 40
2.45
  1
SUN-5K-SG05LP1-EU-SM2
  7
CN
 72
1
 11
180.5
 21
248.0
 31
0.0
100
AcDbText
  0
LINE
  5
DB
330
17
100
AcDbEntity
  8
PV
  6
CONTINUOUS
370
25
100
AcDbLine
 10
149.0
 20
235.0
 30
0.0
 11
172.0
 21
235.0
 31
0.0
  0
LINE
  5
DC
330
17
100
AcDbEntity
  8
PV
  6
CONTINUOUS
370
25
100
AcDbLine
 10
172.0
 20
235.0
 30
0.0
 11
172.0
 21
246.0
 31
0.0
  0
LINE
  5
DD
330
17
100
AcDbEntity
  8
PV
  6
CONTINUOUS
370
25
100
AcDbLine
 10
172.0
 20
246.0
 30
0.0
 11
149.0
 21
246.0
 31
0.0
  0
LINE
  5
DE
330
17
100
AcDbEntity
  8
PV
  6
CONTINUOUS
370
25
100
AcDbLine
 10
149.0
 20
246.0
 30
0.0
 11
149.0
 21
235.0
 31
0.0
  0
TEXT
  5
DF
330
17
100
AcDbEntity
  8
PV
100
AcDbText
 10
160.5
 20
239.0
 30
0.0
 40
2.7
  1
MPPT1
  7
CN
 72
1
 11
160.5
 21
239.0
 31
0.0
100
AcDbText
  0
LINE
  5
E0
330
17
100
AcDbEntity
  8
PV
  6
CONTINUOUS
370
25
100
AcDbLine
 10
149.0
 20
199.0
 30
0.0
 11
172.0
 21
199.0
 31
0.0
  0
LINE
  5
E1
330
17
100
AcDbEntity
  8
PV
  6
CONTINUOUS
370
25
100
AcDbLine
 10
172.0
 20
199.0
 30
0.0
 11
172.0
 21
210.0
 31
0.0
  0
LINE
  5
E2
330
17
100
AcDbEntity
  8
PV
  6
CONTINUOUS
370
25
100
AcDbLine
 10
172.0
 20
210.0
 30
0.0
 11
149.0
 21
210.0
 31
0.0
  0
LINE
  5
E3
330
17
100
AcDbEntity
  8
PV
  6
CONTINUOUS
370
25
100
AcDbLine
 10
149.0
 20
210.0
 30
0.0
 11
149.0
 21
199.0
 31
0.0
  0
TEXT
  5
E4
330
17
100
AcDbEntity
  8
PV
100
AcDbText
 10
160.5
 20
203.0
 30
0.0
 40
2.7
  1
MPPT2
  7
CN
 72
1
 11
160.5
 21
203.0
 31
0.0
100
AcDbText
  0
LINE
  5
E5
330
17
100
AcDbEntity
  8
POS
  6
CONTINUOUS
370
25
100
AcDbLine
 10
146.0
 20
247.0
 30
0.0
 11
147.0
 21
247.0
 31
0.0
  0
LINE
  5
E6
330
17
100
AcDbEntity
  8
POS
  6
CONTINUOUS
370
25
100
AcDbLine
 10
147.0
 20
247.0
 30
0.0
 11
147.0
 21
244.0
 31
0.0
  0
LINE
  5
E7
330
17
100
AcDbEntity
  8
POS
  6
CONTINUOUS
370
25
100
AcDbLine
 10
147.0
 20
244.0
 30
0.0
 11
149.0
 21
244.0
 31
0.0
  0
LINE
  5
E8
330
17
100
AcDbEntity
  8
NEG
  6
CONTINUOUS
370
25
100
AcDbLine
 10
146.0
 20
243.0
 30
0.0
 11
148.0
 21
243.0
 31
0.0
  0
LINE
  5
E9
330
17
100
AcDbEntity
  8
NEG
  6
CONTINUOUS
370
25
100
AcDbLine
 10
148.0
 20
243.0
 30
0.0
 11
148.0
 21
237.0
 31
0.0
  0
LINE
  5
EA
330
17
100
AcDbEntity
  8
NEG
  6
CONTINUOUS
370
25
100
AcDbLine
 10
148.0
 20
237.0
 30
0.0
 11
149.0
 21
237.0
 31
0.0
  0
LINE
  5
EB
330
17
100
AcDbEntity
  8
POS
  6
CONTINUOUS
370
25
100
AcDbLine
 10
146.0
 20
210.0
 30
0.0
 11
149.0
 21
210.0
 31
0.0
  0
LINE
  5
EC
330
17
100
AcDbEntity
  8
NEG
  6
CONTINUOUS
370
25
100
AcDbLine
 10
146.0
 20
206.0
 30
0.0
 11
149.0
 21
206.0
 31
0.0
  0
LINE
  5
ED
330
17
100
AcDbEntity
  8
AC
  6
CONTINUOUS
370
25
100
AcDbLine
 10
182.0
 20
218.0
 30
0.0
 11
209.0
 21
218.0
 31
0.0
  0
LINE
  5
EE
330
17
100
AcDbEntity
  8
AC
  6
CONTINUOUS
370
25
100
AcDbLine
 10
209.0
 20
218.0
 30
0.0
 11
209.0
 21
240.0
 31
0.0
  0
LINE
  5
EF
330
17
100
AcDbEntity
  8
AC
  6
CONTINUOUS
370
25
100
AcDbLine
 10
209.0
 20
240.0
 30
0.0
 11
182.0
 21
240.0
 31
0.0
  0
LINE
  5
F0
330
17
100
AcDbEntity
  8
AC
  6
CONTINUOUS
370
25
100
AcDbLine
 10
182.0
 20
240.0
 30
0.0
 11
182.0
 21
218.0
 31
0.0
  0
TEXT
  5
F1
330
17
100
AcDbEntity
  8
AC
100
AcDbText
 10
195.5
 20
232.0
 30
0.0
 40
3.0
  1
DC / AC
  7
CN
 72
1
 11
195.5
 21
232.0
 31
0.0
100
AcDbText
  0
TEXT
  5
F2
330
17
100
AcDbEntity
  8
AC
100
AcDbText
 10
195.5
 20
223.0
 30
0.0
 40
3.0
  1
5 kW
  7
CN
 72
1
 11
195.5
 21
223.0
 31
0.0
100
AcDbText
  0
LINE
  5
F3
330
17
100
AcDbEntity
  8
POS
  6
CONTINUOUS
370
25
100
AcDbLine
 10
172.0
 20
240.0
 30
0.0
 11
178.0
 21
240.0
 31
0.0
  0
LINE
  5
F4
330
17
100
AcDbEntity
  8
POS
  6
CONTINUOUS
370
25
100
AcDbLine
 10
178.0
 20
240.0
 30
0.0
 11
178.0
 21
204.0
 31
0.0
  0
LINE
  5
F5
330
17
100
AcDbEntity
  8
POS
  6
CONTINUOUS
370
25
100
AcDbLine
 10
172.0
 20
204.0
 30
0.0
 11
178.0
 21
204.0
 31
0.0
  0
LINE
  5
F6
330
17
100
AcDbEntity
  8
POS
  6
CONTINUOUS
370
25
100
AcDbLine
 10
178.0
 20
229.0
 30
0.0
 11
182.0
 21
229.0
 31
0.0
  0
TEXT
  5
F7
330
17
100
AcDbEntity
  8
NOTE
100
AcDbText
 10
151.0
 20
190.0
 30
0.0
 40
2.45
  1
电池端 40—60 V / ≤120 A
  7
CN
 11
151.0
 21
190.0
 31
0.0
100
AcDbText
  0
TEXT
  5
F8
330
17
100
AcDbEntity
  8
NOTE
100
AcDbText
 10
151.0
 20
185.0
 30
0.0
 40
2.45
  1
GRID、GEN：不接线并封闭
  7
CN
 11
151.0
 21
185.0
 31
0.0
100
AcDbText
  0
TEXT
  5
F9
330
17
100
AcDbEntity
  8
NOTE
100
AcDbText
 10
151.0
 20
180.0
 30
0.0
 40
2.45
  1
输出220 V / 50 Hz；禁并网
  7
CN
 11
151.0
 21
180.0
 31
0.0
100
AcDbText
  0
LINE
  5
FA
330
17
100
AcDbEntity
  8
POS
  6
CONTINUOUS
370
25
100
AcDbLine
 10
170.0
 20
170.0
 30
0.0
 11
170.0
 21
166.0
 31
0.0
  0
LINE
  5
FB
330
17
100
AcDbEntity
  8
POS
  6
CONTINUOUS
370
25
100
AcDbLine
 10
170.0
 20
159.0
 30
0.0
 11
170.0
 21
157.0
 31
0.0
  0
LINE
  5
FC
330
17
100
AcDbEntity
  8
NEG
  6
CONTINUOUS
370
25
100
AcDbLine
 10
184.0
 20
170.0
 30
0.0
 11
184.0
 21
149.0
 31
0.0
  0
TEXT
  5
FD
330
17
100
AcDbEntity
  8
AC
100
AcDbText
 10
219.0
 20
241.0
 30
0.0
 40
2.6
  1
LOAD：L / N
  7
CN
 11
219.0
 21
241.0
 31
0.0
100
AcDbText
  0
LINE
  5
FE
330
17
100
AcDbEntity
  8
AC
  6
CONTINUOUS
370
25
100
AcDbLine
 10
215.0
 20
233.0
 30
0.0
 11
259.0
 21
233.0
 31
0.0
  0
LINE
  5
FF
330
17
100
AcDbEntity
  8
AC
  6
CONTINUOUS
370
25
100
AcDbLine
 10
259.0
 20
229.0
 30
0.0
 11
274.0
 21
229.0
 31
0.0
  0
LINE
  5
100
330
17
100
AcDbEntity
  8
AC
  6
CONTINUOUS
370
25
100
AcDbLine
 10
274.0
 20
229.0
 30
0.0
 11
274.0
 21
238.0
 31
0.0
  0
LINE
  5
101
330
17
100
AcDbEntity
  8
AC
  6
CONTINUOUS
370
25
100
AcDbLine
 10
274.0
 20
238.0
 30
0.0
 11
259.0
 21
238.0
 31
0.0
  0
LINE
  5
102
330
17
100
AcDbEntity
  8
AC
  6
CONTINUOUS
370
25
100
AcDbLine
 10
259.0
 20
238.0
 30
0.0
 11
259.0
 21
229.0
 31
0.0
  0
TEXT
  5
103
330
17
100
AcDbEntity
  8
AC
100
AcDbText
 10
266.5
 20
232.0
 30
0.0
 40
2.4
  1
QF0
  7
CN
 72
1
 11
266.5
 21
232.0
 31
0.0
100
AcDbText
  0
LINE
  5
104
330
17
100
AcDbEntity
  8
AC
  6
CONTINUOUS
370
25
100
AcDbLine
 10
274.0
 20
233.0
 30
0.0
 11
292.0
 21
233.0
 31
0.0
  0
TEXT
  5
105
330
17
100
AcDbEntity
  8
AC
100
AcDbText
 10
261.0
 20
241.0
 30
0.0
 40
2.4
  1
2P 25 A
  7
CN
 11
261.0
 21
241.0
 31
0.0
100
AcDbText
  0
TEXT
  5
106
330
17
100
AcDbEntity
  8
AC
100
AcDbText
 10
219.0
 20
224.0
 30
0.0
 40
2.4
  1
C4：3G6，8 m
  7
CN
 11
219.0
 21
224.0
 31
0.0
100
AcDbText
  0
LINE
  5
107
330
17
100
AcDbEntity
  8
AC
  6
CONTINUOUS
370
25
100
AcDbLine
 10
286.0
 20
180.0
 30
0.0
 11
399.0
 21
180.0
 31
0.0
  0
LINE
  5
108
330
17
100
AcDbEntity
  8
AC
  6
CONTINUOUS
370
25
100
AcDbLine
 10
399.0
 20
180.0
 30
0.0
 11
399.0
 21
252.0
 31
0.0
  0
LINE
  5
109
330
17
100
AcDbEntity
  8
AC
  6
CONTINUOUS
370
25
100
AcDbLine
 10
399.0
 20
252.0
 30
0.0
 11
286.0
 21
252.0
 31
0.0
  0
LINE
  5
10A
330
17
100
AcDbEntity
  8
AC
  6
CONTINUOUS
370
25
100
AcDbLine
 10
286.0
 20
252.0
 30
0.0
 11
286.0
 21
180.0
 31
0.0
  0
TEXT
  5
10B
330
17
100
AcDbEntity
  8
AC
100
AcDbText
 10
292.0
 20
247.0
 30
0.0
 40
3.2
  1
DB1 交流配电箱
  7
CN
 11
292.0
 21
247.0
 31
0.0
100
AcDbText
  0
LINE
  5
10C
330
17
100
AcDbEntity
  8
AC
  6
CONTINUOUS
370
25
100
AcDbLine
 10
292.0
 20
188.0
 30
0.0
 11
292.0
 21
238.0
 31
0.0
  0
CIRCLE
  5
10D
330
17
100
AcDbEntity
  8
AC
100
AcDbCircle
 10
292.0
 20
234.0
 30
0.0
 40
0.65
  0
LINE
  5
10E
330
17
100
AcDbEntity
  8
AC
  6
CONTINUOUS
370
25
100
AcDbLine
 10
292.0
 20
234.0
 30
0.0
 11
302.0
 21
234.0
 31
0.0
  0
LINE
  5
10F
330
17
100
AcDbEntity
  8
AC
  6
CONTINUOUS
370
25
100
AcDbLine
 10
302.0
 20
231.0
 30
0.0
 11
320.0
 21
231.0
 31
0.0
  0
LINE
  5
110
330
17
100
AcDbEntity
  8
AC
  6
CONTINUOUS
370
25
100
AcDbLine
 10
320.0
 20
231.0
 30
0.0
 11
320.0
 21
237.0
 31
0.0
  0
LINE
  5
111
330
17
100
AcDbEntity
  8
AC
  6
CONTINUOUS
370
25
100
AcDbLine
 10
320.0
 20
237.0
 30
0.0
 11
302.0
 21
237.0
 31
0.0
  0
LINE
  5
112
330
17
100
AcDbEntity
  8
AC
  6
CONTINUOUS
370
25
100
AcDbLine
 10
302.0
 20
237.0
 30
0.0
 11
302.0
 21
231.0
 31
0.0
  0
TEXT
  5
113
330
17
100
AcDbEntity
  8
AC
100
AcDbText
 10
311.0
 20
233.0
 30
0.0
 40
2.25
  1
RCBO
  7
CN
 72
1
 11
311.0
 21
233.0
 31
0.0
100
AcDbText
  0
LINE
  5
114
330
17
100
AcDbEntity
  8
AC
  6
CONTINUOUS
370
25
100
AcDbLine
 10
320.0
 20
234.0
 30
0.0
 11
386.0
 21
234.0
 31
0.0
  0
TEXT
  5
115
330
17
100
AcDbEntity
  8
AC
100
AcDbText
 10
324.0
 20
236.3
 30
0.0
 40
2.3
  1
B16 / 30mA A型
  7
CN
 11
324.0
 21
236.3
 31
0.0
100
AcDbText
  0
TEXT
  5
116
330
17
100
AcDbEntity
  8
AC
100
AcDbText
 10
390.0
 20
233.0
 30
0.0
 40
2.5
  1
厨房
  7
CN
 11
390.0
 21
233.0
 31
0.0
100
AcDbText
  0
CIRCLE
  5
117
330
17
100
AcDbEntity
  8
AC
100
AcDbCircle
 10
292.0
 20
220.0
 30
0.0
 40
0.65
  0
LINE
  5
118
330
17
100
AcDbEntity
  8
AC
  6
CONTINUOUS
370
25
100
AcDbLine
 10
292.0
 20
220.0
 30
0.0
 11
302.0
 21
220.0
 31
0.0
  0
LINE
  5
119
330
17
100
AcDbEntity
  8
AC
  6
CONTINUOUS
370
25
100
AcDbLine
 10
302.0
 20
217.0
 30
0.0
 11
320.0
 21
217.0
 31
0.0
  0
LINE
  5
11A
330
17
100
AcDbEntity
  8
AC
  6
CONTINUOUS
370
25
100
AcDbLine
 10
320.0
 20
217.0
 30
0.0
 11
320.0
 21
223.0
 31
0.0
  0
LINE
  5
11B
330
17
100
AcDbEntity
  8
AC
  6
CONTINUOUS
370
25
100
AcDbLine
 10
320.0
 20
223.0
 30
0.0
 11
302.0
 21
223.0
 31
0.0
  0
LINE
  5
11C
330
17
100
AcDbEntity
  8
AC
  6
CONTINUOUS
370
25
100
AcDbLine
 10
302.0
 20
223.0
 30
0.0
 11
302.0
 21
217.0
 31
0.0
  0
TEXT
  5
11D
330
17
100
AcDbEntity
  8
AC
100
AcDbText
 10
311.0
 20
219.0
 30
0.0
 40
2.25
  1
RCBO
  7
CN
 72
1
 11
311.0
 21
219.0
 31
0.0
100
AcDbText
  0
LINE
  5
11E
330
17
100
AcDbEntity
  8
AC
  6
CONTINUOUS
370
25
100
AcDbLine
 10
320.0
 20
220.0
 30
0.0
 11
386.0
 21
220.0
 31
0.0
  0
TEXT
  5
11F
330
17
100
AcDbEntity
  8
AC
100
AcDbText
 10
324.0
 20
222.3
 30
0.0
 40
2.3
  1
B10 / 30mA A型
  7
CN
 11
324.0
 21
222.3
 31
0.0
100
AcDbText
  0
TEXT
  5
120
330
17
100
AcDbEntity
  8
AC
100
AcDbText
 10
390.0
 20
219.0
 30
0.0
 40
2.5
  1
采暖
  7
CN
 11
390.0
 21
219.0
 31
0.0
100
AcDbText
  0
CIRCLE
  5
121
330
17
100
AcDbEntity
  8
AC
100
AcDbCircle
 10
292.0
 20
206.0
 30
0.0
 40
0.65
  0
LINE
  5
122
330
17
100
AcDbEntity
  8
AC
  6
CONTINUOUS
370
25
100
AcDbLine
 10
292.0
 20
206.0
 30
0.0
 11
302.0
 21
206.0
 31
0.0
  0
LINE
  5
123
330
17
100
AcDbEntity
  8
AC
  6
CONTINUOUS
370
25
100
AcDbLine
 10
302.0
 20
203.0
 30
0.0
 11
320.0
 21
203.0
 31
0.0
  0
LINE
  5
124
330
17
100
AcDbEntity
  8
AC
  6
CONTINUOUS
370
25
100
AcDbLine
 10
320.0
 20
203.0
 30
0.0
 11
320.0
 21
209.0
 31
0.0
  0
LINE
  5
125
330
17
100
AcDbEntity
  8
AC
  6
CONTINUOUS
370
25
100
AcDbLine
 10
320.0
 20
209.0
 30
0.0
 11
302.0
 21
209.0
 31
0.0
  0
LINE
  5
126
330
17
100
AcDbEntity
  8
AC
  6
CONTINUOUS
370
25
100
AcDbLine
 10
302.0
 20
209.0
 30
0.0
 11
302.0
 21
203.0
 31
0.0
  0
TEXT
  5
127
330
17
100
AcDbEntity
  8
AC
100
AcDbText
 10
311.0
 20
205.0
 30
0.0
 40
2.25
  1
RCBO
  7
CN
 72
1
 11
311.0
 21
205.0
 31
0.0
100
AcDbText
  0
LINE
  5
128
330
17
100
AcDbEntity
  8
AC
  6
CONTINUOUS
370
25
100
AcDbLine
 10
320.0
 20
206.0
 30
0.0
 11
386.0
 21
206.0
 31
0.0
  0
TEXT
  5
129
330
17
100
AcDbEntity
  8
AC
100
AcDbText
 10
324.0
 20
208.3
 30
0.0
 40
2.3
  1
B10 / 30mA A型
  7
CN
 11
324.0
 21
208.3
 31
0.0
100
AcDbText
  0
TEXT
  5
12A
330
17
100
AcDbEntity
  8
AC
100
AcDbText
 10
390.0
 20
205.0
 30
0.0
 40
2.5
  1
插座
  7
CN
 11
390.0
 21
205.0
 31
0.0
100
AcDbText
  0
CIRCLE
  5
12B
330
17
100
AcDbEntity
  8
AC
100
AcDbCircle
 10
292.0
 20
192.0
 30
0.0
 40
0.65
  0
LINE
  5
12C
330
17
100
AcDbEntity
  8
AC
  6
CONTINUOUS
370
25
100
AcDbLine
 10
292.0
 20
192.0
 30
0.0
 11
302.0
 21
192.0
 31
0.0
  0
LINE
  5
12D
330
17
100
AcDbEntity
  8
AC
  6
CONTINUOUS
370
25
100
AcDbLine
 10
302.0
 20
189.0
 30
0.0
 11
320.0
 21
189.0
 31
0.0
  0
LINE
  5
12E
330
17
100
AcDbEntity
  8
AC
  6
CONTINUOUS
370
25
100
AcDbLine
 10
320.0
 20
189.0
 30
0.0
 11
320.0
 21
195.0
 31
0.0
  0
LINE
  5
12F
330
17
100
AcDbEntity
  8
AC
  6
CONTINUOUS
370
25
100
AcDbLine
 10
320.0
 20
195.0
 30
0.0
 11
302.0
 21
195.0
 31
0.0
  0
LINE
  5
130
330
17
100
AcDbEntity
  8
AC
  6
CONTINUOUS
370
25
100
AcDbLine
 10
302.0
 20
195.0
 30
0.0
 11
302.0
 21
189.0
 31
0.0
  0
TEXT
  5
131
330
17
100
AcDbEntity
  8
AC
100
AcDbText
 10
311.0
 20
191.0
 30
0.0
 40
2.25
  1
RCBO
  7
CN
 72
1
 11
311.0
 21
191.0
 31
0.0
100
AcDbText
  0
LINE
  5
132
330
17
100
AcDbEntity
  8
AC
  6
CONTINUOUS
370
25
100
AcDbLine
 10
320.0
 20
192.0
 30
0.0
 11
386.0
 21
192.0
 31
0.0
  0
TEXT
  5
133
330
17
100
AcDbEntity
  8
AC
100
AcDbText
 10
324.0
 20
194.3
 30
0.0
 40
2.3
  1
B6 / 30mA A型
  7
CN
 11
324.0
 21
194.3
 31
0.0
100
AcDbText
  0
TEXT
  5
134
330
17
100
AcDbEntity
  8
AC
100
AcDbText
 10
390.0
 20
191.0
 30
0.0
 40
2.5
  1
照明
  7
CN
 11
390.0
 21
191.0
 31
0.0
100
AcDbText
  0
TEXT
  5
135
330
17
100
AcDbEntity
  8
NOTE
100
AcDbText
 10
292.0
 20
175.0
 30
0.0
 40
2.25
  1
各分路L、N独立穿过RCBO；PE不穿保护触点。
  7
CN
 11
292.0
 21
175.0
 31
0.0
100
AcDbText
  0
LINE
  5
136
330
17
100
AcDbEntity
  8
NEG
  6
CONTINUOUS
370
25
100
AcDbLine
 10
281.0
 20
233.0
 30
0.0
 11
281.0
 21
165.0
 31
0.0
  0
LINE
  5
137
330
17
100
AcDbEntity
  8
NEG
  6
CONTINUOUS
370
25
100
AcDbLine
 10
281.0
 20
165.0
 30
0.0
 11
278.0
 21
165.0
 31
0.0
  0
LINE
  5
138
330
17
100
AcDbEntity
  8
NEG
  6
CONTINUOUS
370
25
100
AcDbLine
 10
278.0
 20
165.0
 30
0.0
 11
278.0
 21
153.0
 31
0.0
  0
CIRCLE
  5
139
330
17
100
AcDbEntity
  8
NEG
100
AcDbCircle
 10
281.0
 20
233.0
 30
0.0
 40
0.65
  0
TEXT
  5
13A
330
17
100
AcDbEntity
  8
NEG
100
AcDbText
 10
282.0
 20
164.0
 30
0.0
 40
2.35
  1
N（RCD上游）
  7
CN
 11
282.0
 21
164.0
 31
0.0
100
AcDbText
  0
LINE
  5
13B
330
17
100
AcDbEntity
  8
PE
  6
CONTINUOUS
370
25
100
AcDbLine
 10
278.0
 20
147.0
 30
0.0
 11
282.0
 21
151.0
 31
0.0
  0
LINE
  5
13C
330
17
100
AcDbEntity
  8
PE
  6
CONTINUOUS
370
25
100
AcDbLine
 10
278.0
 20
147.0
 30
0.0
 11
278.0
 21
96.0
 31
0.0
  0
TEXT
  5
13D
330
17
100
AcDbEntity
  8
PE
100
AcDbText
 10
283.0
 20
150.0
 30
0.0
 40
2.3
  1
K1 常开N—PE触点
  7
CN
 11
283.0
 21
150.0
 31
0.0
100
AcDbText
  0
LINE
  5
13E
330
17
100
AcDbEntity
  8
COMM
  6
CONTINUOUS
370
25
100
AcDbLine
 10
239.0
 20
144.0
 30
0.0
 11
253.0
 21
144.0
 31
0.0
  0
LINE
  5
13F
330
17
100
AcDbEntity
  8
COMM
  6
CONTINUOUS
370
25
100
AcDbLine
 10
253.0
 20
144.0
 30
0.0
 11
253.0
 21
154.0
 31
0.0
  0
LINE
  5
140
330
17
100
AcDbEntity
  8
COMM
  6
CONTINUOUS
370
25
100
AcDbLine
 10
253.0
 20
154.0
 30
0.0
 11
239.0
 21
154.0
 31
0.0
  0
LINE
  5
141
330
17
100
AcDbEntity
  8
COMM
  6
CONTINUOUS
370
25
100
AcDbLine
 10
239.0
 20
154.0
 30
0.0
 11
239.0
 21
144.0
 31
0.0
  0
TEXT
  5
142
330
17
100
AcDbEntity
  8
COMM
100
AcDbText
 10
246.0
 20
148.0
 30
0.0
 40
2.2
  1
K1线圈
  7
CN
 72
1
 11
246.0
 21
148.0
 31
0.0
100
AcDbText
  0
LINE
  5
143
330
17
100
AcDbEntity
  8
COMM
  6
DRAW_DASH
370
25
100
AcDbLine
 10
215.0
 20
179.0
 30
0.0
 11
228.0
 21
179.0
 31
0.0
  0
LINE
  5
144
330
17
100
AcDbEntity
  8
COMM
  6
DRAW_DASH
370
25
100
AcDbLine
 10
228.0
 20
179.0
 30
0.0
 11
228.0
 21
149.0
 31
0.0
  0
LINE
  5
145
330
17
100
AcDbEntity
  8
COMM
  6
DRAW_DASH
370
25
100
AcDbLine
 10
228.0
 20
149.0
 30
0.0
 11
239.0
 21
149.0
 31
0.0
  0
TEXT
  5
146
330
17
100
AcDbEntity
  8
COMM
100
AcDbText
 10
230.0
 20
169.0
 30
0.0
 40
2.25
  1
ATS 230 VAC
  7
CN
 11
230.0
 21
169.0
 31
0.0
100
AcDbText
  0
LINE
  5
147
330
17
100
AcDbEntity
  8
COMM
  6
DRAW_DASH
370
25
100
AcDbLine
 10
253.0
 20
149.0
 30
0.0
 11
275.0
 21
149.0
 31
0.0
  0
TEXT
  5
148
330
17
100
AcDbEntity
  8
NOTE
100
AcDbText
 10
292.0
 20
138.0
 30
0.0
 40
2.4
  1
Signal ISLAND MODE控制；
  7
CN
 11
292.0
 21
138.0
 31
0.0
100
AcDbText
  0
TEXT
  5
149
330
17
100
AcDbEntity
  8
HOLD
100
AcDbText
 10
292.0
 20
133.0
 30
0.0
 40
2.4
  1
联结与RCD配合待厂家/调试确认。
  7
CN
 11
292.0
 21
133.0
 31
0.0
100
AcDbText
  0
LINE
  5
14A
330
17
100
AcDbEntity
  8
POS
  6
CONTINUOUS
370
70
100
AcDbLine
 10
24.0
 20
157.0
 30
0.0
 11
197.0
 21
157.0
 31
0.0
  0
LINE
  5
14B
330
17
100
AcDbEntity
  8
NEG
  6
CONTINUOUS
370
70
100
AcDbLine
 10
24.0
 20
149.0
 30
0.0
 11
197.0
 21
149.0
 31
0.0
  0
TEXT
  5
14C
330
17
100
AcDbEntity
  8
POS
100
AcDbText
 10
25.0
 20
162.0
 30
0.0
 40
2.6
  1
正母排 / 400 A
  7
CN
 11
25.0
 21
162.0
 31
0.0
100
AcDbText
  0
TEXT
  5
14D
330
17
100
AcDbEntity
  8
NEG
100
AcDbText
 10
82.0
 20
151.0
 30
0.0
 40
2.4
  1
负母排 / 400 A
  7
CN
 11
82.0
 21
151.0
 31
0.0
100
AcDbText
  0
LINE
  5
14E
330
17
100
AcDbEntity
  8
POS
  6
CONTINUOUS
370
25
100
AcDbLine
 10
163.0
 20
159.0
 30
0.0
 11
177.0
 21
159.0
 31
0.0
  0
LINE
  5
14F
330
17
100
AcDbEntity
  8
POS
  6
CONTINUOUS
370
25
100
AcDbLine
 10
177.0
 20
159.0
 30
0.0
 11
177.0
 21
166.0
 31
0.0
  0
LINE
  5
150
330
17
100
AcDbEntity
  8
POS
  6
CONTINUOUS
370
25
100
AcDbLine
 10
177.0
 20
166.0
 30
0.0
 11
163.0
 21
166.0
 31
0.0
  0
LINE
  5
151
330
17
100
AcDbEntity
  8
POS
  6
CONTINUOUS
370
25
100
AcDbLine
 10
163.0
 20
166.0
 30
0.0
 11
163.0
 21
159.0
 31
0.0
  0
TEXT
  5
152
330
17
100
AcDbEntity
  8
POS
100
AcDbText
 10
170.0
 20
161.3
 30
0.0
 40
2.15
  1
QF-B
  7
CN
 72
1
 11
170.0
 21
161.3
 31
0.0
100
AcDbText
  0
TEXT
  5
153
330
17
100
AcDbEntity
  8
POS
100
AcDbText
 10
200.0
 20
160.0
 30
0.0
 40
2.4
  1
150 A，≥80 VDC
  7
CN
 11
200.0
 21
160.0
 31
0.0
100
AcDbText
  0
TEXT
  5
154
330
17
100
AcDbEntity
  8
NOTE
100
AcDbText
 10
200.0
 20
155.0
 30
0.0
 40
2.25
  1
C3：±各35 mm² / 1.5 m
  7
CN
 11
200.0
 21
155.0
 31
0.0
100
AcDbText
  0
LINE
  5
155
330
17
100
AcDbEntity
  8
EQUIP
  6
CONTINUOUS
370
25
100
AcDbLine
 10
22.0
 20
113.0
 30
0.0
 11
48.0
 21
113.0
 31
0.0
  0
LINE
  5
156
330
17
100
AcDbEntity
  8
EQUIP
  6
CONTINUOUS
370
25
100
AcDbLine
 10
48.0
 20
113.0
 30
0.0
 11
48.0
 21
131.0
 31
0.0
  0
LINE
  5
157
330
17
100
AcDbEntity
  8
EQUIP
  6
CONTINUOUS
370
25
100
AcDbLine
 10
48.0
 20
131.0
 30
0.0
 11
22.0
 21
131.0
 31
0.0
  0
LINE
  5
158
330
17
100
AcDbEntity
  8
EQUIP
  6
CONTINUOUS
370
25
100
AcDbLine
 10
22.0
 20
131.0
 30
0.0
 11
22.0
 21
113.0
 31
0.0
  0
TEXT
  5
159
330
17
100
AcDbEntity
  8
EQUIP
100
AcDbText
 10
35.0
 20
124.0
 30
0.0
 40
2.8
  1
BAT1
  7
CN
 72
1
 11
35.0
 21
124.0
 31
0.0
100
AcDbText
  0
TEXT
  5
15A
330
17
100
AcDbEntity
  8
NOTE
100
AcDbText
 10
35.0
 20
119.0
 30
0.0
 40
2.1
  1
51.2V / 100Ah
  7
CN
 72
1
 11
35.0
 21
119.0
 31
0.0
100
AcDbText
  0
TEXT
  5
15B
330
17
100
AcDbEntity
  8
NOTE
100
AcDbText
 10
35.0
 20
115.0
 30
0.0
 40
2.0
  1
EG4 LL-S
  7
CN
 72
1
 11
35.0
 21
115.0
 31
0.0
100
AcDbText
  0
LINE
  5
15C
330
17
100
AcDbEntity
  8
POS
  6
CONTINUOUS
370
25
100
AcDbLine
 10
29.0
 20
131.0
 30
0.0
 11
29.0
 21
139.0
 31
0.0
  0
LINE
  5
15D
330
17
100
AcDbEntity
  8
POS
  6
CONTINUOUS
370
25
100
AcDbLine
 10
29.0
 20
144.0
 30
0.0
 11
29.0
 21
157.0
 31
0.0
  0
LINE
  5
15E
330
17
100
AcDbEntity
  8
POS
  6
CONTINUOUS
370
25
100
AcDbLine
 10
27.0
 20
139.0
 30
0.0
 11
31.0
 21
139.0
 31
0.0
  0
LINE
  5
15F
330
17
100
AcDbEntity
  8
POS
  6
CONTINUOUS
370
25
100
AcDbLine
 10
31.0
 20
139.0
 30
0.0
 11
31.0
 21
144.0
 31
0.0
  0
LINE
  5
160
330
17
100
AcDbEntity
  8
POS
  6
CONTINUOUS
370
25
100
AcDbLine
 10
31.0
 20
144.0
 30
0.0
 11
27.0
 21
144.0
 31
0.0
  0
LINE
  5
161
330
17
100
AcDbEntity
  8
POS
  6
CONTINUOUS
370
25
100
AcDbLine
 10
27.0
 20
144.0
 30
0.0
 11
27.0
 21
139.0
 31
0.0
  0
CIRCLE
  5
162
330
17
100
AcDbEntity
  8
POS
100
AcDbCircle
 10
29.0
 20
157.0
 30
0.0
 40
0.65
  0
LINE
  5
163
330
17
100
AcDbEntity
  8
NEG
  6
CONTINUOUS
370
25
100
AcDbLine
 10
42.0
 20
131.0
 30
0.0
 11
42.0
 21
149.0
 31
0.0
  0
CIRCLE
  5
164
330
17
100
AcDbEntity
  8
NEG
100
AcDbCircle
 10
42.0
 20
149.0
 30
0.0
 40
0.65
  0
TEXT
  5
165
330
17
100
AcDbEntity
  8
POS
100
AcDbText
 10
33.0
 20
141.0
 30
0.0
 40
2.1
  1
63A
  7
CN
 11
33.0
 21
141.0
 31
0.0
100
AcDbText
  0
LINE
  5
166
330
17
100
AcDbEntity
  8
COMM
  6
DRAW_DASH
370
25
100
AcDbLine
 10
35.0
 20
113.0
 30
0.0
 11
35.0
 21
106.0
 31
0.0
  0
LINE
  5
167
330
17
100
AcDbEntity
  8
EQUIP
  6
CONTINUOUS
370
25
100
AcDbLine
 10
52.0
 20
113.0
 30
0.0
 11
78.0
 21
113.0
 31
0.0
  0
LINE
  5
168
330
17
100
AcDbEntity
  8
EQUIP
  6
CONTINUOUS
370
25
100
AcDbLine
 10
78.0
 20
113.0
 30
0.0
 11
78.0
 21
131.0
 31
0.0
  0
LINE
  5
169
330
17
100
AcDbEntity
  8
EQUIP
  6
CONTINUOUS
370
25
100
AcDbLine
 10
78.0
 20
131.0
 30
0.0
 11
52.0
 21
131.0
 31
0.0
  0
LINE
  5
16A
330
17
100
AcDbEntity
  8
EQUIP
  6
CONTINUOUS
370
25
100
AcDbLine
 10
52.0
 20
131.0
 30
0.0
 11
52.0
 21
113.0
 31
0.0
  0
TEXT
  5
16B
330
17
100
AcDbEntity
  8
EQUIP
100
AcDbText
 10
65.0
 20
124.0
 30
0.0
 40
2.8
  1
BAT2
  7
CN
 72
1
 11
65.0
 21
124.0
 31
0.0
100
AcDbText
  0
TEXT
  5
16C
330
17
100
AcDbEntity
  8
NOTE
100
AcDbText
 10
65.0
 20
119.0
 30
0.0
 40
2.1
  1
51.2V / 100Ah
  7
CN
 72
1
 11
65.0
 21
119.0
 31
0.0
100
AcDbText
  0
TEXT
  5
16D
330
17
100
AcDbEntity
  8
NOTE
100
AcDbText
 10
65.0
 20
115.0
 30
0.0
 40
2.0
  1
EG4 LL-S
  7
CN
 72
1
 11
65.0
 21
115.0
 31
0.0
100
AcDbText
  0
LINE
  5
16E
330
17
100
AcDbEntity
  8
POS
  6
CONTINUOUS
370
25
100
AcDbLine
 10
59.0
 20
131.0
 30
0.0
 11
59.0
 21
139.0
 31
0.0
  0
LINE
  5
16F
330
17
100
AcDbEntity
  8
POS
  6
CONTINUOUS
370
25
100
AcDbLine
 10
59.0
 20
144.0
 30
0.0
 11
59.0
 21
157.0
 31
0.0
  0
LINE
  5
170
330
17
100
AcDbEntity
  8
POS
  6
CONTINUOUS
370
25
100
AcDbLine
 10
57.0
 20
139.0
 30
0.0
 11
61.0
 21
139.0
 31
0.0
  0
LINE
  5
171
330
17
100
AcDbEntity
  8
POS
  6
CONTINUOUS
370
25
100
AcDbLine
 10
61.0
 20
139.0
 30
0.0
 11
61.0
 21
144.0
 31
0.0
  0
LINE
  5
172
330
17
100
AcDbEntity
  8
POS
  6
CONTINUOUS
370
25
100
AcDbLine
 10
61.0
 20
144.0
 30
0.0
 11
57.0
 21
144.0
 31
0.0
  0
LINE
  5
173
330
17
100
AcDbEntity
  8
POS
  6
CONTINUOUS
370
25
100
AcDbLine
 10
57.0
 20
144.0
 30
0.0
 11
57.0
 21
139.0
 31
0.0
  0
CIRCLE
  5
174
330
17
100
AcDbEntity
  8
POS
100
AcDbCircle
 10
59.0
 20
157.0
 30
0.0
 40
0.65
  0
LINE
  5
175
330
17
100
AcDbEntity
  8
NEG
  6
CONTINUOUS
370
25
100
AcDbLine
 10
72.0
 20
131.0
 30
0.0
 11
72.0
 21
149.0
 31
0.0
  0
CIRCLE
  5
176
330
17
100
AcDbEntity
  8
NEG
100
AcDbCircle
 10
72.0
 20
149.0
 30
0.0
 40
0.65
  0
TEXT
  5
177
330
17
100
AcDbEntity
  8
POS
100
AcDbText
 10
63.0
 20
141.0
 30
0.0
 40
2.1
  1
63A
  7
CN
 11
63.0
 21
141.0
 31
0.0
100
AcDbText
  0
LINE
  5
178
330
17
100
AcDbEntity
  8
COMM
  6
DRAW_DASH
370
25
100
AcDbLine
 10
65.0
 20
113.0
 30
0.0
 11
65.0
 21
106.0
 31
0.0
  0
LINE
  5
179
330
17
100
AcDbEntity
  8
EQUIP
  6
CONTINUOUS
370
25
100
AcDbLine
 10
82.0
 20
113.0
 30
0.0
 11
108.0
 21
113.0
 31
0.0
  0
LINE
  5
17A
330
17
100
AcDbEntity
  8
EQUIP
  6
CONTINUOUS
370
25
100
AcDbLine
 10
108.0
 20
113.0
 30
0.0
 11
108.0
 21
131.0
 31
0.0
  0
LINE
  5
17B
330
17
100
AcDbEntity
  8
EQUIP
  6
CONTINUOUS
370
25
100
AcDbLine
 10
108.0
 20
131.0
 30
0.0
 11
82.0
 21
131.0
 31
0.0
  0
LINE
  5
17C
330
17
100
AcDbEntity
  8
EQUIP
  6
CONTINUOUS
370
25
100
AcDbLine
 10
82.0
 20
131.0
 30
0.0
 11
82.0
 21
113.0
 31
0.0
  0
TEXT
  5
17D
330
17
100
AcDbEntity
  8
EQUIP
100
AcDbText
 10
95.0
 20
124.0
 30
0.0
 40
2.8
  1
BAT3
  7
CN
 72
1
 11
95.0
 21
124.0
 31
0.0
100
AcDbText
  0
TEXT
  5
17E
330
17
100
AcDbEntity
  8
NOTE
100
AcDbText
 10
95.0
 20
119.0
 30
0.0
 40
2.1
  1
51.2V / 100Ah
  7
CN
 72
1
 11
95.0
 21
119.0
 31
0.0
100
AcDbText
  0
TEXT
  5
17F
330
17
100
AcDbEntity
  8
NOTE
100
AcDbText
 10
95.0
 20
115.0
 30
0.0
 40
2.0
  1
EG4 LL-S
  7
CN
 72
1
 11
95.0
 21
115.0
 31
0.0
100
AcDbText
  0
LINE
  5
180
330
17
100
AcDbEntity
  8
POS
  6
CONTINUOUS
370
25
100
AcDbLine
 10
89.0
 20
131.0
 30
0.0
 11
89.0
 21
139.0
 31
0.0
  0
LINE
  5
181
330
17
100
AcDbEntity
  8
POS
  6
CONTINUOUS
370
25
100
AcDbLine
 10
89.0
 20
144.0
 30
0.0
 11
89.0
 21
157.0
 31
0.0
  0
LINE
  5
182
330
17
100
AcDbEntity
  8
POS
  6
CONTINUOUS
370
25
100
AcDbLine
 10
87.0
 20
139.0
 30
0.0
 11
91.0
 21
139.0
 31
0.0
  0
LINE
  5
183
330
17
100
AcDbEntity
  8
POS
  6
CONTINUOUS
370
25
100
AcDbLine
 10
91.0
 20
139.0
 30
0.0
 11
91.0
 21
144.0
 31
0.0
  0
LINE
  5
184
330
17
100
AcDbEntity
  8
POS
  6
CONTINUOUS
370
25
100
AcDbLine
 10
91.0
 20
144.0
 30
0.0
 11
87.0
 21
144.0
 31
0.0
  0
LINE
  5
185
330
17
100
AcDbEntity
  8
POS
  6
CONTINUOUS
370
25
100
AcDbLine
 10
87.0
 20
144.0
 30
0.0
 11
87.0
 21
139.0
 31
0.0
  0
CIRCLE
  5
186
330
17
100
AcDbEntity
  8
POS
100
AcDbCircle
 10
89.0
 20
157.0
 30
0.0
 40
0.65
  0
LINE
  5
187
330
17
100
AcDbEntity
  8
NEG
  6
CONTINUOUS
370
25
100
AcDbLine
 10
102.0
 20
131.0
 30
0.0
 11
102.0
 21
149.0
 31
0.0
  0
CIRCLE
  5
188
330
17
100
AcDbEntity
  8
NEG
100
AcDbCircle
 10
102.0
 20
149.0
 30
0.0
 40
0.65
  0
TEXT
  5
189
330
17
100
AcDbEntity
  8
POS
100
AcDbText
 10
93.0
 20
141.0
 30
0.0
 40
2.1
  1
63A
  7
CN
 11
93.0
 21
141.0
 31
0.0
100
AcDbText
  0
LINE
  5
18A
330
17
100
AcDbEntity
  8
COMM
  6
DRAW_DASH
370
25
100
AcDbLine
 10
95.0
 20
113.0
 30
0.0
 11
95.0
 21
106.0
 31
0.0
  0
LINE
  5
18B
330
17
100
AcDbEntity
  8
EQUIP
  6
CONTINUOUS
370
25
100
AcDbLine
 10
112.0
 20
113.0
 30
0.0
 11
138.0
 21
113.0
 31
0.0
  0
LINE
  5
18C
330
17
100
AcDbEntity
  8
EQUIP
  6
CONTINUOUS
370
25
100
AcDbLine
 10
138.0
 20
113.0
 30
0.0
 11
138.0
 21
131.0
 31
0.0
  0
LINE
  5
18D
330
17
100
AcDbEntity
  8
EQUIP
  6
CONTINUOUS
370
25
100
AcDbLine
 10
138.0
 20
131.0
 30
0.0
 11
112.0
 21
131.0
 31
0.0
  0
LINE
  5
18E
330
17
100
AcDbEntity
  8
EQUIP
  6
CONTINUOUS
370
25
100
AcDbLine
 10
112.0
 20
131.0
 30
0.0
 11
112.0
 21
113.0
 31
0.0
  0
TEXT
  5
18F
330
17
100
AcDbEntity
  8
EQUIP
100
AcDbText
 10
125.0
 20
124.0
 30
0.0
 40
2.8
  1
BAT4
  7
CN
 72
1
 11
125.0
 21
124.0
 31
0.0
100
AcDbText
  0
TEXT
  5
190
330
17
100
AcDbEntity
  8
NOTE
100
AcDbText
 10
125.0
 20
119.0
 30
0.0
 40
2.1
  1
51.2V / 100Ah
  7
CN
 72
1
 11
125.0
 21
119.0
 31
0.0
100
AcDbText
  0
TEXT
  5
191
330
17
100
AcDbEntity
  8
NOTE
100
AcDbText
 10
125.0
 20
115.0
 30
0.0
 40
2.0
  1
EG4 LL-S
  7
CN
 72
1
 11
125.0
 21
115.0
 31
0.0
100
AcDbText
  0
LINE
  5
192
330
17
100
AcDbEntity
  8
POS
  6
CONTINUOUS
370
25
100
AcDbLine
 10
119.0
 20
131.0
 30
0.0
 11
119.0
 21
139.0
 31
0.0
  0
LINE
  5
193
330
17
100
AcDbEntity
  8
POS
  6
CONTINUOUS
370
25
100
AcDbLine
 10
119.0
 20
144.0
 30
0.0
 11
119.0
 21
157.0
 31
0.0
  0
LINE
  5
194
330
17
100
AcDbEntity
  8
POS
  6
CONTINUOUS
370
25
100
AcDbLine
 10
117.0
 20
139.0
 30
0.0
 11
121.0
 21
139.0
 31
0.0
  0
LINE
  5
195
330
17
100
AcDbEntity
  8
POS
  6
CONTINUOUS
370
25
100
AcDbLine
 10
121.0
 20
139.0
 30
0.0
 11
121.0
 21
144.0
 31
0.0
  0
LINE
  5
196
330
17
100
AcDbEntity
  8
POS
  6
CONTINUOUS
370
25
100
AcDbLine
 10
121.0
 20
144.0
 30
0.0
 11
117.0
 21
144.0
 31
0.0
  0
LINE
  5
197
330
17
100
AcDbEntity
  8
POS
  6
CONTINUOUS
370
25
100
AcDbLine
 10
117.0
 20
144.0
 30
0.0
 11
117.0
 21
139.0
 31
0.0
  0
CIRCLE
  5
198
330
17
100
AcDbEntity
  8
POS
100
AcDbCircle
 10
119.0
 20
157.0
 30
0.0
 40
0.65
  0
LINE
  5
199
330
17
100
AcDbEntity
  8
NEG
  6
CONTINUOUS
370
25
100
AcDbLine
 10
132.0
 20
131.0
 30
0.0
 11
132.0
 21
149.0
 31
0.0
  0
CIRCLE
  5
19A
330
17
100
AcDbEntity
  8
NEG
100
AcDbCircle
 10
132.0
 20
149.0
 30
0.0
 40
0.65
  0
TEXT
  5
19B
330
17
100
AcDbEntity
  8
POS
100
AcDbText
 10
123.0
 20
141.0
 30
0.0
 40
2.1
  1
63A
  7
CN
 11
123.0
 21
141.0
 31
0.0
100
AcDbText
  0
LINE
  5
19C
330
17
100
AcDbEntity
  8
COMM
  6
DRAW_DASH
370
25
100
AcDbLine
 10
125.0
 20
113.0
 30
0.0
 11
125.0
 21
106.0
 31
0.0
  0
LINE
  5
19D
330
17
100
AcDbEntity
  8
EQUIP
  6
CONTINUOUS
370
25
100
AcDbLine
 10
142.0
 20
113.0
 30
0.0
 11
168.0
 21
113.0
 31
0.0
  0
LINE
  5
19E
330
17
100
AcDbEntity
  8
EQUIP
  6
CONTINUOUS
370
25
100
AcDbLine
 10
168.0
 20
113.0
 30
0.0
 11
168.0
 21
131.0
 31
0.0
  0
LINE
  5
19F
330
17
100
AcDbEntity
  8
EQUIP
  6
CONTINUOUS
370
25
100
AcDbLine
 10
168.0
 20
131.0
 30
0.0
 11
142.0
 21
131.0
 31
0.0
  0
LINE
  5
1A0
330
17
100
AcDbEntity
  8
EQUIP
  6
CONTINUOUS
370
25
100
AcDbLine
 10
142.0
 20
131.0
 30
0.0
 11
142.0
 21
113.0
 31
0.0
  0
TEXT
  5
1A1
330
17
100
AcDbEntity
  8
EQUIP
100
AcDbText
 10
155.0
 20
124.0
 30
0.0
 40
2.8
  1
BAT5
  7
CN
 72
1
 11
155.0
 21
124.0
 31
0.0
100
AcDbText
  0
TEXT
  5
1A2
330
17
100
AcDbEntity
  8
NOTE
100
AcDbText
 10
155.0
 20
119.0
 30
0.0
 40
2.1
  1
51.2V / 100Ah
  7
CN
 72
1
 11
155.0
 21
119.0
 31
0.0
100
AcDbText
  0
TEXT
  5
1A3
330
17
100
AcDbEntity
  8
NOTE
100
AcDbText
 10
155.0
 20
115.0
 30
0.0
 40
2.0
  1
EG4 LL-S
  7
CN
 72
1
 11
155.0
 21
115.0
 31
0.0
100
AcDbText
  0
LINE
  5
1A4
330
17
100
AcDbEntity
  8
POS
  6
CONTINUOUS
370
25
100
AcDbLine
 10
149.0
 20
131.0
 30
0.0
 11
149.0
 21
139.0
 31
0.0
  0
LINE
  5
1A5
330
17
100
AcDbEntity
  8
POS
  6
CONTINUOUS
370
25
100
AcDbLine
 10
149.0
 20
144.0
 30
0.0
 11
149.0
 21
157.0
 31
0.0
  0
LINE
  5
1A6
330
17
100
AcDbEntity
  8
POS
  6
CONTINUOUS
370
25
100
AcDbLine
 10
147.0
 20
139.0
 30
0.0
 11
151.0
 21
139.0
 31
0.0
  0
LINE
  5
1A7
330
17
100
AcDbEntity
  8
POS
  6
CONTINUOUS
370
25
100
AcDbLine
 10
151.0
 20
139.0
 30
0.0
 11
151.0
 21
144.0
 31
0.0
  0
LINE
  5
1A8
330
17
100
AcDbEntity
  8
POS
  6
CONTINUOUS
370
25
100
AcDbLine
 10
151.0
 20
144.0
 30
0.0
 11
147.0
 21
144.0
 31
0.0
  0
LINE
  5
1A9
330
17
100
AcDbEntity
  8
POS
  6
CONTINUOUS
370
25
100
AcDbLine
 10
147.0
 20
144.0
 30
0.0
 11
147.0
 21
139.0
 31
0.0
  0
CIRCLE
  5
1AA
330
17
100
AcDbEntity
  8
POS
100
AcDbCircle
 10
149.0
 20
157.0
 30
0.0
 40
0.65
  0
LINE
  5
1AB
330
17
100
AcDbEntity
  8
NEG
  6
CONTINUOUS
370
25
100
AcDbLine
 10
162.0
 20
131.0
 30
0.0
 11
162.0
 21
149.0
 31
0.0
  0
CIRCLE
  5
1AC
330
17
100
AcDbEntity
  8
NEG
100
AcDbCircle
 10
162.0
 20
149.0
 30
0.0
 40
0.65
  0
TEXT
  5
1AD
330
17
100
AcDbEntity
  8
POS
100
AcDbText
 10
153.0
 20
141.0
 30
0.0
 40
2.1
  1
63A
  7
CN
 11
153.0
 21
141.0
 31
0.0
100
AcDbText
  0
LINE
  5
1AE
330
17
100
AcDbEntity
  8
COMM
  6
DRAW_DASH
370
25
100
AcDbLine
 10
155.0
 20
113.0
 30
0.0
 11
155.0
 21
106.0
 31
0.0
  0
LINE
  5
1AF
330
17
100
AcDbEntity
  8
EQUIP
  6
CONTINUOUS
370
25
100
AcDbLine
 10
172.0
 20
113.0
 30
0.0
 11
198.0
 21
113.0
 31
0.0
  0
LINE
  5
1B0
330
17
100
AcDbEntity
  8
EQUIP
  6
CONTINUOUS
370
25
100
AcDbLine
 10
198.0
 20
113.0
 30
0.0
 11
198.0
 21
131.0
 31
0.0
  0
LINE
  5
1B1
330
17
100
AcDbEntity
  8
EQUIP
  6
CONTINUOUS
370
25
100
AcDbLine
 10
198.0
 20
131.0
 30
0.0
 11
172.0
 21
131.0
 31
0.0
  0
LINE
  5
1B2
330
17
100
AcDbEntity
  8
EQUIP
  6
CONTINUOUS
370
25
100
AcDbLine
 10
172.0
 20
131.0
 30
0.0
 11
172.0
 21
113.0
 31
0.0
  0
TEXT
  5
1B3
330
17
100
AcDbEntity
  8
EQUIP
100
AcDbText
 10
185.0
 20
124.0
 30
0.0
 40
2.8
  1
BAT6
  7
CN
 72
1
 11
185.0
 21
124.0
 31
0.0
100
AcDbText
  0
TEXT
  5
1B4
330
17
100
AcDbEntity
  8
NOTE
100
AcDbText
 10
185.0
 20
119.0
 30
0.0
 40
2.1
  1
51.2V / 100Ah
  7
CN
 72
1
 11
185.0
 21
119.0
 31
0.0
100
AcDbText
  0
TEXT
  5
1B5
330
17
100
AcDbEntity
  8
NOTE
100
AcDbText
 10
185.0
 20
115.0
 30
0.0
 40
2.0
  1
EG4 LL-S
  7
CN
 72
1
 11
185.0
 21
115.0
 31
0.0
100
AcDbText
  0
LINE
  5
1B6
330
17
100
AcDbEntity
  8
POS
  6
CONTINUOUS
370
25
100
AcDbLine
 10
179.0
 20
131.0
 30
0.0
 11
179.0
 21
139.0
 31
0.0
  0
LINE
  5
1B7
330
17
100
AcDbEntity
  8
POS
  6
CONTINUOUS
370
25
100
AcDbLine
 10
179.0
 20
144.0
 30
0.0
 11
179.0
 21
157.0
 31
0.0
  0
LINE
  5
1B8
330
17
100
AcDbEntity
  8
POS
  6
CONTINUOUS
370
25
100
AcDbLine
 10
177.0
 20
139.0
 30
0.0
 11
181.0
 21
139.0
 31
0.0
  0
LINE
  5
1B9
330
17
100
AcDbEntity
  8
POS
  6
CONTINUOUS
370
25
100
AcDbLine
 10
181.0
 20
139.0
 30
0.0
 11
181.0
 21
144.0
 31
0.0
  0
LINE
  5
1BA
330
17
100
AcDbEntity
  8
POS
  6
CONTINUOUS
370
25
100
AcDbLine
 10
181.0
 20
144.0
 30
0.0
 11
177.0
 21
144.0
 31
0.0
  0
LINE
  5
1BB
330
17
100
AcDbEntity
  8
POS
  6
CONTINUOUS
370
25
100
AcDbLine
 10
177.0
 20
144.0
 30
0.0
 11
177.0
 21
139.0
 31
0.0
  0
CIRCLE
  5
1BC
330
17
100
AcDbEntity
  8
POS
100
AcDbCircle
 10
179.0
 20
157.0
 30
0.0
 40
0.65
  0
LINE
  5
1BD
330
17
100
AcDbEntity
  8
NEG
  6
CONTINUOUS
370
25
100
AcDbLine
 10
192.0
 20
131.0
 30
0.0
 11
192.0
 21
149.0
 31
0.0
  0
CIRCLE
  5
1BE
330
17
100
AcDbEntity
  8
NEG
100
AcDbCircle
 10
192.0
 20
149.0
 30
0.0
 40
0.65
  0
TEXT
  5
1BF
330
17
100
AcDbEntity
  8
POS
100
AcDbText
 10
183.0
 20
141.0
 30
0.0
 40
2.1
  1
63A
  7
CN
 11
183.0
 21
141.0
 31
0.0
100
AcDbText
  0
LINE
  5
1C0
330
17
100
AcDbEntity
  8
COMM
  6
DRAW_DASH
370
25
100
AcDbLine
 10
185.0
 20
113.0
 30
0.0
 11
185.0
 21
106.0
 31
0.0
  0
LINE
  5
1C1
330
17
100
AcDbEntity
  8
COMM
  6
DRAW_DASH
370
25
100
AcDbLine
 10
35.0
 20
106.0
 30
0.0
 11
221.0
 21
106.0
 31
0.0
  0
LINE
  5
1C2
330
17
100
AcDbEntity
  8
COMM
  6
DRAW_DASH
370
25
100
AcDbLine
 10
221.0
 20
106.0
 30
0.0
 11
221.0
 21
194.0
 31
0.0
  0
LINE
  5
1C3
330
17
100
AcDbEntity
  8
COMM
  6
DRAW_DASH
370
25
100
AcDbLine
 10
221.0
 20
194.0
 30
0.0
 11
215.0
 21
194.0
 31
0.0
  0
TEXT
  5
1C4
330
17
100
AcDbEntity
  8
COMM
100
AcDbText
 10
233.0
 20
113.0
 30
0.0
 40
2.4
  1
BMS通信：专用线/协议与固件待确认
  7
CN
 11
233.0
 21
113.0
 31
0.0
100
AcDbText
  0
TEXT
  5
1C5
330
17
100
AcDbEntity
  8
NOTE
100
AcDbText
 10
22.0
 20
101.0
 30
0.0
 40
2.5
  1
C2-1…6：各支路±16 mm²、1.5 m等长；每台正极设63 A保护及隔离。
  7
CN
 11
22.0
 21
101.0
 31
0.0
100
AcDbText
  0
LINE
  5
1C6
330
17
100
AcDbEntity
  8
PE
  6
CONTINUOUS
370
60
100
AcDbLine
 10
20.0
 20
96.0
 30
0.0
 11
395.0
 21
96.0
 31
0.0
  0
LINE
  5
1C7
330
17
100
AcDbEntity
  8
PE
  6
CONTINUOUS
370
25
100
AcDbLine
 10
390.0
 20
96.0
 30
0.0
 11
390.0
 21
93.0
 31
0.0
  0
LINE
  5
1C8
330
17
100
AcDbEntity
  8
PE
  6
CONTINUOUS
370
25
100
AcDbLine
 10
387.0
 20
93.0
 30
0.0
 11
393.0
 21
93.0
 31
0.0
  0
LINE
  5
1C9
330
17
100
AcDbEntity
  8
PE
  6
CONTINUOUS
370
25
100
AcDbLine
 10
388.0
 20
91.8
 30
0.0
 11
392.0
 21
91.8
 31
0.0
  0
LINE
  5
1CA
330
17
100
AcDbEntity
  8
PE
  6
CONTINUOUS
370
25
100
AcDbLine
 10
389.0
 20
90.6
 30
0.0
 11
391.0
 21
90.6
 31
0.0
  0
TEXT
  5
1CB
330
17
100
AcDbEntity
  8
PE
100
AcDbText
 10
292.0
 20
99.0
 30
0.0
 40
2.4
  1
PE母排：外壳、机柜、支架等电位
  7
CN
 11
292.0
 21
99.0
 31
0.0
100
AcDbText
  0
TEXT
  5
1CC
330
17
100
AcDbEntity
  8
PE
100
AcDbText
 10
21.0
 20
89.0
 30
0.0
 40
2.5
  1
接地符号均接公共PE；PV正/负极不接地。电池柜/INV/配电箱金属外壳另接PE。
  7
CN
 11
21.0
 21
89.0
 31
0.0
100
AcDbText
  0
LINE
  5
1CD
330
17
100
AcDbEntity
  8
FRAME
  6
CONTINUOUS
370
18
100
AcDbLine
 10
15.0
 20
84.0
 30
0.0
 11
405.0
 21
84.0
 31
0.0
  0
TEXT
  5
1CE
330
17
100
AcDbEntity
  8
HOLD
100
AcDbText
 10
17.0
 20
78.0
 30
0.0
 40
2.6
  1
关键待核：五串Vmp(STC)=209.75 V；手册满载MPPT范围300—425 V。
  7
CN
 11
17.0
 21
78.0
 31
0.0
100
AcDbText
  0
TEXT
  5
1CF
330
17
100
AcDbEntity
  8
HOLD
100
AcDbText
 10
17.0
 20
72.0
 30
0.0
 40
2.6
  1
本图仅为拓扑初稿；功率降额未核定，5.50 kWp与恢复时间不得视作最终保证。
  7
CN
 11
17.0
 21
72.0
 31
0.0
100
AcDbText
  0
TEXT
  5
1D0
330
17
100
AcDbEntity
  8
HOLD
100
AcDbText
 10
17.0
 20
66.0
 30
0.0
 40
2.6
  1
保护初选：150 A与35 mm²须核对实际载流量；分断能力/熔断I²t尚待产品资料。
  7
CN
 11
17.0
 21
66.0
 31
0.0
100
AcDbText
  0
TEXT
  5
1D1
330
17
100
AcDbEntity
  8
HOLD
100
AcDbText
 10
17.0
 20
60.0
 30
0.0
 40
2.6
  1
电池6台共600 Ah/30.72 kWh；每日SOC截止20%，CCL/DCL限流优先。
  7
CN
 11
17.0
 21
60.0
 31
0.0
100
AcDbText
  0
TEXT
  5
1D2
330
17
100
AcDbEntity
  8
NOTE
100
AcDbText
 10
228.0
 20
78.0
 30
0.0
 40
2.5
  1
图例：红=DC+，蓝=DC−，棕=AC，绿=PE，紫=通信/控制。
  7
CN
 11
228.0
 21
78.0
 31
0.0
100
AcDbText
  0
TEXT
  5
1D3
330
17
100
AcDbEntity
  8
NOTE
100
AcDbText
 10
228.0
 20
72.0
 30
0.0
 40
2.5
  1
SPD：每PV端初选T2、Ucpv350 V；机内/外部配合待核。
  7
CN
 11
228.0
 21
72.0
 31
0.0
100
AcDbText
  0
TEXT
  5
1D4
330
17
100
AcDbEntity
  8
NOTE
100
AcDbText
 10
228.0
 20
66.0
 30
0.0
 40
2.5
  1
总线/分路线径均为铜线初选；交流回路单线代表L+N。
  7
CN
 11
228.0
 21
66.0
 31
0.0
100
AcDbText
  0
TEXT
  5
1D5
330
17
100
AcDbEntity
  8
NOTE
100
AcDbText
 10
228.0
 20
60.0
 30
0.0
 40
2.5
  1
高负荷烧水前关电暖器；无市电/发电机接入。
  7
CN
 11
228.0
 21
60.0
 31
0.0
100
AcDbText
  0
ENDSEC
  0
SECTION
  2
OBJECTS
  0
DICTIONARY
  5
A
330
0
100
AcDbDictionary
281
1
  3
ACAD_COLOR
350
B
  3
ACAD_GROUP
350
C
  3
ACAD_LAYOUT
350
D
  3
ACAD_MATERIAL
350
E
  3
ACAD_MLEADERSTYLE
350
F
  3
ACAD_MLINESTYLE
350
10
  3
ACAD_PLOTSETTINGS
350
11
  3
ACAD_PLOTSTYLENAME
350
12
  3
ACAD_SCALELIST
350
14
  3
ACAD_TABLESTYLE
350
15
  3
ACAD_VISUALSTYLE
350
16
  3
EZDXF_META
350
2D
  0
DICTIONARY
  5
B
330
A
100
AcDbDictionary
281
1
  0
DICTIONARY
  5
C
330
A
100
AcDbDictionary
281
1
  0
DICTIONARY
  5
D
330
A
100
AcDbDictionary
281
1
  3
Model
350
1A
  3
Layout1
350
1E
  0
DICTIONARY
  5
E
330
A
100
AcDbDictionary
281
1
  3
ByBlock
350
1F
  3
ByLayer
350
20
  3
Global
350
21
  0
DICTIONARY
  5
F
330
A
100
AcDbDictionary
281
1
  3
Standard
350
2C
  0
DICTIONARY
  5
10
330
A
100
AcDbDictionary
281
1
  3
Standard
350
22
  0
DICTIONARY
  5
11
330
A
100
AcDbDictionary
281
1
  0
ACDBDICTIONARYWDFLT
  5
12
330
A
100
AcDbDictionary
281
1
  3
Normal
350
13
100
AcDbDictionaryWithDefault
340
13
  0
ACDBPLACEHOLDER
  5
13
330
12
  0
DICTIONARY
  5
14
330
A
100
AcDbDictionary
281
1
  0
DICTIONARY
  5
15
330
A
100
AcDbDictionary
281
1
  0
DICTIONARY
  5
16
330
A
100
AcDbDictionary
281
1
  0
LAYOUT
  5
1A
330
D
100
AcDbPlotSettings
  1

  4
A3
  6

 40
7.5
 41
20.0
 42
7.5
 43
20.0
 44
420.0
 45
297.0
 46
0.0
 47
0.0
 48
0.0
 49
0.0
140
0.0
141
0.0
142
1.0
143
1.0
 70
1024
 72
1
 73
0
 74
5
  7

 75
16
 76
0
 77
2
 78
300
147
1.0
148
0.0
149
0.0
100
AcDbLayout
  1
Model
 70
1
 71
0
 10
0.0
 20
0.0
 11
420.0
 21
297.0
 12
0.0
 22
0.0
 32
0.0
 14
1e+20
 24
1e+20
 34
1e+20
 15
-1e+20
 25
-1e+20
 35
-1e+20
146
0.0
 13
0.0
 23
0.0
 33
0.0
 16
1.0
 26
0.0
 36
0.0
 17
0.0
 27
1.0
 37
0.0
 76
1
330
17
  0
LAYOUT
  5
1E
330
D
100
AcDbPlotSettings
  1

  4
A3
  6

 40
7.5
 41
20.0
 42
7.5
 43
20.0
 44
420.0
 45
297.0
 46
0.0
 47
0.0
 48
0.0
 49
0.0
140
0.0
141
0.0
142
1.0
143
1.0
 70
0
 72
1
 73
0
 74
5
  7

 75
16
 76
0
 77
2
 78
300
147
1.0
148
0.0
149
0.0
100
AcDbLayout
  1
Layout1
 70
1
 71
1
 10
0.0
 20
0.0
 11
420.0
 21
297.0
 12
0.0
 22
0.0
 32
0.0
 14
1e+20
 24
1e+20
 34
1e+20
 15
-1e+20
 25
-1e+20
 35
-1e+20
146
0.0
 13
0.0
 23
0.0
 33
0.0
 16
1.0
 26
0.0
 36
0.0
 17
0.0
 27
1.0
 37
0.0
 76
1
330
1B
  0
MATERIAL
  5
1F
102
{ACAD_REACTORS
330
E
102
}
330
E
100
AcDbMaterial
  1
ByBlock
  2

 70
0
 40
1.0
 71
1
 41
1.0
 91
-1023410177
 42
1.0
 72
1
  3

 73
1
 74
1
 75
1
 44
0.5
 73
0
 45
1.0
 46
1.0
 77
1
  4

 78
1
 79
1
170
1
 48
1.0
171
1
  6

172
1
173
1
174
1
140
1.0
141
1.0
175
1
  7

176
1
177
1
178
1
143
1.0
179
1
  8

270
1
271
1
272
1
145
1.0
146
1.0
273
1
  9

274
1
275
1
276
1
 42
1.0
 72
1
  3

 73
1
 74
1
 75
1
 94
63
  0
MATERIAL
  5
20
102
{ACAD_REACTORS
330
E
102
}
330
E
100
AcDbMaterial
  1
ByLayer
  2

 70
0
 40
1.0
 71
1
 41
1.0
 91
-1023410177
 42
1.0
 72
1
  3

 73
1
 74
1
 75
1
 44
0.5
 73
0
 45
1.0
 46
1.0
 77
1
  4

 78
1
 79
1
170
1
 48
1.0
171
1
  6

172
1
173
1
174
1
140
1.0
141
1.0
175
1
  7

176
1
177
1
178
1
143
1.0
179
1
  8

270
1
271
1
272
1
145
1.0
146
1.0
273
1
  9

274
1
275
1
276
1
 42
1.0
 72
1
  3

 73
1
 74
1
 75
1
 94
63
  0
MATERIAL
  5
21
102
{ACAD_REACTORS
330
E
102
}
330
E
100
AcDbMaterial
  1
Global
  2

 70
0
 40
1.0
 71
1
 41
1.0
 91
-1023410177
 42
1.0
 72
1
  3

 73
1
 74
1
 75
1
 44
0.5
 73
0
 45
1.0
 46
1.0
 77
1
  4

 78
1
 79
1
170
1
 48
1.0
171
1
  6

172
1
173
1
174
1
140
1.0
141
1.0
175
1
  7

176
1
177
1
178
1
143
1.0
179
1
  8

270
1
271
1
272
1
145
1.0
146
1.0
273
1
  9

274
1
275
1
276
1
 42
1.0
 72
1
  3

 73
1
 74
1
 75
1
 94
63
  0
MLINESTYLE
  5
22
102
{ACAD_REACTORS
330
10
102
}
330
10
100
AcDbMlineStyle
  2
Standard
 70
0
  3

 62
256
 51
90.0
 52
90.0
 71
2
 49
0.5
 62
256
  6
BYLAYER
 49
-0.5
 62
256
  6
BYLAYER
  0
MLEADERSTYLE
  5
2C
102
{ACAD_REACTORS
330
F
102
}
330
F
100
AcDbMLeaderStyle
179
2
170
2
171
1
172
0
 90
2
 40
0.0
 41
0.0
173
1
 91
-1056964608
 92
-2
290
1
 42
2.0
291
1
 43
8.0
  3
Standard
 44
4.0
300

342
29
174
1
175
1
176
0
178
1
 93
-1056964608
 45
4.0
292
0
297
0
 46
4.0
 94
-1056964608
 47
1.0
 49
1.0
140
1.0
294
1
141
0.0
177
0
142
1.0
295
0
296
0
143
3.75
271
0
272
9
273
9
  0
DICTIONARY
  5
2D
330
A
100
AcDbDictionary
280
1
281
1
  3
CREATED_BY_EZDXF
350
2E
  3
WRITTEN_BY_EZDXF
350
1D9
  0
DICTIONARYVAR
  5
2E
330
2D
100
DictionaryVariables
280
0
  1
1.4.4 @ 2026-09-10T09:29:30.853576+00:00
  0
DICTIONARYVAR
  5
1D9
330
2D
100
DictionaryVariables
280
0
  1
1.4.4 @ 2026-09-10T09:29:30.892294+00:00
  0
ENDSEC
  0
EOF
