  0
SECTION
  2
HEADER
  9
$ACADVER
  1
AC1027
  9
$ACADMAINTVER
 70
105
  9
$DWGCODEPAGE
  3
ANSI_1252
  9
$LASTSAVEDBY
  1
ezdxf
  9
$REQUIREDVERSIONS
160
0
  9
$INSBASE
 10
0.0
 20
0.0
 30
0.0
  9
$EXTMIN
 10
1e+20
 20
1e+20
 30
1e+20
  9
$EXTMAX
 10
-1e+20
 20
-1e+20
 30
-1e+20
  9
$LIMMIN
 10
0.0
 20
0.0
  9
$LIMMAX
 10
420.0
 20
297.0
  9
$ORTHOMODE
 70
0
  9
$REGENMODE
 70
1
  9
$FILLMODE
 70
1
  9
$QTEXTMODE
 70
0
  9
$MIRRTEXT
 70
1
  9
$LTSCALE
 40
50.0
  9
$ATTMODE
 70
1
  9
$TEXTSIZE
 40
2.5
  9
$TRACEWID
 40
1.0
  9
$TEXTSTYLE
  7
Standard
  9
$CLAYER
  8
0
  9
$CELTYPE
  6
ByLayer
  9
$CECOLOR
 62
256
  9
$CELTSCALE
 40
1.0
  9
$DISPSILH
 70
0
  9
$DIMSCALE
 40
1.0
  9
$DIMASZ
 40
2.5
  9
$DIMEXO
 40
0.625
  9
$DIMDLI
 40
3.75
  9
$DIMRND
 40
0.0
  9
$DIMDLE
 40
0.0
  9
$DIMEXE
 40
1.25
  9
$DIMTP
 40
0.0
  9
$DIMTM
 40
0.0
  9
$DIMTXT
 40
2.5
  9
$DIMCEN
 40
2.5
  9
$DIMTSZ
 40
0.0
  9
$DIMTOL
 70
0
  9
$DIMLIM
 70
0
  9
$DIMTIH
 70
0
  9
$DIMTOH
 70
0
  9
$DIMSE1
 70
0
  9
$DIMSE2
 70
0
  9
$DIMTAD
 70
1
  9
$DIMZIN
 70
8
  9
$DIMBLK
  1

  9
$DIMASO
 70
1
  9
$DIMSHO
 70
1
  9
$DIMPOST
  1

  9
$DIMAPOST
  1

  9
$DIMALT
 70
0
  9
$DIMALTD
 70
3
  9
$DIMALTF
 40
0.03937007874
  9
$DIMLFAC
 40
1.0
  9
$DIMTOFL
 70
1
  9
$DIMTVP
 40
0.0
  9
$DIMTIX
 70
0
  9
$DIMSOXD
 70
0
  9
$DIMSAH
 70
0
  9
$DIMBLK1
  1

  9
$DIMBLK2
  1

  9
$DIMSTYLE
  2
ISO-25
  9
$DIMCLRD
 70
0
  9
$DIMCLRE
 70
0
  9
$DIMCLRT
 70
0
  9
$DIMTFAC
 40
1.0
  9
$DIMGAP
 40
0.625
  9
$DIMJUST
 70
0
  9
$DIMSD1
 70
0
  9
$DIMSD2
 70
0
  9
$DIMTOLJ
 70
0
  9
$DIMTZIN
 70
8
  9
$DIMALTZ
 70
0
  9
$DIMALTTZ
 70
0
  9
$DIMUPT
 70
0
  9
$DIMDEC
 70
2
  9
$DIMTDEC
 70
2
  9
$DIMALTU
 70
2
  9
$DIMALTTD
 70
3
  9
$DIMTXSTY
  7
Standard
  9
$DIMAUNIT
 70
0
  9
$DIMADEC
 70
0
  9
$DIMALTRND
 40
0.0
  9
$DIMAZIN
 70
0
  9
$DIMDSEP
 70
44
  9
$DIMATFIT
 70
3
  9
$DIMFRAC
 70
0
  9
$DIMLDRBLK
  1

  9
$DIMLUNIT
 70
2
  9
$DIMLWD
 70
-2
  9
$DIMLWE
 70
-2
  9
$DIMTMOVE
 70
0
  9
$DIMFXL
 40
1.0
  9
$DIMFXLON
 70
0
  9
$DIMJOGANG
 40
0.785398163397
  9
$DIMTFILL
 70
0
  9
$DIMTFILLCLR
 70
0
  9
$DIMARCSYM
 70
0
  9
$DIMLTYPE
  6

  9
$DIMLTEX1
  6

  9
$DIMLTEX2
  6

  9
$DIMTXTDIRECTION
 70
0
  9
$LUNITS
 70
2
  9
$LUPREC
 70
4
  9
$SKETCHINC
 40
1.0
  9
$FILLETRAD
 40
10.0
  9
$AUNITS
 70
0
  9
$AUPREC
 70
2
  9
$MENU
  1
.
  9
$ELEVATION
 40
0.0
  9
$PELEVATION
 40
0.0
  9
$THICKNESS
 40
0.0
  9
$LIMCHECK
 70
0
  9
$CHAMFERA
 40
0.0
  9
$CHAMFERB
 40
0.0
  9
$CHAMFERC
 40
0.0
  9
$CHAMFERD
 40
0.0
  9
$SKPOLY
 70
0
  9
$TDCREATE
 40
2461294.7288194443
  9
$TDUCREATE
 40
2458532.153996898
  9
$TDUPDATE
 40
2461294.7288194443
  9
$TDUUPDATE
 40
2458532.1544311
  9
$TDINDWG
 40
0.0
  9
$TDUSRTIMER
 40
0.0
  9
$USRTIMER
 70
1
  9
$ANGBASE
 50
0.0
  9
$ANGDIR
 70
0
  9
$PDMODE
 70
0
  9
$PDSIZE
 40
0.0
  9
$PLINEWID
 40
0.0
  9
$SPLFRAME
 70
0
  9
$SPLINETYPE
 70
6
  9
$SPLINESEGS
 70
8
  9
$HANDSEED
  5
132
  9
$SURFTAB1
 70
6
  9
$SURFTAB2
 70
6
  9
$SURFTYPE
 70
6
  9
$SURFU
 70
6
  9
$SURFV
 70
6
  9
$UCSBASE
  2

  9
$UCSNAME
  2

  9
$UCSORG
 10
0.0
 20
0.0
 30
0.0
  9
$UCSXDIR
 10
1.0
 20
0.0
 30
0.0
  9
$UCSYDIR
 10
0.0
 20
1.0
 30
0.0
  9
$UCSORTHOREF
  2

  9
$UCSORTHOVIEW
 70
0
  9
$UCSORGTOP
 10
0.0
 20
0.0
 30
0.0
  9
$UCSORGBOTTOM
 10
0.0
 20
0.0
 30
0.0
  9
$UCSORGLEFT
 10
0.0
 20
0.0
 30
0.0
  9
$UCSORGRIGHT
 10
0.0
 20
0.0
 30
0.0
  9
$UCSORGFRONT
 10
0.0
 20
0.0
 30
0.0
  9
$UCSORGBACK
 10
0.0
 20
0.0
 30
0.0
  9
$PUCSBASE
  2

  9
$PUCSNAME
  2

  9
$PUCSORG
 10
0.0
 20
0.0
 30
0.0
  9
$PUCSXDIR
 10
1.0
 20
0.0
 30
0.0
  9
$PUCSYDIR
 10
0.0
 20
1.0
 30
0.0
  9
$PUCSORTHOREF
  2

  9
$PUCSORTHOVIEW
 70
0
  9
$PUCSORGTOP
 10
0.0
 20
0.0
 30
0.0
  9
$PUCSORGBOTTOM
 10
0.0
 20
0.0
 30
0.0
  9
$PUCSORGLEFT
 10
0.0
 20
0.0
 30
0.0
  9
$PUCSORGRIGHT
 10
0.0
 20
0.0
 30
0.0
  9
$PUCSORGFRONT
 10
0.0
 20
0.0
 30
0.0
  9
$PUCSORGBACK
 10
0.0
 20
0.0
 30
0.0
  9
$USERI1
 70
0
  9
$USERI2
 70
0
  9
$USERI3
 70
0
  9
$USERI4
 70
0
  9
$USERI5
 70
0
  9
$USERR1
 40
0.0
  9
$USERR2
 40
0.0
  9
$USERR3
 40
0.0
  9
$USERR4
 40
0.0
  9
$USERR5
 40
0.0
  9
$WORLDVIEW
 70
1
  9
$SHADEDGE
 70
3
  9
$SHADEDIF
 70
70
  9
$TILEMODE
 70
1
  9
$MAXACTVP
 70
64
  9
$PINSBASE
 10
0.0
 20
0.0
 30
0.0
  9
$PLIMCHECK
 70
0
  9
$PEXTMIN
 10
1e+20
 20
1e+20
 30
1e+20
  9
$PEXTMAX
 10
-1e+20
 20
-1e+20
 30
-1e+20
  9
$PLIMMIN
 10
0.0
 20
0.0
  9
$PLIMMAX
 10
420.0
 20
297.0
  9
$UNITMODE
 70
0
  9
$VISRETAIN
 70
1
  9
$PLINEGEN
 70
0
  9
$PSLTSCALE
 70
1
  9
$TREEDEPTH
 70
3020
  9
$CMLSTYLE
  2
Standard
  9
$CMLJUST
 70
0
  9
$CMLSCALE
 40
20.0
  9
$PROXYGRAPHICS
 70
1
  9
$MEASUREMENT
 70
1
  9
$CELWEIGHT
370
-1
  9
$ENDCAPS
280
0
  9
$JOINSTYLE
280
0
  9
$LWDISPLAY
290
0
  9
$INSUNITS
 70
4
  9
$HYPERLINKBASE
  1

  9
$STYLESHEET
  1

  9
$XEDIT
290
1
  9
$CEPSNTYPE
380
0
  9
$PSTYLEMODE
290
1
  9
$FINGERPRINTGUID
  2
{4B2C8FF0-E69B-448D-AD2F-BA0807C2EB48}
  9
$VERSIONGUID
  2
{F7E32F06-8A64-42C8-9468-277CDE700B1D}
  9
$EXTNAMES
290
1
  9
$PSVPSCALE
 40
0.0
  9
$OLESTARTUP
290
0
  9
$SORTENTS
280
127
  9
$INDEXCTL
280
0
  9
$HIDETEXT
280
1
  9
$XCLIPFRAME
280
1
  9
$HALOGAP
280
0
  9
$OBSCOLOR
 70
257
  9
$OBSLTYPE
280
0
  9
$INTERSECTIONDISPLAY
280
0
  9
$INTERSECTIONCOLOR
 70
257
  9
$DIMASSOC
280
2
  9
$PROJECTNAME
  1

  9
$CAMERADISPLAY
290
0
  9
$LENSLENGTH
 40
50.0
  9
$CAMERAHEIGHT
 40
0.0
  9
$STEPSPERSEC
 40
24.0
  9
$STEPSIZE
 40
100.0
  9
$3DDWFPREC
 40
2.0
  9
$PSOLWIDTH
 40
0.005
  9
$PSOLHEIGHT
 40
0.08
  9
$LOFTANG1
 40
1.570796326795
  9
$LOFTANG2
 40
1.570796326795
  9
$LOFTMAG1
 40
0.0
  9
$LOFTMAG2
 40
0.0
  9
$LOFTPARAM
 70
7
  9
$LOFTNORMALS
280
1
  9
$LATITUDE
 40
37.795
  9
$LONGITUDE
 40
-122.394
  9
$NORTHDIRECTION
 40
0.0
  9
$TIMEZONE
 70
-8000
  9
$LIGHTGLYPHDISPLAY
280
1
  9
$TILEMODELIGHTSYNCH
280
1
  9
$CMATERIAL
347
20
  9
$SOLIDHIST
280
0
  9
$SHOWHIST
280
1
  9
$DWFFRAME
280
2
  9
$DGNFRAME
280
2
  9
$REALWORLDSCALE
290
1
  9
$INTERFERECOLOR
 62
256
  9
$CSHADOW
280
0
  9
$SHADOWPLANELOCATION
 40
0.0
  0
ENDSEC
  0
SECTION
  2
CLASSES
  0
CLASS
  1
ACDBDICTIONARYWDFLT
  2
AcDbDictionaryWithDefault
  3
ObjectDBX Classes
 90
0
 91
0
280
0
281
0
  0
CLASS
  1
SUN
  2
AcDbSun
  3
SCENEOE
 90
1153
 91
0
280
0
281
0
  0
CLASS
  1
VISUALSTYLE
  2
AcDbVisualStyle
  3
ObjectDBX Classes
 90
4095
 91
0
280
0
281
0
  0
CLASS
  1
MATERIAL
  2
AcDbMaterial
  3
ObjectDBX Classes
 90
1153
 91
0
280
0
281
0
  0
CLASS
  1
SCALE
  2
AcDbScale
  3
ObjectDBX Classes
 90
1153
 91
0
280
0
281
0
  0
CLASS
  1
TABLESTYLE
  2
AcDbTableStyle
  3
ObjectDBX Classes
 90
4095
 91
0
280
0
281
0
  0
CLASS
  1
MLEADERSTYLE
  2
AcDbMLeaderStyle
  3
ACDB_MLEADERSTYLE_CLASS
 90
4095
 91
0
280
0
281
0
  0
CLASS
  1
DICTIONARYVAR
  2
AcDbDictionaryVar
  3
ObjectDBX Classes
 90
0
 91
0
280
0
281
0
  0
CLASS
  1
CELLSTYLEMAP
  2
AcDbCellStyleMap
  3
ObjectDBX Classes
 90
1152
 91
0
280
0
281
0
  0
CLASS
  1
MENTALRAYRENDERSETTINGS
  2
AcDbMentalRayRenderSettings
  3
SCENEOE
 90
1024
 91
0
280
0
281
0
  0
CLASS
  1
ACDBDETAILVIEWSTYLE
  2
AcDbDetailViewStyle
  3
ObjectDBX Classes
 90
1025
 91
0
280
0
281
0
  0
CLASS
  1
ACDBSECTIONVIEWSTYLE
  2
AcDbSectionViewStyle
  3
ObjectDBX Classes
 90
1025
 91
0
280
0
281
0
  0
CLASS
  1
RASTERVARIABLES
  2
AcDbRasterVariables
  3
ISM
 90
0
 91
0
280
0
281
0
  0
CLASS
  1
LAYOUT
  2
AcDbLayout
  3
ObjectDBX Classes
 90
0
 91
0
280
0
281
0
  0
CLASS
  1
ACDBPLACEHOLDER
  2
AcDbPlaceHolder
  3
ObjectDBX Classes
 90
0
 91
0
280
0
281
0
  0
ENDSEC
  0
SECTION
  2
TABLES
  0
TABLE
  2
VPORT
  5
8
330
0
100
AcDbSymbolTable
 70
1
  0
VPORT
  5
12E
330
8
100
AcDbSymbolTableRecord
100
AcDbViewportTableRecord
  2
*Active
 70
0
 10
0.0
 20
0.0
 11
1.0
 21
1.0
 12
10500.0
 22
7425.0
 13
0.0
 23
0.0
 14
0.5
 24
0.5
 15
0.5
 25
0.5
 16
0.0
 26
0.0
 36
1.0
 17
0.0
 27
0.0
 37
0.0
 40
14850.0
 41
1.34
 42
50.0
 43
0.0
 44
0.0
 50
0.0
 51
0.0
 71
0
 72
1000
 73
1
 74
3
 75
0
 76
0
 77
0
 78
0
281
0
 65
1
110
0.0
120
0.0
130
0.0
111
1.0
121
0.0
131
0.0
112
0.0
122
1.0
132
0.0
 79
0
146
0.0
  0
ENDTAB
  0
TABLE
  2
LTYPE
  5
2
330
0
100
AcDbSymbolTable
 70
4
  0
LTYPE
  5
24
330
2
100
AcDbSymbolTableRecord
100
AcDbLinetypeTableRecord
  2
ByBlock
 70
0
  3

 72
65
 73
0
 40
0.0
  0
LTYPE
  5
25
330
2
100
AcDbSymbolTableRecord
100
AcDbLinetypeTableRecord
  2
ByLayer
 70
0
  3

 72
65
 73
0
 40
0.0
  0
LTYPE
  5
26
330
2
100
AcDbSymbolTableRecord
100
AcDbLinetypeTableRecord
  2
Continuous
 70
0
  3

 72
65
 73
0
 40
0.0
  0
LTYPE
  5
30
330
2
100
AcDbSymbolTableRecord
100
AcDbLinetypeTableRecord
  2
DRAW_DASH
 70
0
  3
Dashed routing / clearance
 72
65
 73
2
 40
2.6
 49
1.6
 74
0
 49
-1.0
 74
0
  0
ENDTAB
  0
TABLE
  2
LAYER
  5
1
330
0
100
AcDbSymbolTable
 70
15
  0
LAYER
  5
27
330
1
100
AcDbSymbolTableRecord
100
AcDbLayerTableRecord
  2
0
 70
0
 62
7
  6
Continuous
370
-3
390
13
347
21
  0
LAYER
  5
28
330
1
100
AcDbSymbolTableRecord
100
AcDbLayerTableRecord
  2
Defpoints
 70
0
 62
7
  6
Continuous
290
0
370
-3
390
13
347
21
  0
LAYER
  5
31
330
1
100
AcDbSymbolTableRecord
100
AcDbLayerTableRecord
  2
FRAME
 70
0
 62
7
420
2112330
  6
Continuous
370
25
390
13
347
21
  0
LAYER
  5
32
330
1
100
AcDbSymbolTableRecord
100
AcDbLayerTableRecord
  2
EQUIP
 70
0
 62
7
420
2112330
  6
Continuous
370
25
390
13
347
21
  0
LAYER
  5
33
330
1
100
AcDbSymbolTableRecord
100
AcDbLayerTableRecord
  2
PV
 70
0
 62
7
420
2456482
  6
Continuous
370
25
390
13
347
21
  0
LAYER
  5
34
330
1
100
AcDbSymbolTableRecord
100
AcDbLayerTableRecord
  2
POS
 70
0
 62
7
420
12075830
  6
Continuous
370
25
390
13
347
21
  0
LAYER
  5
35
330
1
100
AcDbSymbolTableRecord
100
AcDbLayerTableRecord
  2
NEG
 70
0
 62
7
420
2580640
  6
Continuous
370
25
390
13
347
21
  0
LAYER
  5
36
330
1
100
AcDbSymbolTableRecord
100
AcDbLayerTableRecord
  2
AC
 70
0
 62
7
420
8412707
  6
Continuous
370
25
390
13
347
21
  0
LAYER
  5
37
330
1
100
AcDbSymbolTableRecord
100
AcDbLayerTableRecord
  2
PE
 70
0
 62
7
420
3767121
  6
Continuous
370
25
390
13
347
21
  0
LAYER
  5
38
330
1
100
AcDbSymbolTableRecord
100
AcDbLayerTableRecord
  2
COMM
 70
0
 62
7
420
8938406
  6
Continuous
370
25
390
13
347
21
  0
LAYER
  5
39
330
1
100
AcDbSymbolTableRecord
100
AcDbLayerTableRecord
  2
DIM
 70
0
 62
7
420
6713978
  6
Continuous
370
25
390
13
347
21
  0
LAYER
  5
3A
330
1
100
AcDbSymbolTableRecord
100
AcDbLayerTableRecord
  2
NOTE
 70
0
 62
7
420
3426386
  6
Continuous
370
25
390
13
347
21
  0
LAYER
  5
3B
330
1
100
AcDbSymbolTableRecord
100
AcDbLayerTableRecord
  2
HOLD
 70
0
 62
7
420
11619633
  6
Continuous
370
25
390
13
347
21
  0
LAYER
  5
3C
330
1
100
AcDbSymbolTableRecord
100
AcDbLayerTableRecord
  2
CLEAR
 70
0
 62
7
420
8565410
  6
Continuous
370
25
390
13
347
21
  0
LAYER
  5
3D
330
1
100
AcDbSymbolTableRecord
100
AcDbLayerTableRecord
  2
STRUCT
 70
0
 62
7
420
6647417
  6
Continuous
370
25
390
13
347
21
  0
ENDTAB
  0
TABLE
  2
STYLE
  5
5
330
0
100
AcDbSymbolTable
 70
2
  0
STYLE
  5
29
330
5
100
AcDbSymbolTableRecord
100
AcDbTextStyleTableRecord
  2
Standard
 70
0
 40
0.0
 41
1.0
 50
0.0
 71
0
 42
2.5
  3
txt
  4

  0
STYLE
  5
2F
330
5
100
AcDbSymbolTableRecord
100
AcDbTextStyleTableRecord
  2
CN
 70
0
 40
0.0
 41
1.0
 50
0.0
 71
0
 42
2.5
  3
Arial Unicode.ttf
  4

  0
ENDTAB
  0
TABLE
  2
VIEW
  5
7
330
0
100
AcDbSymbolTable
 70
0
  0
ENDTAB
  0
TABLE
  2
UCS
  5
6
330
0
100
AcDbSymbolTable
 70
0
  0
ENDTAB
  0
TABLE
  2
APPID
  5
3
330
0
100
AcDbSymbolTable
 70
3
  0
APPID
  5
2A
330
3
100
AcDbSymbolTableRecord
100
AcDbRegAppTableRecord
  2
ACAD
 70
0
  0
APPID
  5
12F
330
3
100
AcDbSymbolTableRecord
100
AcDbRegAppTableRecord
  2
HATCHBACKGROUNDCOLOR
 70
0
  0
APPID
  5
130
330
3
100
AcDbSymbolTableRecord
100
AcDbRegAppTableRecord
  2
EZDXF
 70
0
  0
ENDTAB
  0
TABLE
  2
DIMSTYLE
  5
4
330
0
100
AcDbSymbolTable
 70
1
100
AcDbDimStyleTable
  0
DIMSTYLE
105
2B
330
4
100
AcDbSymbolTableRecord
100
AcDbDimStyleTableRecord
  2
Standard
 70
0
 40
1.0
 41
2.5
 42
0.625
 43
3.75
 44
1.25
 45
0.0
 46
0.0
 47
0.0
 48
0.0
 49
2.5
140
2.5
141
2.5
142
0.0
143
0.03937007874
144
1.0
145
0.0
146
1.0
147
0.625
148
0.0
 69
0
 70
0
 71
0
 72
0
 73
0
 74
0
 75
0
 76
0
 77
1
 78
8
 79
3
170
0
171
3
172
1
173
0
174
0
175
0
176
0
177
0
178
0
179
2
271
2
272
2
273
2
274
3
275
0
276
0
277
2
278
44
279
0
280
0
281
0
282
0
283
0
284
8
285
0
286
0
288
0
289
3
290
0
371
-2
372
-2
  0
ENDTAB
  0
TABLE
  2
BLOCK_RECORD
  5
9
330
0
100
AcDbSymbolTable
 70
2
  0
BLOCK_RECORD
  5
17
330
9
100
AcDbSymbolTableRecord
100
AcDbBlockTableRecord
  2
*Model_Space
340
1A
 70
0
280
1
281
0
  0
BLOCK_RECORD
  5
1B
330
9
100
AcDbSymbolTableRecord
100
AcDbBlockTableRecord
  2
*Paper_Space
340
1E
 70
0
280
1
281
0
  0
ENDTAB
  0
ENDSEC
  0
SECTION
  2
BLOCKS
  0
BLOCK
  5
18
330
17
100
AcDbEntity
  8
0
100
AcDbBlockBegin
  2
*Model_Space
 70
0
 10
0.0
 20
0.0
 30
0.0
  3
*Model_Space
  1

  0
ENDBLK
  5
19
330
17
100
AcDbEntity
  8
0
100
AcDbBlockEnd
  0
BLOCK
  5
1C
330
1B
100
AcDbEntity
  8
0
100
AcDbBlockBegin
  2
*Paper_Space
 70
0
 10
0.0
 20
0.0
 30
0.0
  3
*Paper_Space
  1

  0
ENDBLK
  5
1D
330
1B
100
AcDbEntity
  8
0
100
AcDbBlockEnd
  0
ENDSEC
  0
SECTION
  2
ENTITIES
  0
LINE
  5
3E
330
17
100
AcDbEntity
  8
FRAME
  6
CONTINUOUS
370
25
100
AcDbLine
 10
500.0
 20
500.0
 30
0.0
 11
20500.0
 21
500.0
 31
0.0
  0
LINE
  5
3F
330
17
100
AcDbEntity
  8
FRAME
  6
CONTINUOUS
370
25
100
AcDbLine
 10
20500.0
 20
500.0
 30
0.0
 11
20500.0
 21
14350.0
 31
0.0
  0
LINE
  5
40
330
17
100
AcDbEntity
  8
FRAME
  6
CONTINUOUS
370
25
100
AcDbLine
 10
20500.0
 20
14350.0
 30
0.0
 11
500.0
 21
14350.0
 31
0.0
  0
LINE
  5
41
330
17
100
AcDbEntity
  8
FRAME
  6
CONTINUOUS
370
25
100
AcDbLine
 10
500.0
 20
14350.0
 30
0.0
 11
500.0
 21
500.0
 31
0.0
  0
LINE
  5
42
330
17
100
AcDbEntity
  8
FRAME
  6
CONTINUOUS
370
35
100
AcDbLine
 10
500.0
 20
1950.0
 30
0.0
 11
20500.0
 21
1950.0
 31
0.0
  0
TEXT
  5
43
330
17
100
AcDbEntity
  8
FRAME
100
AcDbText
 10
800.0
 20
13900.0
 30
0.0
 40
220.00000000000003
  1
兰州 · 户用离网光伏发电系统
  7
CN
 11
800.0
 21
13900.0
 31
0.0
100
AcDbText
  0
TEXT
  5
44
330
17
100
AcDbEntity
  8
HOLD
100
AcDbText
 10
20150.0
 20
13950.0
 30
0.0
 40
150.0
  1
M-01  /  R0 课程设计初稿
  7
CN
 72
2
 11
20150.0
 21
13950.0
 31
0.0
100
AcDbText
  0
LINE
  5
45
330
17
100
AcDbEntity
  8
FRAME
  6
CONTINUOUS
370
25
100
AcDbLine
 10
750.0
 20
13650.0
 30
0.0
 11
20250.0
 21
13650.0
 31
0.0
  0
TEXT
  5
46
330
17
100
AcDbEntity
  8
FRAME
100
AcDbText
 10
800.0
 20
1550.0
 30
0.0
 40
210.0
  1
屋顶方阵及支架布置图
  7
CN
 11
800.0
 21
1550.0
 31
0.0
100
AcDbText
  0
TEXT
  5
47
330
17
100
AcDbEntity
  8
NOTE
100
AcDbText
 10
800.0
 20
1150.0
 30
0.0
 40
140.0
  1
5.50 kWp / 30.72 kWh / 5 kW  |  图号、设备编号与计算稿对应
  7
CN
 11
800.0
 21
1150.0
 31
0.0
100
AcDbText
  0
TEXT
  5
48
330
17
100
AcDbEntity
  8
HOLD
100
AcDbText
 10
800.0
 20
800.0
 30
0.0
 40
130.0
  1
用途：方案讨论与答辩。假设及待核事项见图内说明，非施工定稿。
  7
CN
 11
800.0
 21
800.0
 31
0.0
100
AcDbText
  0
LINE
  5
49
330
17
100
AcDbEntity
  8
FRAME
  6
CONTINUOUS
370
25
100
AcDbLine
 10
14500.0
 20
500.0
 30
0.0
 11
14500.0
 21
1950.0
 31
0.0
  0
LINE
  5
4A
330
17
100
AcDbEntity
  8
FRAME
  6
CONTINUOUS
370
25
100
AcDbLine
 10
17400.0
 20
500.0
 30
0.0
 11
17400.0
 21
1950.0
 31
0.0
  0
LINE
  5
4B
330
17
100
AcDbEntity
  8
FRAME
  6
CONTINUOUS
370
25
100
AcDbLine
 10
14500.0
 20
1200.0
 30
0.0
 11
20500.0
 21
1200.0
 31
0.0
  0
TEXT
  5
4C
330
17
100
AcDbEntity
  8
FRAME
100
AcDbText
 10
14700.0
 20
1550.0
 30
0.0
 40
180.0
  1
图号  M-01
  7
CN
 11
14700.0
 21
1550.0
 31
0.0
100
AcDbText
  0
TEXT
  5
4D
330
17
100
AcDbEntity
  8
HOLD
100
AcDbText
 10
17600.0
 20
1550.0
 30
0.0
 40
180.0
  1
版本  R0
  7
CN
 11
17600.0
 21
1550.0
 31
0.0
100
AcDbText
  0
TEXT
  5
4E
330
17
100
AcDbEntity
  8
NOTE
100
AcDbText
 10
14700.0
 20
850.0
 30
0.0
 40
140.0
  1
比例 1:50  / A3
  7
CN
 11
14700.0
 21
850.0
 31
0.0
100
AcDbText
  0
TEXT
  5
4F
330
17
100
AcDbEntity
  8
NOTE
100
AcDbText
 10
17600.0
 20
850.0
 30
0.0
 40
140.0
  1
2026-09-10
  7
CN
 11
17600.0
 21
850.0
 31
0.0
100
AcDbText
  0
TEXT
  5
50
330
17
100
AcDbEntity
  8
NOTE
100
AcDbText
 10
1000.0
 20
13200.0
 30
0.0
 40
160.0
  1
屋顶平面 1:50  |  尺寸单位mm
  7
CN
 11
1000.0
 21
13200.0
 31
0.0
100
AcDbText
  0
LINE
  5
51
330
17
100
AcDbEntity
  8
EQUIP
  6
CONTINUOUS
370
25
100
AcDbLine
 10
1250.0
 20
3750.0
 30
0.0
 11
10250.0
 21
3750.0
 31
0.0
  0
LINE
  5
52
330
17
100
AcDbEntity
  8
EQUIP
  6
CONTINUOUS
370
25
100
AcDbLine
 10
10250.0
 20
3750.0
 30
0.0
 11
10250.0
 21
12750.0
 31
0.0
  0
LINE
  5
53
330
17
100
AcDbEntity
  8
EQUIP
  6
CONTINUOUS
370
25
100
AcDbLine
 10
10250.0
 20
12750.0
 30
0.0
 11
1250.0
 21
12750.0
 31
0.0
  0
LINE
  5
54
330
17
100
AcDbEntity
  8
EQUIP
  6
CONTINUOUS
370
25
100
AcDbLine
 10
1250.0
 20
12750.0
 30
0.0
 11
1250.0
 21
3750.0
 31
0.0
  0
LINE
  5
55
330
17
100
AcDbEntity
  8
STRUCT
  6
CONTINUOUS
370
60
100
AcDbLine
 10
1250.0
 20
3850.0
 30
0.0
 11
10250.0
 21
3850.0
 31
0.0
  0
LINE
  5
56
330
17
100
AcDbEntity
  8
PV
  6
CONTINUOUS
370
25
100
AcDbLine
 10
2875.0
 20
4550.0
 30
0.0
 11
4009.0000000000005
 21
4550.0
 31
0.0
  0
LINE
  5
57
330
17
100
AcDbEntity
  8
PV
  6
CONTINUOUS
370
25
100
AcDbLine
 10
4009.0000000000005
 20
4550.0
 30
0.0
 11
4009.0000000000005
 21
6416.028356890322
 31
0.0
  0
LINE
  5
58
330
17
100
AcDbEntity
  8
PV
  6
CONTINUOUS
370
25
100
AcDbLine
 10
4009.0000000000005
 20
6416.028356890322
 30
0.0
 11
2875.0
 21
6416.028356890322
 31
0.0
  0
LINE
  5
59
330
17
100
AcDbEntity
  8
PV
  6
CONTINUOUS
370
25
100
AcDbLine
 10
2875.0
 20
6416.028356890322
 30
0.0
 11
2875.0
 21
4550.0
 31
0.0
  0
LINE
  5
5A
330
17
100
AcDbEntity
  8
PV
  6
CONTINUOUS
370
13
100
AcDbLine
 10
2875.0
 20
5016.50708922258
 30
0.0
 11
4009.0000000000005
 21
5016.50708922258
 31
0.0
  0
LINE
  5
5B
330
17
100
AcDbEntity
  8
PV
  6
CONTINUOUS
370
13
100
AcDbLine
 10
2875.0
 20
5483.014178445162
 30
0.0
 11
4009.0000000000005
 21
5483.014178445162
 31
0.0
  0
LINE
  5
5C
330
17
100
AcDbEntity
  8
PV
  6
CONTINUOUS
370
13
100
AcDbLine
 10
2875.0
 20
5949.521267667743
 30
0.0
 11
4009.0000000000005
 21
5949.521267667743
 31
0.0
  0
TEXT
  5
5D
330
17
100
AcDbEntity
  8
PV
100
AcDbText
 10
3442.0
 20
5583.014178445162
 30
0.0
 40
140.0
  1
PV01
  7
CN
 72
1
 11
3442.0
 21
5583.014178445162
 31
0.0
100
AcDbText
  0
TEXT
  5
5E
330
17
100
AcDbEntity
  8
PV
100
AcDbText
 10
3442.0
 20
5333.014178445162
 30
0.0
 40
120.0
  1
550 W
  7
CN
 72
1
 11
3442.0
 21
5333.014178445162
 31
0.0
100
AcDbText
  0
LINE
  5
5F
330
17
100
AcDbEntity
  8
PV
  6
CONTINUOUS
370
25
100
AcDbLine
 10
4029.0
 20
4550.0
 30
0.0
 11
5163.0
 21
4550.0
 31
0.0
  0
LINE
  5
60
330
17
100
AcDbEntity
  8
PV
  6
CONTINUOUS
370
25
100
AcDbLine
 10
5163.0
 20
4550.0
 30
0.0
 11
5163.0
 21
6416.028356890322
 31
0.0
  0
LINE
  5
61
330
17
100
AcDbEntity
  8
PV
  6
CONTINUOUS
370
25
100
AcDbLine
 10
5163.0
 20
6416.028356890322
 30
0.0
 11
4029.0
 21
6416.028356890322
 31
0.0
  0
LINE
  5
62
330
17
100
AcDbEntity
  8
PV
  6
CONTINUOUS
370
25
100
AcDbLine
 10
4029.0
 20
6416.028356890322
 30
0.0
 11
4029.0
 21
4550.0
 31
0.0
  0
LINE
  5
63
330
17
100
AcDbEntity
  8
PV
  6
CONTINUOUS
370
13
100
AcDbLine
 10
4029.0
 20
5016.50708922258
 30
0.0
 11
5163.0
 21
5016.50708922258
 31
0.0
  0
LINE
  5
64
330
17
100
AcDbEntity
  8
PV
  6
CONTINUOUS
370
13
100
AcDbLine
 10
4029.0
 20
5483.014178445162
 30
0.0
 11
5163.0
 21
5483.014178445162
 31
0.0
  0
LINE
  5
65
330
17
100
AcDbEntity
  8
PV
  6
CONTINUOUS
370
13
100
AcDbLine
 10
4029.0
 20
5949.521267667743
 30
0.0
 11
5163.0
 21
5949.521267667743
 31
0.0
  0
TEXT
  5
66
330
17
100
AcDbEntity
  8
PV
100
AcDbText
 10
4596.0
 20
5583.014178445162
 30
0.0
 40
140.0
  1
PV02
  7
CN
 72
1
 11
4596.0
 21
5583.014178445162
 31
0.0
100
AcDbText
  0
TEXT
  5
67
330
17
100
AcDbEntity
  8
PV
100
AcDbText
 10
4596.0
 20
5333.014178445162
 30
0.0
 40
120.0
  1
550 W
  7
CN
 72
1
 11
4596.0
 21
5333.014178445162
 31
0.0
100
AcDbText
  0
LINE
  5
68
330
17
100
AcDbEntity
  8
PV
  6
CONTINUOUS
370
25
100
AcDbLine
 10
5183.0
 20
4550.0
 30
0.0
 11
6317.0
 21
4550.0
 31
0.0
  0
LINE
  5
69
330
17
100
AcDbEntity
  8
PV
  6
CONTINUOUS
370
25
100
AcDbLine
 10
6317.0
 20
4550.0
 30
0.0
 11
6317.0
 21
6416.028356890322
 31
0.0
  0
LINE
  5
6A
330
17
100
AcDbEntity
  8
PV
  6
CONTINUOUS
370
25
100
AcDbLine
 10
6317.0
 20
6416.028356890322
 30
0.0
 11
5183.0
 21
6416.028356890322
 31
0.0
  0
LINE
  5
6B
330
17
100
AcDbEntity
  8
PV
  6
CONTINUOUS
370
25
100
AcDbLine
 10
5183.0
 20
6416.028356890322
 30
0.0
 11
5183.0
 21
4550.0
 31
0.0
  0
LINE
  5
6C
330
17
100
AcDbEntity
  8
PV
  6
CONTINUOUS
370
13
100
AcDbLine
 10
5183.0
 20
5016.50708922258
 30
0.0
 11
6317.0
 21
5016.50708922258
 31
0.0
  0
LINE
  5
6D
330
17
100
AcDbEntity
  8
PV
  6
CONTINUOUS
370
13
100
AcDbLine
 10
5183.0
 20
5483.014178445162
 30
0.0
 11
6317.0
 21
5483.014178445162
 31
0.0
  0
LINE
  5
6E
330
17
100
AcDbEntity
  8
PV
  6
CONTINUOUS
370
13
100
AcDbLine
 10
5183.0
 20
5949.521267667743
 30
0.0
 11
6317.0
 21
5949.521267667743
 31
0.0
  0
TEXT
  5
6F
330
17
100
AcDbEntity
  8
PV
100
AcDbText
 10
5750.0
 20
5583.014178445162
 30
0.0
 40
140.0
  1
PV03
  7
CN
 72
1
 11
5750.0
 21
5583.014178445162
 31
0.0
100
AcDbText
  0
TEXT
  5
70
330
17
100
AcDbEntity
  8
PV
100
AcDbText
 10
5750.0
 20
5333.014178445162
 30
0.0
 40
120.0
  1
550 W
  7
CN
 72
1
 11
5750.0
 21
5333.014178445162
 31
0.0
100
AcDbText
  0
LINE
  5
71
330
17
100
AcDbEntity
  8
PV
  6
CONTINUOUS
370
25
100
AcDbLine
 10
6337.0
 20
4550.0
 30
0.0
 11
7470.999999999999
 21
4550.0
 31
0.0
  0
LINE
  5
72
330
17
100
AcDbEntity
  8
PV
  6
CONTINUOUS
370
25
100
AcDbLine
 10
7470.999999999999
 20
4550.0
 30
0.0
 11
7470.999999999999
 21
6416.028356890322
 31
0.0
  0
LINE
  5
73
330
17
100
AcDbEntity
  8
PV
  6
CONTINUOUS
370
25
100
AcDbLine
 10
7470.999999999999
 20
6416.028356890322
 30
0.0
 11
6337.0
 21
6416.028356890322
 31
0.0
  0
LINE
  5
74
330
17
100
AcDbEntity
  8
PV
  6
CONTINUOUS
370
25
100
AcDbLine
 10
6337.0
 20
6416.028356890322
 30
0.0
 11
6337.0
 21
4550.0
 31
0.0
  0
LINE
  5
75
330
17
100
AcDbEntity
  8
PV
  6
CONTINUOUS
370
13
100
AcDbLine
 10
6337.0
 20
5016.50708922258
 30
0.0
 11
7470.999999999999
 21
5016.50708922258
 31
0.0
  0
LINE
  5
76
330
17
100
AcDbEntity
  8
PV
  6
CONTINUOUS
370
13
100
AcDbLine
 10
6337.0
 20
5483.014178445162
 30
0.0
 11
7470.999999999999
 21
5483.014178445162
 31
0.0
  0
LINE
  5
77
330
17
100
AcDbEntity
  8
PV
  6
CONTINUOUS
370
13
100
AcDbLine
 10
6337.0
 20
5949.521267667743
 30
0.0
 11
7470.999999999999
 21
5949.521267667743
 31
0.0
  0
TEXT
  5
78
330
17
100
AcDbEntity
  8
PV
100
AcDbText
 10
6903.999999999999
 20
5583.014178445162
 30
0.0
 40
140.0
  1
PV04
  7
CN
 72
1
 11
6903.999999999999
 21
5583.014178445162
 31
0.0
100
AcDbText
  0
TEXT
  5
79
330
17
100
AcDbEntity
  8
PV
100
AcDbText
 10
6903.999999999999
 20
5333.014178445162
 30
0.0
 40
120.0
  1
550 W
  7
CN
 72
1
 11
6903.999999999999
 21
5333.014178445162
 31
0.0
100
AcDbText
  0
LINE
  5
7A
330
17
100
AcDbEntity
  8
PV
  6
CONTINUOUS
370
25
100
AcDbLine
 10
7491.0
 20
4550.0
 30
0.0
 11
8625.0
 21
4550.0
 31
0.0
  0
LINE
  5
7B
330
17
100
AcDbEntity
  8
PV
  6
CONTINUOUS
370
25
100
AcDbLine
 10
8625.0
 20
4550.0
 30
0.0
 11
8625.0
 21
6416.028356890322
 31
0.0
  0
LINE
  5
7C
330
17
100
AcDbEntity
  8
PV
  6
CONTINUOUS
370
25
100
AcDbLine
 10
8625.0
 20
6416.028356890322
 30
0.0
 11
7491.0
 21
6416.028356890322
 31
0.0
  0
LINE
  5
7D
330
17
100
AcDbEntity
  8
PV
  6
CONTINUOUS
370
25
100
AcDbLine
 10
7491.0
 20
6416.028356890322
 30
0.0
 11
7491.0
 21
4550.0
 31
0.0
  0
LINE
  5
7E
330
17
100
AcDbEntity
  8
PV
  6
CONTINUOUS
370
13
100
AcDbLine
 10
7491.0
 20
5016.50708922258
 30
0.0
 11
8625.0
 21
5016.50708922258
 31
0.0
  0
LINE
  5
7F
330
17
100
AcDbEntity
  8
PV
  6
CONTINUOUS
370
13
100
AcDbLine
 10
7491.0
 20
5483.014178445162
 30
0.0
 11
8625.0
 21
5483.014178445162
 31
0.0
  0
LINE
  5
80
330
17
100
AcDbEntity
  8
PV
  6
CONTINUOUS
370
13
100
AcDbLine
 10
7491.0
 20
5949.521267667743
 30
0.0
 11
8625.0
 21
5949.521267667743
 31
0.0
  0
TEXT
  5
81
330
17
100
AcDbEntity
  8
PV
100
AcDbText
 10
8058.0
 20
5583.014178445162
 30
0.0
 40
140.0
  1
PV05
  7
CN
 72
1
 11
8058.0
 21
5583.014178445162
 31
0.0
100
AcDbText
  0
TEXT
  5
82
330
17
100
AcDbEntity
  8
PV
100
AcDbText
 10
8058.0
 20
5333.014178445162
 30
0.0
 40
120.0
  1
550 W
  7
CN
 72
1
 11
8058.0
 21
5333.014178445162
 31
0.0
100
AcDbText
  0
LINE
  5
83
330
17
100
AcDbEntity
  8
STRUCT
  6
DRAW_DASH
370
18
100
AcDbLine
 10
2875.0
 20
4550.0
 30
0.0
 11
2875.0
 21
6416.028356890322
 31
0.0
  0
LINE
  5
84
330
17
100
AcDbEntity
  8
STRUCT
  6
DRAW_DASH
370
18
100
AcDbLine
 10
4025.0
 20
4550.0
 30
0.0
 11
4025.0
 21
6416.028356890322
 31
0.0
  0
LINE
  5
85
330
17
100
AcDbEntity
  8
STRUCT
  6
DRAW_DASH
370
18
100
AcDbLine
 10
5175.0
 20
4550.0
 30
0.0
 11
5175.0
 21
6416.028356890322
 31
0.0
  0
LINE
  5
86
330
17
100
AcDbEntity
  8
STRUCT
  6
DRAW_DASH
370
18
100
AcDbLine
 10
6325.0
 20
4550.0
 30
0.0
 11
6325.0
 21
6416.028356890322
 31
0.0
  0
LINE
  5
87
330
17
100
AcDbEntity
  8
STRUCT
  6
DRAW_DASH
370
18
100
AcDbLine
 10
7475.0
 20
4550.0
 30
0.0
 11
7475.0
 21
6416.028356890322
 31
0.0
  0
LINE
  5
88
330
17
100
AcDbEntity
  8
STRUCT
  6
DRAW_DASH
370
18
100
AcDbLine
 10
8625.0
 20
4550.0
 30
0.0
 11
8625.0
 21
6416.028356890322
 31
0.0
  0
LINE
  5
89
330
17
100
AcDbEntity
  8
STRUCT
  6
CONTINUOUS
370
35
100
AcDbLine
 10
2875.0
 20
4909.583664372765
 30
0.0
 11
8625.0
 21
4909.583664372765
 31
0.0
  0
LINE
  5
8A
330
17
100
AcDbEntity
  8
STRUCT
  6
CONTINUOUS
370
35
100
AcDbLine
 10
2875.0
 20
6056.444692517558
 30
0.0
 11
8625.0
 21
6056.444692517558
 31
0.0
  0
TEXT
  5
8B
330
17
100
AcDbEntity
  8
PV
100
AcDbText
 10
5750.0
 20
6566.028356890322
 30
0.0
 40
130.0
  1
S1 → MPPT1（独立一路）
  7
CN
 72
1
 11
5750.0
 21
6566.028356890322
 31
0.0
100
AcDbText
  0
LINE
  5
8C
330
17
100
AcDbEntity
  8
PV
  6
CONTINUOUS
370
25
100
AcDbLine
 10
2875.0
 20
9716.028356890323
 30
0.0
 11
4009.0000000000005
 21
9716.028356890323
 31
0.0
  0
LINE
  5
8D
330
17
100
AcDbEntity
  8
PV
  6
CONTINUOUS
370
25
100
AcDbLine
 10
4009.0000000000005
 20
9716.028356890323
 30
0.0
 11
4009.0000000000005
 21
11582.056713780645
 31
0.0
  0
LINE
  5
8E
330
17
100
AcDbEntity
  8
PV
  6
CONTINUOUS
370
25
100
AcDbLine
 10
4009.0000000000005
 20
11582.056713780645
 30
0.0
 11
2875.0
 21
11582.056713780645
 31
0.0
  0
LINE
  5
8F
330
17
100
AcDbEntity
  8
PV
  6
CONTINUOUS
370
25
100
AcDbLine
 10
2875.0
 20
11582.056713780645
 30
0.0
 11
2875.0
 21
9716.028356890323
 31
0.0
  0
LINE
  5
90
330
17
100
AcDbEntity
  8
PV
  6
CONTINUOUS
370
13
100
AcDbLine
 10
2875.0
 20
10182.535446112905
 30
0.0
 11
4009.0000000000005
 21
10182.535446112905
 31
0.0
  0
LINE
  5
91
330
17
100
AcDbEntity
  8
PV
  6
CONTINUOUS
370
13
100
AcDbLine
 10
2875.0
 20
10649.042535335484
 30
0.0
 11
4009.0000000000005
 21
10649.042535335484
 31
0.0
  0
LINE
  5
92
330
17
100
AcDbEntity
  8
PV
  6
CONTINUOUS
370
13
100
AcDbLine
 10
2875.0
 20
11115.549624558065
 30
0.0
 11
4009.0000000000005
 21
11115.549624558065
 31
0.0
  0
TEXT
  5
93
330
17
100
AcDbEntity
  8
PV
100
AcDbText
 10
3442.0
 20
10749.042535335484
 30
0.0
 40
140.0
  1
PV06
  7
CN
 72
1
 11
3442.0
 21
10749.042535335484
 31
0.0
100
AcDbText
  0
TEXT
  5
94
330
17
100
AcDbEntity
  8
PV
100
AcDbText
 10
3442.0
 20
10499.042535335484
 30
0.0
 40
120.0
  1
550 W
  7
CN
 72
1
 11
3442.0
 21
10499.042535335484
 31
0.0
100
AcDbText
  0
LINE
  5
95
330
17
100
AcDbEntity
  8
PV
  6
CONTINUOUS
370
25
100
AcDbLine
 10
4029.0
 20
9716.028356890323
 30
0.0
 11
5163.0
 21
9716.028356890323
 31
0.0
  0
LINE
  5
96
330
17
100
AcDbEntity
  8
PV
  6
CONTINUOUS
370
25
100
AcDbLine
 10
5163.0
 20
9716.028356890323
 30
0.0
 11
5163.0
 21
11582.056713780645
 31
0.0
  0
LINE
  5
97
330
17
100
AcDbEntity
  8
PV
  6
CONTINUOUS
370
25
100
AcDbLine
 10
5163.0
 20
11582.056713780645
 30
0.0
 11
4029.0
 21
11582.056713780645
 31
0.0
  0
LINE
  5
98
330
17
100
AcDbEntity
  8
PV
  6
CONTINUOUS
370
25
100
AcDbLine
 10
4029.0
 20
11582.056713780645
 30
0.0
 11
4029.0
 21
9716.028356890323
 31
0.0
  0
LINE
  5
99
330
17
100
AcDbEntity
  8
PV
  6
CONTINUOUS
370
13
100
AcDbLine
 10
4029.0
 20
10182.535446112905
 30
0.0
 11
5163.0
 21
10182.535446112905
 31
0.0
  0
LINE
  5
9A
330
17
100
AcDbEntity
  8
PV
  6
CONTINUOUS
370
13
100
AcDbLine
 10
4029.0
 20
10649.042535335484
 30
0.0
 11
5163.0
 21
10649.042535335484
 31
0.0
  0
LINE
  5
9B
330
17
100
AcDbEntity
  8
PV
  6
CONTINUOUS
370
13
100
AcDbLine
 10
4029.0
 20
11115.549624558065
 30
0.0
 11
5163.0
 21
11115.549624558065
 31
0.0
  0
TEXT
  5
9C
330
17
100
AcDbEntity
  8
PV
100
AcDbText
 10
4596.0
 20
10749.042535335484
 30
0.0
 40
140.0
  1
PV07
  7
CN
 72
1
 11
4596.0
 21
10749.042535335484
 31
0.0
100
AcDbText
  0
TEXT
  5
9D
330
17
100
AcDbEntity
  8
PV
100
AcDbText
 10
4596.0
 20
10499.042535335484
 30
0.0
 40
120.0
  1
550 W
  7
CN
 72
1
 11
4596.0
 21
10499.042535335484
 31
0.0
100
AcDbText
  0
LINE
  5
9E
330
17
100
AcDbEntity
  8
PV
  6
CONTINUOUS
370
25
100
AcDbLine
 10
5183.0
 20
9716.028356890323
 30
0.0
 11
6317.0
 21
9716.028356890323
 31
0.0
  0
LINE
  5
9F
330
17
100
AcDbEntity
  8
PV
  6
CONTINUOUS
370
25
100
AcDbLine
 10
6317.0
 20
9716.028356890323
 30
0.0
 11
6317.0
 21
11582.056713780645
 31
0.0
  0
LINE
  5
A0
330
17
100
AcDbEntity
  8
PV
  6
CONTINUOUS
370
25
100
AcDbLine
 10
6317.0
 20
11582.056713780645
 30
0.0
 11
5183.0
 21
11582.056713780645
 31
0.0
  0
LINE
  5
A1
330
17
100
AcDbEntity
  8
PV
  6
CONTINUOUS
370
25
100
AcDbLine
 10
5183.0
 20
11582.056713780645
 30
0.0
 11
5183.0
 21
9716.028356890323
 31
0.0
  0
LINE
  5
A2
330
17
100
AcDbEntity
  8
PV
  6
CONTINUOUS
370
13
100
AcDbLine
 10
5183.0
 20
10182.535446112905
 30
0.0
 11
6317.0
 21
10182.535446112905
 31
0.0
  0
LINE
  5
A3
330
17
100
AcDbEntity
  8
PV
  6
CONTINUOUS
370
13
100
AcDbLine
 10
5183.0
 20
10649.042535335484
 30
0.0
 11
6317.0
 21
10649.042535335484
 31
0.0
  0
LINE
  5
A4
330
17
100
AcDbEntity
  8
PV
  6
CONTINUOUS
370
13
100
AcDbLine
 10
5183.0
 20
11115.549624558065
 30
0.0
 11
6317.0
 21
11115.549624558065
 31
0.0
  0
TEXT
  5
A5
330
17
100
AcDbEntity
  8
PV
100
AcDbText
 10
5750.0
 20
10749.042535335484
 30
0.0
 40
140.0
  1
PV08
  7
CN
 72
1
 11
5750.0
 21
10749.042535335484
 31
0.0
100
AcDbText
  0
TEXT
  5
A6
330
17
100
AcDbEntity
  8
PV
100
AcDbText
 10
5750.0
 20
10499.042535335484
 30
0.0
 40
120.0
  1
550 W
  7
CN
 72
1
 11
5750.0
 21
10499.042535335484
 31
0.0
100
AcDbText
  0
LINE
  5
A7
330
17
100
AcDbEntity
  8
PV
  6
CONTINUOUS
370
25
100
AcDbLine
 10
6337.0
 20
9716.028356890323
 30
0.0
 11
7470.999999999999
 21
9716.028356890323
 31
0.0
  0
LINE
  5
A8
330
17
100
AcDbEntity
  8
PV
  6
CONTINUOUS
370
25
100
AcDbLine
 10
7470.999999999999
 20
9716.028356890323
 30
0.0
 11
7470.999999999999
 21
11582.056713780645
 31
0.0
  0
LINE
  5
A9
330
17
100
AcDbEntity
  8
PV
  6
CONTINUOUS
370
25
100
AcDbLine
 10
7470.999999999999
 20
11582.056713780645
 30
0.0
 11
6337.0
 21
11582.056713780645
 31
0.0
  0
LINE
  5
AA
330
17
100
AcDbEntity
  8
PV
  6
CONTINUOUS
370
25
100
AcDbLine
 10
6337.0
 20
11582.056713780645
 30
0.0
 11
6337.0
 21
9716.028356890323
 31
0.0
  0
LINE
  5
AB
330
17
100
AcDbEntity
  8
PV
  6
CONTINUOUS
370
13
100
AcDbLine
 10
6337.0
 20
10182.535446112905
 30
0.0
 11
7470.999999999999
 21
10182.535446112905
 31
0.0
  0
LINE
  5
AC
330
17
100
AcDbEntity
  8
PV
  6
CONTINUOUS
370
13
100
AcDbLine
 10
6337.0
 20
10649.042535335484
 30
0.0
 11
7470.999999999999
 21
10649.042535335484
 31
0.0
  0
LINE
  5
AD
330
17
100
AcDbEntity
  8
PV
  6
CONTINUOUS
370
13
100
AcDbLine
 10
6337.0
 20
11115.549624558065
 30
0.0
 11
7470.999999999999
 21
11115.549624558065
 31
0.0
  0
TEXT
  5
AE
330
17
100
AcDbEntity
  8
PV
100
AcDbText
 10
6903.999999999999
 20
10749.042535335484
 30
0.0
 40
140.0
  1
PV09
  7
CN
 72
1
 11
6903.999999999999
 21
10749.042535335484
 31
0.0
100
AcDbText
  0
TEXT
  5
AF
330
17
100
AcDbEntity
  8
PV
100
AcDbText
 10
6903.999999999999
 20
10499.042535335484
 30
0.0
 40
120.0
  1
550 W
  7
CN
 72
1
 11
6903.999999999999
 21
10499.042535335484
 31
0.0
100
AcDbText
  0
LINE
  5
B0
330
17
100
AcDbEntity
  8
PV
  6
CONTINUOUS
370
25
100
AcDbLine
 10
7491.0
 20
9716.028356890323
 30
0.0
 11
8625.0
 21
9716.028356890323
 31
0.0
  0
LINE
  5
B1
330
17
100
AcDbEntity
  8
PV
  6
CONTINUOUS
370
25
100
AcDbLine
 10
8625.0
 20
9716.028356890323
 30
0.0
 11
8625.0
 21
11582.056713780645
 31
0.0
  0
LINE
  5
B2
330
17
100
AcDbEntity
  8
PV
  6
CONTINUOUS
370
25
100
AcDbLine
 10
8625.0
 20
11582.056713780645
 30
0.0
 11
7491.0
 21
11582.056713780645
 31
0.0
  0
LINE
  5
B3
330
17
100
AcDbEntity
  8
PV
  6
CONTINUOUS
370
25
100
AcDbLine
 10
7491.0
 20
11582.056713780645
 30
0.0
 11
7491.0
 21
9716.028356890323
 31
0.0
  0
LINE
  5
B4
330
17
100
AcDbEntity
  8
PV
  6
CONTINUOUS
370
13
100
AcDbLine
 10
7491.0
 20
10182.535446112905
 30
0.0
 11
8625.0
 21
10182.535446112905
 31
0.0
  0
LINE
  5
B5
330
17
100
AcDbEntity
  8
PV
  6
CONTINUOUS
370
13
100
AcDbLine
 10
7491.0
 20
10649.042535335484
 30
0.0
 11
8625.0
 21
10649.042535335484
 31
0.0
  0
LINE
  5
B6
330
17
100
AcDbEntity
  8
PV
  6
CONTINUOUS
370
13
100
AcDbLine
 10
7491.0
 20
11115.549624558065
 30
0.0
 11
8625.0
 21
11115.549624558065
 31
0.0
  0
TEXT
  5
B7
330
17
100
AcDbEntity
  8
PV
100
AcDbText
 10
8058.0
 20
10749.042535335484
 30
0.0
 40
140.0
  1
PV10
  7
CN
 72
1
 11
8058.0
 21
10749.042535335484
 31
0.0
100
AcDbText
  0
TEXT
  5
B8
330
17
100
AcDbEntity
  8
PV
100
AcDbText
 10
8058.0
 20
10499.042535335484
 30
0.0
 40
120.0
  1
550 W
  7
CN
 72
1
 11
8058.0
 21
10499.042535335484
 31
0.0
100
AcDbText
  0
LINE
  5
B9
330
17
100
AcDbEntity
  8
STRUCT
  6
DRAW_DASH
370
18
100
AcDbLine
 10
2875.0
 20
9716.028356890323
 30
0.0
 11
2875.0
 21
11582.056713780645
 31
0.0
  0
LINE
  5
BA
330
17
100
AcDbEntity
  8
STRUCT
  6
DRAW_DASH
370
18
100
AcDbLine
 10
4025.0
 20
9716.028356890323
 30
0.0
 11
4025.0
 21
11582.056713780645
 31
0.0
  0
LINE
  5
BB
330
17
100
AcDbEntity
  8
STRUCT
  6
DRAW_DASH
370
18
100
AcDbLine
 10
5175.0
 20
9716.028356890323
 30
0.0
 11
5175.0
 21
11582.056713780645
 31
0.0
  0
LINE
  5
BC
330
17
100
AcDbEntity
  8
STRUCT
  6
DRAW_DASH
370
18
100
AcDbLine
 10
6325.0
 20
9716.028356890323
 30
0.0
 11
6325.0
 21
11582.056713780645
 31
0.0
  0
LINE
  5
BD
330
17
100
AcDbEntity
  8
STRUCT
  6
DRAW_DASH
370
18
100
AcDbLine
 10
7475.0
 20
9716.028356890323
 30
0.0
 11
7475.0
 21
11582.056713780645
 31
0.0
  0
LINE
  5
BE
330
17
100
AcDbEntity
  8
STRUCT
  6
DRAW_DASH
370
18
100
AcDbLine
 10
8625.0
 20
9716.028356890323
 30
0.0
 11
8625.0
 21
11582.056713780645
 31
0.0
  0
LINE
  5
BF
330
17
100
AcDbEntity
  8
STRUCT
  6
CONTINUOUS
370
35
100
AcDbLine
 10
2875.0
 20
10075.612021263087
 30
0.0
 11
8625.0
 21
10075.612021263087
 31
0.0
  0
LINE
  5
C0
330
17
100
AcDbEntity
  8
STRUCT
  6
CONTINUOUS
370
35
100
AcDbLine
 10
2875.0
 20
11222.47304940788
 30
0.0
 11
8625.0
 21
11222.47304940788
 31
0.0
  0
TEXT
  5
C1
330
17
100
AcDbEntity
  8
PV
100
AcDbText
 10
5750.0
 20
11732.056713780645
 30
0.0
 40
130.0
  1
S2 → MPPT2（独立一路）
  7
CN
 72
1
 11
5750.0
 21
11732.056713780645
 31
0.0
100
AcDbText
  0
TEXT
  5
C2
330
17
100
AcDbEntity
  8
NOTE
100
AcDbText
 10
1650.0
 20
7700.0
 30
0.0
 40
125.0
  1
西侧
  7
CN
 11
1650.0
 21
7700.0
 31
0.0
100
AcDbText
  0
TEXT
  5
C3
330
17
100
AcDbEntity
  8
NOTE
100
AcDbText
 10
1650.0
 20
7450.0
 30
0.0
 40
125.0
  1
通道
  7
CN
 11
1650.0
 21
7450.0
 31
0.0
100
AcDbText
  0
TEXT
  5
C4
330
17
100
AcDbEntity
  8
NOTE
100
AcDbText
 10
9000.0
 20
7700.0
 30
0.0
 40
125.0
  1
东侧
  7
CN
 11
9000.0
 21
7700.0
 31
0.0
100
AcDbText
  0
TEXT
  5
C5
330
17
100
AcDbEntity
  8
NOTE
100
AcDbText
 10
9000.0
 20
7450.0
 30
0.0
 40
125.0
  1
通道
  7
CN
 11
9000.0
 21
7450.0
 31
0.0
100
AcDbText
  0
TEXT
  5
C6
330
17
100
AcDbEntity
  8
NOTE
100
AcDbText
 10
4350.0
 20
7750.0
 30
0.0
 40
140.0
  1
排间检修 / 自遮挡净距 3300
  7
CN
 11
4350.0
 21
7750.0
 31
0.0
100
AcDbText
  0
TEXT
  5
C7
330
17
100
AcDbEntity
  8
NOTE
100
AcDbText
 10
1500.0
 20
4000.0
 30
0.0
 40
120.0
  1
南侧女儿墙：高300（假设）
  7
CN
 11
1500.0
 21
4000.0
 31
0.0
100
AcDbText
  0
LINE
  5
C8
330
17
100
AcDbEntity
  8
DIM
  6
DRAW_DASH
370
15
100
AcDbLine
 10
5173.0
 20
4250.0
 30
0.0
 11
5173.0
 21
12150.0
 31
0.0
  0
TEXT
  5
C9
330
17
100
AcDbEntity
  8
DIM
100
AcDbText
 10
5350.0
 20
4250.0
 30
0.0
 40
135.0
  1
A
  7
CN
 11
5350.0
 21
4250.0
 31
0.0
100
AcDbText
  0
TEXT
  5
CA
330
17
100
AcDbEntity
  8
DIM
100
AcDbText
 10
5350.0
 20
12150.0
 30
0.0
 40
135.0
  1
A
  7
CN
 11
5350.0
 21
12150.0
 31
0.0
100
AcDbText
  0
LINE
  5
CB
330
17
100
AcDbEntity
  8
DIM
  6
CONTINUOUS
370
13
100
AcDbLine
 10
1250.0
 20
12750.0
 30
0.0
 11
1250.0
 21
13050.0
 31
0.0
  0
LINE
  5
CC
330
17
100
AcDbEntity
  8
DIM
  6
CONTINUOUS
370
18
100
AcDbLine
 10
1200.0
 20
12900.0
 30
0.0
 11
1300.0
 21
13000.0
 31
0.0
  0
LINE
  5
CD
330
17
100
AcDbEntity
  8
DIM
  6
CONTINUOUS
370
13
100
AcDbLine
 10
10250.0
 20
12750.0
 30
0.0
 11
10250.0
 21
13050.0
 31
0.0
  0
LINE
  5
CE
330
17
100
AcDbEntity
  8
DIM
  6
CONTINUOUS
370
18
100
AcDbLine
 10
10200.0
 20
12900.0
 30
0.0
 11
10300.0
 21
13000.0
 31
0.0
  0
LINE
  5
CF
330
17
100
AcDbEntity
  8
DIM
  6
CONTINUOUS
370
13
100
AcDbLine
 10
1250.0
 20
12950.0
 30
0.0
 11
10250.0
 21
12950.0
 31
0.0
  0
TEXT
  5
D0
330
17
100
AcDbEntity
  8
DIM
100
AcDbText
 10
5750.0
 20
13030.000000000002
 30
0.0
 40
120.0
  1
9000
  7
CN
 72
1
 11
5750.0
 21
13030.000000000002
 31
0.0
100
AcDbText
  0
LINE
  5
D1
330
17
100
AcDbEntity
  8
DIM
  6
CONTINUOUS
370
13
100
AcDbLine
 10
1250.0
 20
3750.0
 30
0.0
 11
850.0
 21
3750.0
 31
0.0
  0
LINE
  5
D2
330
17
100
AcDbEntity
  8
DIM
  6
CONTINUOUS
370
18
100
AcDbLine
 10
900.0
 20
3700.0
 30
0.0
 11
1000.0
 21
3800.0
 31
0.0
  0
LINE
  5
D3
330
17
100
AcDbEntity
  8
DIM
  6
CONTINUOUS
370
13
100
AcDbLine
 10
1250.0
 20
12750.0
 30
0.0
 11
850.0
 21
12750.0
 31
0.0
  0
LINE
  5
D4
330
17
100
AcDbEntity
  8
DIM
  6
CONTINUOUS
370
18
100
AcDbLine
 10
900.0
 20
12700.0
 30
0.0
 11
1000.0
 21
12800.0
 31
0.0
  0
LINE
  5
D5
330
17
100
AcDbEntity
  8
DIM
  6
CONTINUOUS
370
13
100
AcDbLine
 10
950.0
 20
3750.0
 30
0.0
 11
950.0
 21
12750.0
 31
0.0
  0
TEXT
  5
D6
330
17
100
AcDbEntity
  8
DIM
100
AcDbText
 10
875.0
 20
8250.0
 30
0.0
 40
120.0
  1
9000
 50
90.0
  7
CN
 72
1
 11
875.0
 21
8250.0
 31
0.0
100
AcDbText
  0
LINE
  5
D7
330
17
100
AcDbEntity
  8
DIM
  6
CONTINUOUS
370
13
100
AcDbLine
 10
2875.0
 20
4550.0
 30
0.0
 11
2875.0
 21
3550.0
 31
0.0
  0
LINE
  5
D8
330
17
100
AcDbEntity
  8
DIM
  6
CONTINUOUS
370
18
100
AcDbLine
 10
2825.0
 20
3400.0
 30
0.0
 11
2925.0
 21
3500.0
 31
0.0
  0
LINE
  5
D9
330
17
100
AcDbEntity
  8
DIM
  6
CONTINUOUS
370
13
100
AcDbLine
 10
8625.0
 20
4550.0
 30
0.0
 11
8625.0
 21
3550.0
 31
0.0
  0
LINE
  5
DA
330
17
100
AcDbEntity
  8
DIM
  6
CONTINUOUS
370
18
100
AcDbLine
 10
8575.0
 20
3400.0
 30
0.0
 11
8675.0
 21
3500.0
 31
0.0
  0
LINE
  5
DB
330
17
100
AcDbEntity
  8
DIM
  6
CONTINUOUS
370
13
100
AcDbLine
 10
2875.0
 20
3450.0
 30
0.0
 11
8625.0
 21
3450.0
 31
0.0
  0
TEXT
  5
DC
330
17
100
AcDbEntity
  8
DIM
100
AcDbText
 10
5750.0
 20
3529.9999999999995
 30
0.0
 40
120.0
  1
5750
  7
CN
 72
1
 11
5750.0
 21
3529.9999999999995
 31
0.0
100
AcDbText
  0
LINE
  5
DD
330
17
100
AcDbEntity
  8
DIM
  6
CONTINUOUS
370
13
100
AcDbLine
 10
1250.0
 20
3750.0
 30
0.0
 11
1250.0
 21
3100.0
 31
0.0
  0
LINE
  5
DE
330
17
100
AcDbEntity
  8
DIM
  6
CONTINUOUS
370
18
100
AcDbLine
 10
1200.0
 20
2950.0
 30
0.0
 11
1300.0
 21
3050.0
 31
0.0
  0
LINE
  5
DF
330
17
100
AcDbEntity
  8
DIM
  6
CONTINUOUS
370
13
100
AcDbLine
 10
2875.0
 20
3750.0
 30
0.0
 11
2875.0
 21
3100.0
 31
0.0
  0
LINE
  5
E0
330
17
100
AcDbEntity
  8
DIM
  6
CONTINUOUS
370
18
100
AcDbLine
 10
2825.0
 20
2950.0
 30
0.0
 11
2925.0
 21
3050.0
 31
0.0
  0
LINE
  5
E1
330
17
100
AcDbEntity
  8
DIM
  6
CONTINUOUS
370
13
100
AcDbLine
 10
1250.0
 20
3000.0
 30
0.0
 11
2875.0
 21
3000.0
 31
0.0
  0
TEXT
  5
E2
330
17
100
AcDbEntity
  8
DIM
100
AcDbText
 10
2062.5
 20
3080.0
 30
0.0
 40
120.0
  1
1625
  7
CN
 72
1
 11
2062.5
 21
3080.0
 31
0.0
100
AcDbText
  0
LINE
  5
E3
330
17
100
AcDbEntity
  8
DIM
  6
CONTINUOUS
370
13
100
AcDbLine
 10
8625.0
 20
3750.0
 30
0.0
 11
8625.0
 21
3100.0
 31
0.0
  0
LINE
  5
E4
330
17
100
AcDbEntity
  8
DIM
  6
CONTINUOUS
370
18
100
AcDbLine
 10
8575.0
 20
2950.0
 30
0.0
 11
8675.0
 21
3050.0
 31
0.0
  0
LINE
  5
E5
330
17
100
AcDbEntity
  8
DIM
  6
CONTINUOUS
370
13
100
AcDbLine
 10
10250.0
 20
3750.0
 30
0.0
 11
10250.0
 21
3100.0
 31
0.0
  0
LINE
  5
E6
330
17
100
AcDbEntity
  8
DIM
  6
CONTINUOUS
370
18
100
AcDbLine
 10
10200.0
 20
2950.0
 30
0.0
 11
10300.0
 21
3050.0
 31
0.0
  0
LINE
  5
E7
330
17
100
AcDbEntity
  8
DIM
  6
CONTINUOUS
370
13
100
AcDbLine
 10
8625.0
 20
3000.0
 30
0.0
 11
10250.0
 21
3000.0
 31
0.0
  0
TEXT
  5
E8
330
17
100
AcDbEntity
  8
DIM
100
AcDbText
 10
9437.5
 20
3080.0
 30
0.0
 40
120.0
  1
1625
  7
CN
 72
1
 11
9437.5
 21
3080.0
 31
0.0
100
AcDbText
  0
LINE
  5
E9
330
17
100
AcDbEntity
  8
DIM
  6
CONTINUOUS
370
13
100
AcDbLine
 10
10250.0
 20
6416.028356890322
 30
0.0
 11
10600.0
 21
6416.028356890322
 31
0.0
  0
LINE
  5
EA
330
17
100
AcDbEntity
  8
DIM
  6
CONTINUOUS
370
18
100
AcDbLine
 10
10650.0
 20
6366.028356890322
 30
0.0
 11
10750.0
 21
6466.028356890322
 31
0.0
  0
LINE
  5
EB
330
17
100
AcDbEntity
  8
DIM
  6
CONTINUOUS
370
13
100
AcDbLine
 10
10250.0
 20
9716.028356890323
 30
0.0
 11
10600.0
 21
9716.028356890323
 31
0.0
  0
LINE
  5
EC
330
17
100
AcDbEntity
  8
DIM
  6
CONTINUOUS
370
18
100
AcDbLine
 10
10650.0
 20
9666.028356890323
 30
0.0
 11
10750.0
 21
9766.028356890323
 31
0.0
  0
LINE
  5
ED
330
17
100
AcDbEntity
  8
DIM
  6
CONTINUOUS
370
13
100
AcDbLine
 10
10700.0
 20
6416.028356890322
 30
0.0
 11
10700.0
 21
9716.028356890323
 31
0.0
  0
TEXT
  5
EE
330
17
100
AcDbEntity
  8
DIM
100
AcDbText
 10
10625.0
 20
8066.028356890322
 30
0.0
 40
120.0
  1
3300 净距
 50
90.0
  7
CN
 72
1
 11
10625.0
 21
8066.028356890322
 31
0.0
100
AcDbText
  0
LINE
  5
EF
330
17
100
AcDbEntity
  8
EQUIP
  6
CONTINUOUS
370
50
100
AcDbLine
 10
9750.0
 20
11900.0
 30
0.0
 11
9750.0
 21
12450.0
 31
0.0
  0
LINE
  5
F0
330
17
100
AcDbEntity
  8
EQUIP
  6
CONTINUOUS
370
25
100
AcDbLine
 10
9750.0
 20
12450.0
 30
0.0
 11
9675.0
 21
12250.0
 31
0.0
  0
LINE
  5
F1
330
17
100
AcDbEntity
  8
EQUIP
  6
CONTINUOUS
370
25
100
AcDbLine
 10
9750.0
 20
12450.0
 30
0.0
 11
9825.0
 21
12250.0
 31
0.0
  0
TEXT
  5
F2
330
17
100
AcDbEntity
  8
EQUIP
100
AcDbText
 10
9750.0
 20
12550.0
 30
0.0
 40
150.0
  1
N
  7
CN
 72
1
 11
9750.0
 21
12550.0
 31
0.0
100
AcDbText
  0
TEXT
  5
F3
330
17
100
AcDbEntity
  8
NOTE
100
AcDbText
 10
11600.0
 20
13150.0
 30
0.0
 40
160.0
  1
南北剖面 A—A  1:50
  7
CN
 11
11600.0
 21
13150.0
 31
0.0
100
AcDbText
  0
LINE
  5
F4
330
17
100
AcDbEntity
  8
STRUCT
  6
CONTINUOUS
370
50
100
AcDbLine
 10
11650.0
 20
10250.0
 30
0.0
 11
19350.0
 21
10250.0
 31
0.0
  0
LINE
  5
F5
330
17
100
AcDbEntity
  8
PV
  6
CONTINUOUS
370
100
100
AcDbLine
 10
11850.0
 20
10750.0
 30
0.0
 11
13716.028356890323
 21
12056.607122007683
 31
0.0
  0
LINE
  5
F6
330
17
100
AcDbEntity
  8
STRUCT
  6
CONTINUOUS
370
30
100
AcDbLine
 10
11850.0
 20
10250.0
 30
0.0
 11
11850.0
 21
10750.0
 31
0.0
  0
LINE
  5
F7
330
17
100
AcDbEntity
  8
STRUCT
  6
CONTINUOUS
370
30
100
AcDbLine
 10
11850.0
 20
10750.0
 30
0.0
 11
13716.028356890323
 21
12056.607122007683
 31
0.0
  0
LINE
  5
F8
330
17
100
AcDbEntity
  8
STRUCT
  6
CONTINUOUS
370
30
100
AcDbLine
 10
13716.028356890323
 20
12056.607122007683
 30
0.0
 11
13716.028356890323
 21
10250.0
 31
0.0
  0
LINE
  5
F9
330
17
100
AcDbEntity
  8
STRUCT
  6
CONTINUOUS
370
30
100
AcDbLine
 10
13716.028356890323
 20
10250.0
 30
0.0
 11
11850.0
 21
10250.0
 31
0.0
  0
LINE
  5
FA
330
17
100
AcDbEntity
  8
STRUCT
  6
CONTINUOUS
370
25
100
AcDbLine
 10
11850.0
 20
10250.0
 30
0.0
 11
13716.028356890323
 21
12056.607122007683
 31
0.0
  0
TEXT
  5
FB
330
17
100
AcDbEntity
  8
PV
100
AcDbText
 10
12783.01417844516
 20
12250.0
 30
0.0
 40
135.0
  1
35° / 斜长2278
  7
CN
 72
1
 11
12783.01417844516
 21
12250.0
 31
0.0
100
AcDbText
  0
LINE
  5
FC
330
17
100
AcDbEntity
  8
PV
  6
CONTINUOUS
370
100
100
AcDbLine
 10
17016.02835689032
 20
10750.0
 30
0.0
 11
18882.056713780647
 21
12056.607122007683
 31
0.0
  0
LINE
  5
FD
330
17
100
AcDbEntity
  8
STRUCT
  6
CONTINUOUS
370
30
100
AcDbLine
 10
17016.02835689032
 20
10250.0
 30
0.0
 11
17016.02835689032
 21
10750.0
 31
0.0
  0
LINE
  5
FE
330
17
100
AcDbEntity
  8
STRUCT
  6
CONTINUOUS
370
30
100
AcDbLine
 10
17016.02835689032
 20
10750.0
 30
0.0
 11
18882.056713780647
 21
12056.607122007683
 31
0.0
  0
LINE
  5
FF
330
17
100
AcDbEntity
  8
STRUCT
  6
CONTINUOUS
370
30
100
AcDbLine
 10
18882.056713780647
 20
12056.607122007683
 30
0.0
 11
18882.056713780647
 21
10250.0
 31
0.0
  0
LINE
  5
100
330
17
100
AcDbEntity
  8
STRUCT
  6
CONTINUOUS
370
30
100
AcDbLine
 10
18882.056713780647
 20
10250.0
 30
0.0
 11
17016.02835689032
 21
10250.0
 31
0.0
  0
LINE
  5
101
330
17
100
AcDbEntity
  8
STRUCT
  6
CONTINUOUS
370
25
100
AcDbLine
 10
17016.02835689032
 20
10250.0
 30
0.0
 11
18882.056713780647
 21
12056.607122007683
 31
0.0
  0
TEXT
  5
102
330
17
100
AcDbEntity
  8
PV
100
AcDbText
 10
17949.042535335484
 20
12250.0
 30
0.0
 40
135.0
  1
35° / 斜长2278
  7
CN
 72
1
 11
17949.042535335484
 21
12250.0
 31
0.0
100
AcDbText
  0
LINE
  5
103
330
17
100
AcDbEntity
  8
DIM
  6
CONTINUOUS
370
13
100
AcDbLine
 10
13716.028356890323
 20
10250.0
 30
0.0
 11
13716.028356890323
 21
9900.0
 31
0.0
  0
LINE
  5
104
330
17
100
AcDbEntity
  8
DIM
  6
CONTINUOUS
370
18
100
AcDbLine
 10
13666.028356890323
 20
9750.0
 30
0.0
 11
13766.028356890323
 21
9850.0
 31
0.0
  0
LINE
  5
105
330
17
100
AcDbEntity
  8
DIM
  6
CONTINUOUS
370
13
100
AcDbLine
 10
17016.02835689032
 20
10250.0
 30
0.0
 11
17016.02835689032
 21
9900.0
 31
0.0
  0
LINE
  5
106
330
17
100
AcDbEntity
  8
DIM
  6
CONTINUOUS
370
18
100
AcDbLine
 10
16966.02835689032
 20
9750.0
 30
0.0
 11
17066.02835689032
 21
9850.0
 31
0.0
  0
LINE
  5
107
330
17
100
AcDbEntity
  8
DIM
  6
CONTINUOUS
370
13
100
AcDbLine
 10
13716.028356890323
 20
9800.0
 30
0.0
 11
17016.02835689032
 21
9800.0
 31
0.0
  0
TEXT
  5
108
330
17
100
AcDbEntity
  8
DIM
100
AcDbText
 10
15366.028356890323
 20
9880.0
 30
0.0
 40
120.0
  1
3300（后缘→前缘）
  7
CN
 72
1
 11
15366.028356890323
 21
9880.0
 31
0.0
100
AcDbText
  0
LINE
  5
109
330
17
100
AcDbEntity
  8
DIM
  6
CONTINUOUS
370
13
100
AcDbLine
 10
11850.0
 20
10250.0
 30
0.0
 11
11850.0
 21
9400.0
 31
0.0
  0
LINE
  5
10A
330
17
100
AcDbEntity
  8
DIM
  6
CONTINUOUS
370
18
100
AcDbLine
 10
11800.0
 20
9250.0
 30
0.0
 11
11900.0
 21
9350.0
 31
0.0
  0
LINE
  5
10B
330
17
100
AcDbEntity
  8
DIM
  6
CONTINUOUS
370
13
100
AcDbLine
 10
13716.028356890323
 20
10250.0
 30
0.0
 11
13716.028356890323
 21
9400.0
 31
0.0
  0
LINE
  5
10C
330
17
100
AcDbEntity
  8
DIM
  6
CONTINUOUS
370
18
100
AcDbLine
 10
13666.028356890323
 20
9250.0
 30
0.0
 11
13766.028356890323
 21
9350.0
 31
0.0
  0
LINE
  5
10D
330
17
100
AcDbEntity
  8
DIM
  6
CONTINUOUS
370
13
100
AcDbLine
 10
11850.0
 20
9300.0
 30
0.0
 11
13716.028356890323
 21
9300.0
 31
0.0
  0
TEXT
  5
10E
330
17
100
AcDbEntity
  8
DIM
100
AcDbText
 10
12783.01417844516
 20
9380.0
 30
0.0
 40
120.0
  1
1866
  7
CN
 72
1
 11
12783.01417844516
 21
9380.0
 31
0.0
100
AcDbText
  0
LINE
  5
10F
330
17
100
AcDbEntity
  8
DIM
  6
CONTINUOUS
370
13
100
AcDbLine
 10
17016.02835689032
 20
10250.0
 30
0.0
 11
17016.02835689032
 21
9400.0
 31
0.0
  0
LINE
  5
110
330
17
100
AcDbEntity
  8
DIM
  6
CONTINUOUS
370
18
100
AcDbLine
 10
16966.02835689032
 20
9250.0
 30
0.0
 11
17066.02835689032
 21
9350.0
 31
0.0
  0
LINE
  5
111
330
17
100
AcDbEntity
  8
DIM
  6
CONTINUOUS
370
13
100
AcDbLine
 10
18882.056713780647
 20
10250.0
 30
0.0
 11
18882.056713780647
 21
9400.0
 31
0.0
  0
LINE
  5
112
330
17
100
AcDbEntity
  8
DIM
  6
CONTINUOUS
370
18
100
AcDbLine
 10
18832.056713780647
 20
9250.0
 30
0.0
 11
18932.056713780647
 21
9350.0
 31
0.0
  0
LINE
  5
113
330
17
100
AcDbEntity
  8
DIM
  6
CONTINUOUS
370
13
100
AcDbLine
 10
17016.02835689032
 20
9300.0
 30
0.0
 11
18882.056713780647
 21
9300.0
 31
0.0
  0
TEXT
  5
114
330
17
100
AcDbEntity
  8
DIM
100
AcDbText
 10
17949.042535335484
 20
9380.0
 30
0.0
 40
120.0
  1
1866
  7
CN
 72
1
 11
17949.042535335484
 21
9380.0
 31
0.0
100
AcDbText
  0
TEXT
  5
115
330
17
100
AcDbEntity
  8
NOTE
100
AcDbText
 10
11850.0
 20
8900.0
 30
0.0
 40
140.0
  1
南 S
  7
CN
 11
11850.0
 21
8900.0
 31
0.0
100
AcDbText
  0
TEXT
  5
116
330
17
100
AcDbEntity
  8
NOTE
100
AcDbText
 10
18900.0
 20
8900.0
 30
0.0
 40
140.0
  1
北 N
  7
CN
 72
2
 11
18900.0
 21
8900.0
 31
0.0
100
AcDbText
  0
LINE
  5
117
330
17
100
AcDbEntity
  8
DIM
  6
CONTINUOUS
370
13
100
AcDbLine
 10
11850.0
 20
10250.0
 30
0.0
 11
11500.0
 21
10250.0
 31
0.0
  0
LINE
  5
118
330
17
100
AcDbEntity
  8
DIM
  6
CONTINUOUS
370
18
100
AcDbLine
 10
11550.0
 20
10200.0
 30
0.0
 11
11650.0
 21
10300.0
 31
0.0
  0
LINE
  5
119
330
17
100
AcDbEntity
  8
DIM
  6
CONTINUOUS
370
13
100
AcDbLine
 10
11850.0
 20
10750.0
 30
0.0
 11
11500.0
 21
10750.0
 31
0.0
  0
LINE
  5
11A
330
17
100
AcDbEntity
  8
DIM
  6
CONTINUOUS
370
18
100
AcDbLine
 10
11550.0
 20
10700.0
 30
0.0
 11
11650.0
 21
10800.0
 31
0.0
  0
LINE
  5
11B
330
17
100
AcDbEntity
  8
DIM
  6
CONTINUOUS
370
13
100
AcDbLine
 10
11600.0
 20
10250.0
 30
0.0
 11
11600.0
 21
10750.0
 31
0.0
  0
TEXT
  5
11C
330
17
100
AcDbEntity
  8
DIM
100
AcDbText
 10
11525.0
 20
10500.0
 30
0.0
 40
120.0
  1
500
 50
90.0
  7
CN
 72
1
 11
11525.0
 21
10500.0
 31
0.0
100
AcDbText
  0
TEXT
  5
11D
330
17
100
AcDbEntity
  8
NOTE
100
AcDbText
 10
14250.0
 20
11800.0
 30
0.0
 40
125.0
  1
后缘高1807
  7
CN
 11
14250.0
 21
11800.0
 31
0.0
100
AcDbText
  0
LINE
  5
11E
330
17
100
AcDbEntity
  8
FRAME
  6
CONTINUOUS
370
18
100
AcDbLine
 10
11700.0
 20
8350.0
 30
0.0
 11
20100.0
 21
8350.0
 31
0.0
  0
TEXT
  5
11F
330
17
100
AcDbEntity
  8
NOTE
100
AcDbText
 10
11750.0
 20
8000.0
 30
0.0
 40
155.0
  1
支架与图纸参数
  7
CN
 11
11750.0
 21
8000.0
 31
0.0
100
AcDbText
  0
TEXT
  5
120
330
17
100
AcDbEntity
  8
NOTE
100
AcDbText
 10
11750.0
 20
7650.0
 30
0.0
 40
130.0
  1
01  每排5块竖向组件，缝20；每排6榀支承，共12榀。
  7
CN
 11
11750.0
 21
7650.0
 31
0.0
100
AcDbText
  0
TEXT
  5
121
330
17
100
AcDbEntity
  8
NOTE
100
AcDbText
 10
11750.0
 20
7350.0
 30
0.0
 40
130.0
  1
02  每排2道檩条，每道5750；共4道，总长23000。
  7
CN
 11
11750.0
 21
7350.0
 31
0.0
100
AcDbText
  0
TEXT
  5
122
330
17
100
AcDbEntity
  8
NOTE
100
AcDbText
 10
11750.0
 20
7050.0
 30
0.0
 40
130.0
  1
03  支承间距约1150；梁计算跨度上取1200。
  7
CN
 11
11750.0
 21
7050.0
 31
0.0
100
AcDbText
  0
TEXT
  5
123
330
17
100
AcDbEntity
  8
NOTE
100
AcDbText
 10
11750.0
 20
6750.0
 30
0.0
 40
130.0
  1
04  Q235矩形钢管60×40×3，60方向竖置（初选）。
  7
CN
 11
11750.0
 21
6750.0
 31
0.0
100
AcDbText
  0
TEXT
  5
124
330
17
100
AcDbEntity
  8
NOTE
100
AcDbText
 10
11750.0
 20
6450.0
 30
0.0
 40
130.0
  1
05  檩条示意依据1400安装孔纵向间距，实际夹持按厂家。
  7
CN
 11
11750.0
 21
6450.0
 31
0.0
100
AcDbText
  0
TEXT
  5
125
330
17
100
AcDbEntity
  8
NOTE
100
AcDbText
 10
11750.0
 20
6150.0
 30
0.0
 40
130.0
  1
06  冬至太阳时09—15：净距需求约3165，采用3300。
  7
CN
 11
11750.0
 21
6150.0
 31
0.0
100
AcDbText
  0
TEXT
  5
126
330
17
100
AcDbEntity
  8
NOTE
100
AcDbText
 10
11750.0
 20
5850.0
 30
0.0
 40
130.0
  1
07  屋顶为9000×9000教学假设；邻楼/山体遮挡未勘测。
  7
CN
 11
11750.0
 21
5850.0
 31
0.0
100
AcDbText
  0
LINE
  5
127
330
17
100
AcDbEntity
  8
FRAME
  6
CONTINUOUS
370
18
100
AcDbLine
 10
11700.0
 20
5300.0
 30
0.0
 11
20100.0
 21
5300.0
 31
0.0
  0
TEXT
  5
128
330
17
100
AcDbEntity
  8
HOLD
100
AcDbText
 10
11750.0
 20
4950.0
 30
0.0
 40
130.0
  1
待核事项
  7
CN
 11
11750.0
 21
4950.0
 31
0.0
100
AcDbText
  0
TEXT
  5
129
330
17
100
AcDbEntity
  8
HOLD
100
AcDbText
 10
11750.0
 20
4650.0
 30
0.0
 40
130.0
  1
风吸2.0 kPa、下压0.65 kPa为教学输入，非兰州实测。
  7
CN
 11
11750.0
 21
4650.0
 31
0.0
100
AcDbText
  0
TEXT
  5
12A
330
17
100
AcDbEntity
  8
HOLD
100
AcDbText
 10
11750.0
 20
4350.0
 30
0.0
 40
130.0
  1
本图不定锚栓直径、数量、配重或屋面连接做法。
  7
CN
 11
11750.0
 21
4350.0
 31
0.0
100
AcDbText
  0
TEXT
  5
12B
330
17
100
AcDbEntity
  8
HOLD
100
AcDbText
 10
11750.0
 20
4050.0
 30
0.0
 40
130.0
  1
单根檩条计算不代替整体抗风、抗震、承载和防水审查。
  7
CN
 11
11750.0
 21
4050.0
 31
0.0
100
AcDbText
  0
TEXT
  5
12C
330
17
100
AcDbEntity
  8
HOLD
100
AcDbText
 10
11750.0
 20
3750.0
 30
0.0
 40
130.0
  1
MPPT电压段功率待确认，组件数量与布置可能随之调整。
  7
CN
 11
11750.0
 21
3750.0
 31
0.0
100
AcDbText
  0
TEXT
  5
12D
330
17
100
AcDbEntity
  8
NOTE
100
AcDbText
 10
1000.0
 20
2550.0
 30
0.0
 40
132.5
  1
定位原点：屋顶西南角。南排Y=800—2666，北排Y=5966—7832，北余1168。
  7
CN
 11
1000.0
 21
2550.0
 31
0.0
100
AcDbText
  0
ENDSEC
  0
SECTION
  2
OBJECTS
  0
DICTIONARY
  5
A
330
0
100
AcDbDictionary
281
1
  3
ACAD_COLOR
350
B
  3
ACAD_GROUP
350
C
  3
ACAD_LAYOUT
350
D
  3
ACAD_MATERIAL
350
E
  3
ACAD_MLEADERSTYLE
350
F
  3
ACAD_MLINESTYLE
350
10
  3
ACAD_PLOTSETTINGS
350
11
  3
ACAD_PLOTSTYLENAME
350
12
  3
ACAD_SCALELIST
350
14
  3
ACAD_TABLESTYLE
350
15
  3
ACAD_VISUALSTYLE
350
16
  3
EZDXF_META
350
2D
  0
DICTIONARY
  5
B
330
A
100
AcDbDictionary
281
1
  0
DICTIONARY
  5
C
330
A
100
AcDbDictionary
281
1
  0
DICTIONARY
  5
D
330
A
100
AcDbDictionary
281
1
  3
Model
350
1A
  3
Layout1
350
1E
  0
DICTIONARY
  5
E
330
A
100
AcDbDictionary
281
1
  3
ByBlock
350
1F
  3
ByLayer
350
20
  3
Global
350
21
  0
DICTIONARY
  5
F
330
A
100
AcDbDictionary
281
1
  3
Standard
350
2C
  0
DICTIONARY
  5
10
330
A
100
AcDbDictionary
281
1
  3
Standard
350
22
  0
DICTIONARY
  5
11
330
A
100
AcDbDictionary
281
1
  0
ACDBDICTIONARYWDFLT
  5
12
330
A
100
AcDbDictionary
281
1
  3
Normal
350
13
100
AcDbDictionaryWithDefault
340
13
  0
ACDBPLACEHOLDER
  5
13
330
12
  0
DICTIONARY
  5
14
330
A
100
AcDbDictionary
281
1
  0
DICTIONARY
  5
15
330
A
100
AcDbDictionary
281
1
  0
DICTIONARY
  5
16
330
A
100
AcDbDictionary
281
1
  0
LAYOUT
  5
1A
330
D
100
AcDbPlotSettings
  1

  4
A3
  6

 40
7.5
 41
20.0
 42
7.5
 43
20.0
 44
420.0
 45
297.0
 46
0.0
 47
0.0
 48
0.0
 49
0.0
140
0.0
141
0.0
142
1.0
143
1.0
 70
1024
 72
1
 73
0
 74
5
  7

 75
16
 76
0
 77
2
 78
300
147
1.0
148
0.0
149
0.0
100
AcDbLayout
  1
Model
 70
1
 71
0
 10
0.0
 20
0.0
 11
420.0
 21
297.0
 12
0.0
 22
0.0
 32
0.0
 14
1e+20
 24
1e+20
 34
1e+20
 15
-1e+20
 25
-1e+20
 35
-1e+20
146
0.0
 13
0.0
 23
0.0
 33
0.0
 16
1.0
 26
0.0
 36
0.0
 17
0.0
 27
1.0
 37
0.0
 76
1
330
17
  0
LAYOUT
  5
1E
330
D
100
AcDbPlotSettings
  1

  4
A3
  6

 40
7.5
 41
20.0
 42
7.5
 43
20.0
 44
420.0
 45
297.0
 46
0.0
 47
0.0
 48
0.0
 49
0.0
140
0.0
141
0.0
142
1.0
143
1.0
 70
0
 72
1
 73
0
 74
5
  7

 75
16
 76
0
 77
2
 78
300
147
1.0
148
0.0
149
0.0
100
AcDbLayout
  1
Layout1
 70
1
 71
1
 10
0.0
 20
0.0
 11
420.0
 21
297.0
 12
0.0
 22
0.0
 32
0.0
 14
1e+20
 24
1e+20
 34
1e+20
 15
-1e+20
 25
-1e+20
 35
-1e+20
146
0.0
 13
0.0
 23
0.0
 33
0.0
 16
1.0
 26
0.0
 36
0.0
 17
0.0
 27
1.0
 37
0.0
 76
1
330
1B
  0
MATERIAL
  5
1F
102
{ACAD_REACTORS
330
E
102
}
330
E
100
AcDbMaterial
  1
ByBlock
  2

 70
0
 40
1.0
 71
1
 41
1.0
 91
-1023410177
 42
1.0
 72
1
  3

 73
1
 74
1
 75
1
 44
0.5
 73
0
 45
1.0
 46
1.0
 77
1
  4

 78
1
 79
1
170
1
 48
1.0
171
1
  6

172
1
173
1
174
1
140
1.0
141
1.0
175
1
  7

176
1
177
1
178
1
143
1.0
179
1
  8

270
1
271
1
272
1
145
1.0
146
1.0
273
1
  9

274
1
275
1
276
1
 42
1.0
 72
1
  3

 73
1
 74
1
 75
1
 94
63
  0
MATERIAL
  5
20
102
{ACAD_REACTORS
330
E
102
}
330
E
100
AcDbMaterial
  1
ByLayer
  2

 70
0
 40
1.0
 71
1
 41
1.0
 91
-1023410177
 42
1.0
 72
1
  3

 73
1
 74
1
 75
1
 44
0.5
 73
0
 45
1.0
 46
1.0
 77
1
  4

 78
1
 79
1
170
1
 48
1.0
171
1
  6

172
1
173
1
174
1
140
1.0
141
1.0
175
1
  7

176
1
177
1
178
1
143
1.0
179
1
  8

270
1
271
1
272
1
145
1.0
146
1.0
273
1
  9

274
1
275
1
276
1
 42
1.0
 72
1
  3

 73
1
 74
1
 75
1
 94
63
  0
MATERIAL
  5
21
102
{ACAD_REACTORS
330
E
102
}
330
E
100
AcDbMaterial
  1
Global
  2

 70
0
 40
1.0
 71
1
 41
1.0
 91
-1023410177
 42
1.0
 72
1
  3

 73
1
 74
1
 75
1
 44
0.5
 73
0
 45
1.0
 46
1.0
 77
1
  4

 78
1
 79
1
170
1
 48
1.0
171
1
  6

172
1
173
1
174
1
140
1.0
141
1.0
175
1
  7

176
1
177
1
178
1
143
1.0
179
1
  8

270
1
271
1
272
1
145
1.0
146
1.0
273
1
  9

274
1
275
1
276
1
 42
1.0
 72
1
  3

 73
1
 74
1
 75
1
 94
63
  0
MLINESTYLE
  5
22
102
{ACAD_REACTORS
330
10
102
}
330
10
100
AcDbMlineStyle
  2
Standard
 70
0
  3

 62
256
 51
90.0
 52
90.0
 71
2
 49
0.5
 62
256
  6
BYLAYER
 49
-0.5
 62
256
  6
BYLAYER
  0
MLEADERSTYLE
  5
2C
102
{ACAD_REACTORS
330
F
102
}
330
F
100
AcDbMLeaderStyle
179
2
170
2
171
1
172
0
 90
2
 40
0.0
 41
0.0
173
1
 91
-1056964608
 92
-2
290
1
 42
2.0
291
1
 43
8.0
  3
Standard
 44
4.0
300

342
29
174
1
175
1
176
0
178
1
 93
-1056964608
 45
4.0
292
0
297
0
 46
4.0
 94
-1056964608
 47
1.0
 49
1.0
140
1.0
294
1
141
0.0
177
0
142
1.0
295
0
296
0
143
3.75
271
0
272
9
273
9
  0
DICTIONARY
  5
2D
330
A
100
AcDbDictionary
280
1
281
1
  3
CREATED_BY_EZDXF
350
2E
  3
WRITTEN_BY_EZDXF
350
131
  0
DICTIONARYVAR
  5
2E
330
2D
100
DictionaryVariables
280
0
  1
1.4.4 @ 2026-09-10T09:29:30.904044+00:00
  0
DICTIONARYVAR
  5
131
330
2D
100
DictionaryVariables
280
0
  1
1.4.4 @ 2026-09-10T09:29:30.929024+00:00
  0
ENDSEC
  0
EOF
